<?xml version="1.0" encoding="UTF-8"?><svg xmlns="http://www.w3.org/2000/svg" xmlns:xlink="http://www.w3.org/1999/xlink" height="755pt" style="width:1633px;height:755px;" version="1.1" viewBox="0 0 1633 755" width="1633pt">
    <defs>
        <filter height="300%" id="f1" width="300%" x="-1" y="-1">
            <feGaussianBlur result="blurOut" stdDeviation="2.0"/>
            <feColorMatrix in="blurOut" result="blurOut2" type="matrix" values="0 0 0 0 0 0 0 0 0 0 0 0 0 0 0 0 0 0 .4 0"/>
            <feOffset dx="4.0" dy="4.0" in="blurOut2" result="blurOut3"/>
            <feBlend in="SourceGraphic" in2="blurOut3" mode="normal"/>
        </filter>
    </defs>
    <g>
        <polygon fill="#FFFFFF" filter="url(#f1)" points="947.953,232,967.953,232,974.953,255.6094,1224.95,255.6094,1224.95,316,947.953,316,947.953,232" style="stroke: #000000; stroke-width: 2.0;"/>
        <line style="stroke: #000000; stroke-width: 2.0;" x1="947.953" x2="974.953" y1="255.6094" y2="255.6094"/>
        <text fill="#000000" font-family="sans-serif" font-size="14" font-weight="bold" lengthAdjust="spacingAndGlyphs" textLength="14" x="950.953" y="249.5332">DI</text>
        <polygon fill="#FFFFFF" filter="url(#f1)" points="204.953,448,314.953,448,321.953,471.6094,336.953,471.6094,336.953,748,204.953,748,204.953,448" style="stroke: #000000; stroke-width: 2.0;"/>
        <line style="stroke: #000000; stroke-width: 2.0;" x1="204.953" x2="321.953" y1="471.6094" y2="471.6094"/>
        <text fill="#000000" font-family="sans-serif" font-size="14" font-weight="bold" lengthAdjust="spacingAndGlyphs" textLength="104" x="207.953" y="465.5332">Jepi.Fw.Config</text>
        <polygon fill="#FFFFFF" filter="url(#f1)" points="578.953,556,720.953,556,727.953,579.6094,1322.95,579.6094,1322.95,748,578.953,748,578.953,556" style="stroke: #000000; stroke-width: 2.0;"/>
        <line style="stroke: #000000; stroke-width: 2.0;" x1="578.953" x2="727.953" y1="579.6094" y2="579.6094"/>
        <text fill="#000000" font-family="sans-serif" font-size="14" font-weight="bold" lengthAdjust="spacingAndGlyphs" textLength="136" x="581.953" y="573.5332">Jepi.Fw.Exceptions</text>
        <polygon fill="#FFFFFF" filter="url(#f1)" points="1146.95,16,1281.95,16,1288.95,39.6094,1296.95,39.6094,1296.95,208,1146.95,208,1146.95,16" style="stroke: #000000; stroke-width: 2.0;"/>
        <line style="stroke: #000000; stroke-width: 2.0;" x1="1146.95" x2="1288.95" y1="39.6094" y2="39.6094"/>
        <text fill="#000000" font-family="sans-serif" font-size="14" font-weight="bold" lengthAdjust="spacingAndGlyphs" textLength="129" x="1149.95" y="33.5332">Jepi.Fw.Controller</text>
        <polygon fill="#FFFFFF" filter="url(#f1)" points="202.953,232,314.953,232,321.953,255.6094,336.953,255.6094,336.953,424,202.953,424,202.953,232" style="stroke: #000000; stroke-width: 2.0;"/>
        <line style="stroke: #000000; stroke-width: 2.0;" x1="202.953" x2="321.953" y1="255.6094" y2="255.6094"/>
        <text fill="#000000" font-family="sans-serif" font-size="14" font-weight="bold" lengthAdjust="spacingAndGlyphs" textLength="106" x="205.953" y="249.5332">Jepi.Fw.Router</text>
        <polygon fill="#FFFFFF" filter="url(#f1)" points="947.953,448,1066.953,448,1073.953,471.6094,1154.95,471.6094,1154.95,532,947.953,532,947.953,448" style="stroke: #000000; stroke-width: 2.0;"/>
        <line style="stroke: #000000; stroke-width: 2.0;" x1="947.953" x2="1073.953" y1="471.6094" y2="471.6094"/>
        <text fill="#000000" font-family="sans-serif" font-size="14" font-weight="bold" lengthAdjust="spacingAndGlyphs" textLength="113" x="950.953" y="465.5332">Jepi.Fw.Storage</text>
        <polygon fill="#FFFFFF" filter="url(#f1)" points="1504.95,232,1601.95,232,1608.95,255.6094,1626.95,255.6094,1626.95,424,1504.95,424,1504.95,232" style="stroke: #000000; stroke-width: 2.0;"/>
        <line style="stroke: #000000; stroke-width: 2.0;" x1="1504.95" x2="1608.95" y1="255.6094" y2="255.6094"/>
        <text fill="#000000" font-family="sans-serif" font-size="14" font-weight="bold" lengthAdjust="spacingAndGlyphs" textLength="91" x="1507.95" y="249.5332">Jepi.Fw.View</text>
        <polygon fill="#FFFFFF" filter="url(#f1)" points="549.953,16,722.953,16,729.953,39.6094,732.953,39.6094,732.953,208,549.953,208,549.953,16" style="stroke: #000000; stroke-width: 2.0;"/>
        <line style="stroke: #000000; stroke-width: 2.0;" x1="549.953" x2="729.953" y1="39.6094" y2="39.6094"/>
        <text fill="#000000" font-family="sans-serif" font-size="14" font-weight="bold" lengthAdjust="spacingAndGlyphs" textLength="167" x="552.953" y="33.5332">Jepi.Fw.FrontController</text>
        <polygon fill="#FFFFFF" filter="url(#f1)" points="426.953,232,505.953,232,512.953,255.6094,939.953,255.6094,939.953,532,426.953,532,426.953,232" style="stroke: #000000; stroke-width: 2.0;"/>
        <line style="stroke: #000000; stroke-width: 2.0;" x1="426.953" x2="512.953" y1="255.6094" y2="255.6094"/>
        <text fill="#000000" font-family="sans-serif" font-size="14" font-weight="bold" lengthAdjust="spacingAndGlyphs" textLength="73" x="429.953" y="249.5332">Jepi.Fw.IO</text>
        <polygon fill="#FFFFFF" filter="url(#f1)" points="34.9533,232,160.9533,232,167.9533,255.6094,170.953,255.6094,170.953,316,34.9533,316,34.9533,232" style="stroke: #000000; stroke-width: 2.0;"/>
        <line style="stroke: #000000; stroke-width: 2.0;" x1="34.9533" x2="167.9533" y1="255.6094" y2="255.6094"/>
        <text fill="#000000" font-family="sans-serif" font-size="14" font-weight="bold" lengthAdjust="spacingAndGlyphs" textLength="120" x="37.9533" y="249.5332">Jepi.Fw.Libraries</text>
        <polygon fill="#FFFFFF" filter="url(#f1)" points="953.953,340,1074.953,340,1081.953,363.6094,1084.95,363.6094,1084.95,424,953.953,424,953.953,340" style="stroke: #000000; stroke-width: 2.0;"/>
        <line style="stroke: #000000; stroke-width: 2.0;" x1="953.953" x2="1081.953" y1="363.6094" y2="363.6094"/>
        <text fill="#000000" font-family="sans-serif" font-size="14" font-weight="bold" lengthAdjust="spacingAndGlyphs" textLength="115" x="956.953" y="357.5332">Jepi.Fw.Security</text>
        <polygon fill="#FFFFFF" filter="url(#f1)" points="1245.95,340,1353.95,340,1360.95,363.6094,1496.95,363.6094,1496.95,532,1245.95,532,1245.95,340" style="stroke: #000000; stroke-width: 2.0;"/>
        <line style="stroke: #000000; stroke-width: 2.0;" x1="1245.95" x2="1360.95" y1="363.6094" y2="363.6094"/>
        <text fill="#000000" font-family="sans-serif" font-size="14" font-weight="bold" lengthAdjust="spacingAndGlyphs" textLength="102" x="1248.95" y="357.5332">Jepi.Fw.Model</text>
        <rect fill="#FEFECE" filter="url(#f1)" height="48" style="stroke: #A80036; stroke-width: 1.5;" width="86" x="1130.95" y="260"/>
        <ellipse cx="1145.95" cy="276" fill="#ADD1B2" rx="11" ry="11" style="stroke: #A80036; stroke-width: 1.0;"/>
        <path d="M1148.7156,271.875 Q1148.8719,271.6563 1149.0594,271.5469 Q1149.2469,271.4375 1149.4656,271.4375 Q1149.8406,271.4375 1150.075,271.6953 Q1150.3094,271.9531 1150.3094,272.5625 L1150.3094,274.0156 Q1150.3094,274.625 1150.075,274.8906 Q1149.8406,275.1563 1149.4656,275.1563 Q1149.1219,275.1563 1148.9188,274.9531 Q1148.7156,274.7656 1148.6063,274.25 Q1148.5594,273.8906 1148.3719,273.7031 Q1148.0438,273.3281 1147.4344,273.1094 Q1146.825,272.8906 1146.2,272.8906 Q1145.4344,272.8906 1144.8016,273.2188 Q1144.1688,273.5469 1143.6766,274.2969 Q1143.1844,275.0469 1143.1844,276.0781 L1143.1844,277.1719 Q1143.1844,278.4063 1144.075,279.2266 Q1144.9656,280.0469 1146.5594,280.0469 Q1147.4969,280.0469 1148.1531,279.7969 Q1148.5438,279.6406 1148.9656,279.2031 Q1149.2313,278.9375 1149.3797,278.8594 Q1149.5281,278.7813 1149.7313,278.7813 Q1150.0594,278.7813 1150.3172,279.0391 Q1150.575,279.2969 1150.575,279.6406 Q1150.575,279.9844 1150.2313,280.3906 Q1149.7313,280.9688 1148.9344,281.2969 Q1147.8563,281.75 1146.5594,281.75 Q1145.0438,281.75 1143.8406,281.125 Q1142.8563,280.625 1142.1688,279.5547 Q1141.4813,278.4844 1141.4813,277.2031 L1141.4813,276.0469 Q1141.4813,274.7188 1142.0984,273.5703 Q1142.7156,272.4219 1143.8094,271.8047 Q1144.9031,271.1875 1146.1375,271.1875 Q1146.8719,271.1875 1147.5203,271.3516 Q1148.1688,271.5156 1148.7156,271.875 Z "/>
        <text fill="#000000" font-family="sans-serif" font-size="12" lengthAdjust="spacingAndGlyphs" textLength="54" x="1159.95" y="280.9102">Container</text>
        <line style="stroke: #A80036; stroke-width: 1.5;" x1="1131.95" x2="1215.95" y1="292" y2="292"/>
        <line style="stroke: #A80036; stroke-width: 1.5;" x1="1131.95" x2="1215.95" y1="300" y2="300"/>
        <rect fill="#FEFECE" filter="url(#f1)" height="48" style="stroke: #A80036; stroke-width: 1.5;" width="139" x="956.453" y="260"/>
        <ellipse cx="971.453" cy="276" fill="#ADD1B2" rx="11" ry="11" style="stroke: #A80036; stroke-width: 1.0;"/>
        <path d="M974.2186,271.875 Q974.3749,271.6563 974.5624,271.5469 Q974.7499,271.4375 974.9686,271.4375 Q975.3436,271.4375 975.578,271.6953 Q975.8124,271.9531 975.8124,272.5625 L975.8124,274.0156 Q975.8124,274.625 975.578,274.8906 Q975.3436,275.1563 974.9686,275.1563 Q974.6249,275.1563 974.4218,274.9531 Q974.2186,274.7656 974.1093,274.25 Q974.0624,273.8906 973.8749,273.7031 Q973.5468,273.3281 972.9374,273.1094 Q972.328,272.8906 971.703,272.8906 Q970.9374,272.8906 970.3046,273.2188 Q969.6718,273.5469 969.1796,274.2969 Q968.6874,275.0469 968.6874,276.0781 L968.6874,277.1719 Q968.6874,278.4063 969.578,279.2266 Q970.4686,280.0469 972.0624,280.0469 Q972.9999,280.0469 973.6561,279.7969 Q974.0468,279.6406 974.4686,279.2031 Q974.7343,278.9375 974.8827,278.8594 Q975.0311,278.7813 975.2343,278.7813 Q975.5624,278.7813 975.8202,279.0391 Q976.078,279.2969 976.078,279.6406 Q976.078,279.9844 975.7343,280.3906 Q975.2343,280.9688 974.4374,281.2969 Q973.3593,281.75 972.0624,281.75 Q970.5468,281.75 969.3436,281.125 Q968.3593,280.625 967.6718,279.5547 Q966.9843,278.4844 966.9843,277.2031 L966.9843,276.0469 Q966.9843,274.7188 967.6014,273.5703 Q968.2186,272.4219 969.3124,271.8047 Q970.4061,271.1875 971.6405,271.1875 Q972.3749,271.1875 973.0233,271.3516 Q973.6718,271.5156 974.2186,271.875 Z "/>
        <text fill="#000000" font-family="sans-serif" font-size="12" lengthAdjust="spacingAndGlyphs" textLength="107" x="985.453" y="280.9102">NotFoundException</text>
        <line style="stroke: #A80036; stroke-width: 1.5;" x1="957.453" x2="1094.453" y1="292" y2="292"/>
        <line style="stroke: #A80036; stroke-width: 1.5;" x1="957.453" x2="1094.453" y1="300" y2="300"/>
        <rect fill="#FEFECE" filter="url(#f1)" height="48" style="stroke: #A80036; stroke-width: 1.5;" width="116" x="212.953" y="476"/>
        <ellipse cx="227.953" cy="492" fill="#B4A7E5" rx="11" ry="11" style="stroke: #A80036; stroke-width: 1.0;"/>
        <path d="M228.9061,488.6406 L228.9061,495.2969 L230.6249,495.2969 Q231.2343,495.2969 231.4999,495.5313 Q231.7655,495.7656 231.7655,496.1563 Q231.7655,496.5313 231.4999,496.7656 Q231.2343,497 230.6249,497 L225.4843,497 Q224.8749,497 224.6093,496.7656 Q224.3436,496.5313 224.3436,496.1406 Q224.3436,495.7656 224.6093,495.5313 Q224.8749,495.2969 225.4843,495.2969 L227.203,495.2969 L227.203,488.6406 L225.4843,488.6406 Q224.8749,488.6406 224.6093,488.4063 Q224.3436,488.1719 224.3436,487.7813 Q224.3436,487.4063 224.6093,487.1719 Q224.8749,486.9375 225.4843,486.9375 L230.6249,486.9375 Q231.2343,486.9375 231.4999,487.1719 Q231.7655,487.4063 231.7655,487.7813 Q231.7655,488.1719 231.4999,488.4063 Q231.2343,488.6406 230.6249,488.6406 L228.9061,488.6406 Z "/>
        <text fill="#000000" font-family="sans-serif" font-size="12" font-style="italic" lengthAdjust="spacingAndGlyphs" textLength="84" x="241.953" y="496.9102">ConfigInterface</text>
        <line style="stroke: #A80036; stroke-width: 1.5;" x1="213.953" x2="327.953" y1="508" y2="508"/>
        <line style="stroke: #A80036; stroke-width: 1.5;" x1="213.953" x2="327.953" y1="516" y2="516"/>
        <rect fill="#FEFECE" filter="url(#f1)" height="48" style="stroke: #A80036; stroke-width: 1.5;" width="113" x="214.453" y="584"/>
        <ellipse cx="229.453" cy="600" fill="#A9DCDF" rx="11" ry="11" style="stroke: #A80036; stroke-width: 1.0;"/>
        <path d="M231.6405,601.7656 L227.4999,601.7656 L227.078,602.7969 L227.4999,602.7969 Q228.1093,602.7969 228.3749,603.0313 Q228.6405,603.2656 228.6405,603.6563 Q228.6405,604.0313 228.3749,604.2656 Q228.1093,604.5 227.4999,604.5 L225.203,604.5 Q224.5936,604.5 224.3358,604.2656 Q224.078,604.0313 224.078,603.6406 Q224.078,603.2656 224.3514,603.0234 Q224.6249,602.7813 225.2499,602.7969 L227.9218,596.1406 L226.8124,596.1406 Q226.203,596.1406 225.9374,595.9063 Q225.6718,595.6719 225.6718,595.2813 Q225.6718,594.9063 225.9374,594.6719 Q226.203,594.4375 226.8124,594.4375 L230.4843,594.4375 L233.8749,602.7969 Q234.4686,602.7969 234.6561,602.9375 Q235.0468,603.2031 235.0468,603.6563 Q235.0468,604.0313 234.7889,604.2656 Q234.5311,604.5 233.9218,604.5 L231.6249,604.5 Q231.0155,604.5 230.7499,604.2656 Q230.4843,604.0313 230.4843,603.6406 Q230.4843,603.2656 230.7499,603.0313 Q231.0155,602.7969 231.6249,602.7969 L232.0468,602.7969 L231.6405,601.7656 Z M230.9218,600.0625 L229.5624,596.6875 L228.1874,600.0625 L230.9218,600.0625 Z "/>
        <text fill="#000000" font-family="sans-serif" font-size="12" font-style="italic" lengthAdjust="spacingAndGlyphs" textLength="81" x="243.453" y="604.9102">ConfigAbstract</text>
        <line style="stroke: #A80036; stroke-width: 1.5;" x1="215.453" x2="326.453" y1="616" y2="616"/>
        <line style="stroke: #A80036; stroke-width: 1.5;" x1="215.453" x2="326.453" y1="624" y2="624"/>
        <rect fill="#FEFECE" filter="url(#f1)" height="48" style="stroke: #A80036; stroke-width: 1.5;" width="68" x="236.953" y="692"/>
        <ellipse cx="251.953" cy="708" fill="#ADD1B2" rx="11" ry="11" style="stroke: #A80036; stroke-width: 1.0;"/>
        <path d="M254.7186,703.875 Q254.8749,703.6563 255.0624,703.5469 Q255.2499,703.4375 255.4686,703.4375 Q255.8436,703.4375 256.078,703.6953 Q256.3124,703.9531 256.3124,704.5625 L256.3124,706.0156 Q256.3124,706.625 256.078,706.8906 Q255.8436,707.1563 255.4686,707.1563 Q255.1249,707.1563 254.9218,706.9531 Q254.7186,706.7656 254.6093,706.25 Q254.5624,705.8906 254.3749,705.7031 Q254.0468,705.3281 253.4374,705.1094 Q252.828,704.8906 252.203,704.8906 Q251.4374,704.8906 250.8046,705.2188 Q250.1718,705.5469 249.6796,706.2969 Q249.1874,707.0469 249.1874,708.0781 L249.1874,709.1719 Q249.1874,710.4063 250.078,711.2266 Q250.9686,712.0469 252.5624,712.0469 Q253.4999,712.0469 254.1561,711.7969 Q254.5468,711.6406 254.9686,711.2031 Q255.2343,710.9375 255.3827,710.8594 Q255.5311,710.7813 255.7343,710.7813 Q256.0624,710.7813 256.3202,711.0391 Q256.578,711.2969 256.578,711.6406 Q256.578,711.9844 256.2343,712.3906 Q255.7343,712.9688 254.9374,713.2969 Q253.8593,713.75 252.5624,713.75 Q251.0468,713.75 249.8436,713.125 Q248.8593,712.625 248.1718,711.5547 Q247.4843,710.4844 247.4843,709.2031 L247.4843,708.0469 Q247.4843,706.7188 248.1014,705.5703 Q248.7186,704.4219 249.8124,703.8047 Q250.9061,703.1875 252.1405,703.1875 Q252.8749,703.1875 253.5233,703.3516 Q254.1718,703.5156 254.7186,703.875 Z "/>
        <text fill="#000000" font-family="sans-serif" font-size="12" lengthAdjust="spacingAndGlyphs" textLength="36" x="265.953" y="712.9102">Config</text>
        <line style="stroke: #A80036; stroke-width: 1.5;" x1="237.953" x2="303.953" y1="724" y2="724"/>
        <line style="stroke: #A80036; stroke-width: 1.5;" x1="237.953" x2="303.953" y1="732" y2="732"/>
        <rect fill="#FEFECE" filter="url(#f1)" height="48" style="stroke: #A80036; stroke-width: 1.5;" width="121" x="587.453" y="584"/>
        <ellipse cx="602.453" cy="600" fill="#ADD1B2" rx="11" ry="11" style="stroke: #A80036; stroke-width: 1.0;"/>
        <path d="M605.2186,595.875 Q605.3749,595.6563 605.5624,595.5469 Q605.7499,595.4375 605.9686,595.4375 Q606.3436,595.4375 606.578,595.6953 Q606.8124,595.9531 606.8124,596.5625 L606.8124,598.0156 Q606.8124,598.625 606.578,598.8906 Q606.3436,599.1563 605.9686,599.1563 Q605.6249,599.1563 605.4218,598.9531 Q605.2186,598.7656 605.1093,598.25 Q605.0624,597.8906 604.8749,597.7031 Q604.5468,597.3281 603.9374,597.1094 Q603.328,596.8906 602.703,596.8906 Q601.9374,596.8906 601.3046,597.2188 Q600.6718,597.5469 600.1796,598.2969 Q599.6874,599.0469 599.6874,600.0781 L599.6874,601.1719 Q599.6874,602.4063 600.578,603.2266 Q601.4686,604.0469 603.0624,604.0469 Q603.9999,604.0469 604.6561,603.7969 Q605.0468,603.6406 605.4686,603.2031 Q605.7343,602.9375 605.8827,602.8594 Q606.0311,602.7813 606.2343,602.7813 Q606.5624,602.7813 606.8202,603.0391 Q607.078,603.2969 607.078,603.6406 Q607.078,603.9844 606.7343,604.3906 Q606.2343,604.9688 605.4374,605.2969 Q604.3593,605.75 603.0624,605.75 Q601.5468,605.75 600.3436,605.125 Q599.3593,604.625 598.6718,603.5547 Q597.9843,602.4844 597.9843,601.2031 L597.9843,600.0469 Q597.9843,598.7188 598.6014,597.5703 Q599.2186,596.4219 600.3124,595.8047 Q601.4061,595.1875 602.6405,595.1875 Q603.3749,595.1875 604.0233,595.3516 Q604.6718,595.5156 605.2186,595.875 Z "/>
        <text fill="#000000" font-family="sans-serif" font-size="12" lengthAdjust="spacingAndGlyphs" textLength="89" x="616.453" y="604.9102">ConfigException</text>
        <line style="stroke: #A80036; stroke-width: 1.5;" x1="588.453" x2="707.453" y1="616" y2="616"/>
        <line style="stroke: #A80036; stroke-width: 1.5;" x1="588.453" x2="707.453" y1="624" y2="624"/>
        <rect fill="#FEFECE" filter="url(#f1)" height="48" style="stroke: #A80036; stroke-width: 1.5;" width="97" x="901.453" y="584"/>
        <ellipse cx="916.453" cy="600" fill="#ADD1B2" rx="11" ry="11" style="stroke: #A80036; stroke-width: 1.0;"/>
        <path d="M919.2186,595.875 Q919.3749,595.6563 919.5624,595.5469 Q919.7499,595.4375 919.9686,595.4375 Q920.3436,595.4375 920.578,595.6953 Q920.8124,595.9531 920.8124,596.5625 L920.8124,598.0156 Q920.8124,598.625 920.578,598.8906 Q920.3436,599.1563 919.9686,599.1563 Q919.6249,599.1563 919.4218,598.9531 Q919.2186,598.7656 919.1093,598.25 Q919.0624,597.8906 918.8749,597.7031 Q918.5468,597.3281 917.9374,597.1094 Q917.328,596.8906 916.703,596.8906 Q915.9374,596.8906 915.3046,597.2188 Q914.6718,597.5469 914.1796,598.2969 Q913.6874,599.0469 913.6874,600.0781 L913.6874,601.1719 Q913.6874,602.4063 914.578,603.2266 Q915.4686,604.0469 917.0624,604.0469 Q917.9999,604.0469 918.6561,603.7969 Q919.0468,603.6406 919.4686,603.2031 Q919.7343,602.9375 919.8827,602.8594 Q920.0311,602.7813 920.2343,602.7813 Q920.5624,602.7813 920.8202,603.0391 Q921.078,603.2969 921.078,603.6406 Q921.078,603.9844 920.7343,604.3906 Q920.2343,604.9688 919.4374,605.2969 Q918.3593,605.75 917.0624,605.75 Q915.5468,605.75 914.3436,605.125 Q913.3593,604.625 912.6718,603.5547 Q911.9843,602.4844 911.9843,601.2031 L911.9843,600.0469 Q911.9843,598.7188 912.6014,597.5703 Q913.2186,596.4219 914.3124,595.8047 Q915.4061,595.1875 916.6405,595.1875 Q917.3749,595.1875 918.0233,595.3516 Q918.6718,595.5156 919.2186,595.875 Z "/>
        <text fill="#000000" font-family="sans-serif" font-size="12" lengthAdjust="spacingAndGlyphs" textLength="65" x="930.453" y="604.9102">IOException</text>
        <line style="stroke: #A80036; stroke-width: 1.5;" x1="902.453" x2="997.453" y1="616" y2="616"/>
        <line style="stroke: #A80036; stroke-width: 1.5;" x1="902.453" x2="997.453" y1="624" y2="624"/>
        <rect fill="#FEFECE" filter="url(#f1)" height="48" style="stroke: #A80036; stroke-width: 1.5;" width="118" x="1196.95" y="584"/>
        <ellipse cx="1211.95" cy="600" fill="#ADD1B2" rx="11" ry="11" style="stroke: #A80036; stroke-width: 1.0;"/>
        <path d="M1214.7156,595.875 Q1214.8719,595.6563 1215.0594,595.5469 Q1215.2469,595.4375 1215.4656,595.4375 Q1215.8406,595.4375 1216.075,595.6953 Q1216.3094,595.9531 1216.3094,596.5625 L1216.3094,598.0156 Q1216.3094,598.625 1216.075,598.8906 Q1215.8406,599.1563 1215.4656,599.1563 Q1215.1219,599.1563 1214.9188,598.9531 Q1214.7156,598.7656 1214.6063,598.25 Q1214.5594,597.8906 1214.3719,597.7031 Q1214.0438,597.3281 1213.4344,597.1094 Q1212.825,596.8906 1212.2,596.8906 Q1211.4344,596.8906 1210.8016,597.2188 Q1210.1688,597.5469 1209.6766,598.2969 Q1209.1844,599.0469 1209.1844,600.0781 L1209.1844,601.1719 Q1209.1844,602.4063 1210.075,603.2266 Q1210.9656,604.0469 1212.5594,604.0469 Q1213.4969,604.0469 1214.1531,603.7969 Q1214.5438,603.6406 1214.9656,603.2031 Q1215.2313,602.9375 1215.3797,602.8594 Q1215.5281,602.7813 1215.7313,602.7813 Q1216.0594,602.7813 1216.3172,603.0391 Q1216.575,603.2969 1216.575,603.6406 Q1216.575,603.9844 1216.2313,604.3906 Q1215.7313,604.9688 1214.9344,605.2969 Q1213.8563,605.75 1212.5594,605.75 Q1211.0438,605.75 1209.8406,605.125 Q1208.8563,604.625 1208.1688,603.5547 Q1207.4813,602.4844 1207.4813,601.2031 L1207.4813,600.0469 Q1207.4813,598.7188 1208.0984,597.5703 Q1208.7156,596.4219 1209.8094,595.8047 Q1210.9031,595.1875 1212.1375,595.1875 Q1212.8719,595.1875 1213.5203,595.3516 Q1214.1688,595.5156 1214.7156,595.875 Z "/>
        <text fill="#000000" font-family="sans-serif" font-size="12" lengthAdjust="spacingAndGlyphs" textLength="86" x="1225.95" y="604.9102">ModelException</text>
        <line style="stroke: #A80036; stroke-width: 1.5;" x1="1197.95" x2="1313.95" y1="616" y2="616"/>
        <line style="stroke: #A80036; stroke-width: 1.5;" x1="1197.95" x2="1313.95" y1="624" y2="624"/>
        <rect fill="#FEFECE" filter="url(#f1)" height="48" style="stroke: #A80036; stroke-width: 1.5;" width="122" x="743.953" y="584"/>
        <ellipse cx="758.953" cy="600" fill="#ADD1B2" rx="11" ry="11" style="stroke: #A80036; stroke-width: 1.0;"/>
        <path d="M761.7186,595.875 Q761.8749,595.6563 762.0624,595.5469 Q762.2499,595.4375 762.4686,595.4375 Q762.8436,595.4375 763.078,595.6953 Q763.3124,595.9531 763.3124,596.5625 L763.3124,598.0156 Q763.3124,598.625 763.078,598.8906 Q762.8436,599.1563 762.4686,599.1563 Q762.1249,599.1563 761.9218,598.9531 Q761.7186,598.7656 761.6093,598.25 Q761.5624,597.8906 761.3749,597.7031 Q761.0468,597.3281 760.4374,597.1094 Q759.828,596.8906 759.203,596.8906 Q758.4374,596.8906 757.8046,597.2188 Q757.1718,597.5469 756.6796,598.2969 Q756.1874,599.0469 756.1874,600.0781 L756.1874,601.1719 Q756.1874,602.4063 757.078,603.2266 Q757.9686,604.0469 759.5624,604.0469 Q760.4999,604.0469 761.1561,603.7969 Q761.5468,603.6406 761.9686,603.2031 Q762.2343,602.9375 762.3827,602.8594 Q762.5311,602.7813 762.7343,602.7813 Q763.0624,602.7813 763.3202,603.0391 Q763.578,603.2969 763.578,603.6406 Q763.578,603.9844 763.2343,604.3906 Q762.7343,604.9688 761.9374,605.2969 Q760.8593,605.75 759.5624,605.75 Q758.0468,605.75 756.8436,605.125 Q755.8593,604.625 755.1718,603.5547 Q754.4843,602.4844 754.4843,601.2031 L754.4843,600.0469 Q754.4843,598.7188 755.1014,597.5703 Q755.7186,596.4219 756.8124,595.8047 Q757.9061,595.1875 759.1405,595.1875 Q759.8749,595.1875 760.5233,595.3516 Q761.1718,595.5156 761.7186,595.875 Z "/>
        <text fill="#000000" font-family="sans-serif" font-size="12" lengthAdjust="spacingAndGlyphs" textLength="90" x="772.953" y="604.9102">RouterException</text>
        <line style="stroke: #A80036; stroke-width: 1.5;" x1="744.953" x2="864.953" y1="616" y2="616"/>
        <line style="stroke: #A80036; stroke-width: 1.5;" x1="744.953" x2="864.953" y1="624" y2="624"/>
        <rect fill="#FEFECE" filter="url(#f1)" height="48" style="stroke: #A80036; stroke-width: 1.5;" width="128" x="1033.95" y="584"/>
        <ellipse cx="1048.95" cy="600" fill="#ADD1B2" rx="11" ry="11" style="stroke: #A80036; stroke-width: 1.0;"/>
        <path d="M1051.7156,595.875 Q1051.8719,595.6563 1052.0594,595.5469 Q1052.2469,595.4375 1052.4656,595.4375 Q1052.8406,595.4375 1053.075,595.6953 Q1053.3094,595.9531 1053.3094,596.5625 L1053.3094,598.0156 Q1053.3094,598.625 1053.075,598.8906 Q1052.8406,599.1563 1052.4656,599.1563 Q1052.1219,599.1563 1051.9188,598.9531 Q1051.7156,598.7656 1051.6063,598.25 Q1051.5594,597.8906 1051.3719,597.7031 Q1051.0438,597.3281 1050.4344,597.1094 Q1049.825,596.8906 1049.2,596.8906 Q1048.4344,596.8906 1047.8016,597.2188 Q1047.1688,597.5469 1046.6766,598.2969 Q1046.1844,599.0469 1046.1844,600.0781 L1046.1844,601.1719 Q1046.1844,602.4063 1047.075,603.2266 Q1047.9656,604.0469 1049.5594,604.0469 Q1050.4969,604.0469 1051.1531,603.7969 Q1051.5438,603.6406 1051.9656,603.2031 Q1052.2313,602.9375 1052.3797,602.8594 Q1052.5281,602.7813 1052.7313,602.7813 Q1053.0594,602.7813 1053.3172,603.0391 Q1053.575,603.2969 1053.575,603.6406 Q1053.575,603.9844 1053.2313,604.3906 Q1052.7313,604.9688 1051.9344,605.2969 Q1050.8563,605.75 1049.5594,605.75 Q1048.0438,605.75 1046.8406,605.125 Q1045.8563,604.625 1045.1688,603.5547 Q1044.4813,602.4844 1044.4813,601.2031 L1044.4813,600.0469 Q1044.4813,598.7188 1045.0984,597.5703 Q1045.7156,596.4219 1046.8094,595.8047 Q1047.9031,595.1875 1049.1375,595.1875 Q1049.8719,595.1875 1050.5203,595.3516 Q1051.1688,595.5156 1051.7156,595.875 Z "/>
        <text fill="#000000" font-family="sans-serif" font-size="12" lengthAdjust="spacingAndGlyphs" textLength="96" x="1062.95" y="604.9102">StorageException</text>
        <line style="stroke: #A80036; stroke-width: 1.5;" x1="1034.95" x2="1160.95" y1="616" y2="616"/>
        <line style="stroke: #A80036; stroke-width: 1.5;" x1="1034.95" x2="1160.95" y1="624" y2="624"/>
        <rect fill="#FEFECE" filter="url(#f1)" height="48" style="stroke: #A80036; stroke-width: 1.5;" width="108" x="822.953" y="692"/>
        <ellipse cx="837.953" cy="708" fill="#ADD1B2" rx="11" ry="11" style="stroke: #A80036; stroke-width: 1.0;"/>
        <path d="M840.7186,703.875 Q840.8749,703.6563 841.0624,703.5469 Q841.2499,703.4375 841.4686,703.4375 Q841.8436,703.4375 842.078,703.6953 Q842.3124,703.9531 842.3124,704.5625 L842.3124,706.0156 Q842.3124,706.625 842.078,706.8906 Q841.8436,707.1563 841.4686,707.1563 Q841.1249,707.1563 840.9218,706.9531 Q840.7186,706.7656 840.6093,706.25 Q840.5624,705.8906 840.3749,705.7031 Q840.0468,705.3281 839.4374,705.1094 Q838.828,704.8906 838.203,704.8906 Q837.4374,704.8906 836.8046,705.2188 Q836.1718,705.5469 835.6796,706.2969 Q835.1874,707.0469 835.1874,708.0781 L835.1874,709.1719 Q835.1874,710.4063 836.078,711.2266 Q836.9686,712.0469 838.5624,712.0469 Q839.4999,712.0469 840.1561,711.7969 Q840.5468,711.6406 840.9686,711.2031 Q841.2343,710.9375 841.3827,710.8594 Q841.5311,710.7813 841.7343,710.7813 Q842.0624,710.7813 842.3202,711.0391 Q842.578,711.2969 842.578,711.6406 Q842.578,711.9844 842.2343,712.3906 Q841.7343,712.9688 840.9374,713.2969 Q839.8593,713.75 838.5624,713.75 Q837.0468,713.75 835.8436,713.125 Q834.8593,712.625 834.1718,711.5547 Q833.4843,710.4844 833.4843,709.2031 L833.4843,708.0469 Q833.4843,706.7188 834.1014,705.5703 Q834.7186,704.4219 835.8124,703.8047 Q836.9061,703.1875 838.1405,703.1875 Q838.8749,703.1875 839.5233,703.3516 Q840.1718,703.5156 840.7186,703.875 Z "/>
        <text fill="#000000" font-family="sans-serif" font-size="12" lengthAdjust="spacingAndGlyphs" textLength="76" x="851.953" y="712.9102">JepiException</text>
        <line style="stroke: #A80036; stroke-width: 1.5;" x1="823.953" x2="929.953" y1="724" y2="724"/>
        <line style="stroke: #A80036; stroke-width: 1.5;" x1="823.953" x2="929.953" y1="732" y2="732"/>
        <rect fill="#FEFECE" filter="url(#f1)" height="48" style="stroke: #A80036; stroke-width: 1.5;" width="134" x="1154.95" y="44"/>
        <ellipse cx="1169.95" cy="60" fill="#B4A7E5" rx="11" ry="11" style="stroke: #A80036; stroke-width: 1.0;"/>
        <path d="M1170.9031,56.6406 L1170.9031,63.2969 L1172.6219,63.2969 Q1173.2313,63.2969 1173.4969,63.5313 Q1173.7625,63.7656 1173.7625,64.1563 Q1173.7625,64.5313 1173.4969,64.7656 Q1173.2313,65 1172.6219,65 L1167.4813,65 Q1166.8719,65 1166.6063,64.7656 Q1166.3406,64.5313 1166.3406,64.1406 Q1166.3406,63.7656 1166.6063,63.5313 Q1166.8719,63.2969 1167.4813,63.2969 L1169.2,63.2969 L1169.2,56.6406 L1167.4813,56.6406 Q1166.8719,56.6406 1166.6063,56.4063 Q1166.3406,56.1719 1166.3406,55.7813 Q1166.3406,55.4063 1166.6063,55.1719 Q1166.8719,54.9375 1167.4813,54.9375 L1172.6219,54.9375 Q1173.2313,54.9375 1173.4969,55.1719 Q1173.7625,55.4063 1173.7625,55.7813 Q1173.7625,56.1719 1173.4969,56.4063 Q1173.2313,56.6406 1172.6219,56.6406 L1170.9031,56.6406 Z "/>
        <text fill="#000000" font-family="sans-serif" font-size="12" font-style="italic" lengthAdjust="spacingAndGlyphs" textLength="102" x="1183.95" y="64.9102">ControllerInterface</text>
        <line style="stroke: #A80036; stroke-width: 1.5;" x1="1155.95" x2="1287.95" y1="76" y2="76"/>
        <line style="stroke: #A80036; stroke-width: 1.5;" x1="1155.95" x2="1287.95" y1="84" y2="84"/>
        <rect fill="#FEFECE" filter="url(#f1)" height="48" style="stroke: #A80036; stroke-width: 1.5;" width="86" x="1178.95" y="152"/>
        <ellipse cx="1193.95" cy="168" fill="#ADD1B2" rx="11" ry="11" style="stroke: #A80036; stroke-width: 1.0;"/>
        <path d="M1196.7156,163.875 Q1196.8719,163.6563 1197.0594,163.5469 Q1197.2469,163.4375 1197.4656,163.4375 Q1197.8406,163.4375 1198.075,163.6953 Q1198.3094,163.9531 1198.3094,164.5625 L1198.3094,166.0156 Q1198.3094,166.625 1198.075,166.8906 Q1197.8406,167.1563 1197.4656,167.1563 Q1197.1219,167.1563 1196.9188,166.9531 Q1196.7156,166.7656 1196.6063,166.25 Q1196.5594,165.8906 1196.3719,165.7031 Q1196.0438,165.3281 1195.4344,165.1094 Q1194.825,164.8906 1194.2,164.8906 Q1193.4344,164.8906 1192.8016,165.2188 Q1192.1688,165.5469 1191.6766,166.2969 Q1191.1844,167.0469 1191.1844,168.0781 L1191.1844,169.1719 Q1191.1844,170.4063 1192.075,171.2266 Q1192.9656,172.0469 1194.5594,172.0469 Q1195.4969,172.0469 1196.1531,171.7969 Q1196.5438,171.6406 1196.9656,171.2031 Q1197.2313,170.9375 1197.3797,170.8594 Q1197.5281,170.7813 1197.7313,170.7813 Q1198.0594,170.7813 1198.3172,171.0391 Q1198.575,171.2969 1198.575,171.6406 Q1198.575,171.9844 1198.2313,172.3906 Q1197.7313,172.9688 1196.9344,173.2969 Q1195.8563,173.75 1194.5594,173.75 Q1193.0438,173.75 1191.8406,173.125 Q1190.8563,172.625 1190.1688,171.5547 Q1189.4813,170.4844 1189.4813,169.2031 L1189.4813,168.0469 Q1189.4813,166.7188 1190.0984,165.5703 Q1190.7156,164.4219 1191.8094,163.8047 Q1192.9031,163.1875 1194.1375,163.1875 Q1194.8719,163.1875 1195.5203,163.3516 Q1196.1688,163.5156 1196.7156,163.875 Z "/>
        <text fill="#000000" font-family="sans-serif" font-size="12" lengthAdjust="spacingAndGlyphs" textLength="54" x="1207.95" y="172.9102">Controller</text>
        <line style="stroke: #A80036; stroke-width: 1.5;" x1="1179.95" x2="1263.95" y1="184" y2="184"/>
        <line style="stroke: #A80036; stroke-width: 1.5;" x1="1179.95" x2="1263.95" y1="192" y2="192"/>
        <rect fill="#FEFECE" filter="url(#f1)" height="48" style="stroke: #A80036; stroke-width: 1.5;" width="117" x="211.453" y="368"/>
        <ellipse cx="226.453" cy="384" fill="#B4A7E5" rx="11" ry="11" style="stroke: #A80036; stroke-width: 1.0;"/>
        <path d="M227.4061,380.6406 L227.4061,387.2969 L229.1249,387.2969 Q229.7343,387.2969 229.9999,387.5313 Q230.2655,387.7656 230.2655,388.1563 Q230.2655,388.5313 229.9999,388.7656 Q229.7343,389 229.1249,389 L223.9843,389 Q223.3749,389 223.1093,388.7656 Q222.8436,388.5313 222.8436,388.1406 Q222.8436,387.7656 223.1093,387.5313 Q223.3749,387.2969 223.9843,387.2969 L225.703,387.2969 L225.703,380.6406 L223.9843,380.6406 Q223.3749,380.6406 223.1093,380.4063 Q222.8436,380.1719 222.8436,379.7813 Q222.8436,379.4063 223.1093,379.1719 Q223.3749,378.9375 223.9843,378.9375 L229.1249,378.9375 Q229.7343,378.9375 229.9999,379.1719 Q230.2655,379.4063 230.2655,379.7813 Q230.2655,380.1719 229.9999,380.4063 Q229.7343,380.6406 229.1249,380.6406 L227.4061,380.6406 Z "/>
        <text fill="#000000" font-family="sans-serif" font-size="12" font-style="italic" lengthAdjust="spacingAndGlyphs" textLength="85" x="240.453" y="388.9102">RouterInterface</text>
        <line style="stroke: #A80036; stroke-width: 1.5;" x1="212.453" x2="327.453" y1="400" y2="400"/>
        <line style="stroke: #A80036; stroke-width: 1.5;" x1="212.453" x2="327.453" y1="408" y2="408"/>
        <rect fill="#FEFECE" filter="url(#f1)" height="48" style="stroke: #A80036; stroke-width: 1.5;" width="69" x="259.453" y="260"/>
        <ellipse cx="274.453" cy="276" fill="#ADD1B2" rx="11" ry="11" style="stroke: #A80036; stroke-width: 1.0;"/>
        <path d="M277.2186,271.875 Q277.3749,271.6563 277.5624,271.5469 Q277.7499,271.4375 277.9686,271.4375 Q278.3436,271.4375 278.578,271.6953 Q278.8124,271.9531 278.8124,272.5625 L278.8124,274.0156 Q278.8124,274.625 278.578,274.8906 Q278.3436,275.1563 277.9686,275.1563 Q277.6249,275.1563 277.4218,274.9531 Q277.2186,274.7656 277.1093,274.25 Q277.0624,273.8906 276.8749,273.7031 Q276.5468,273.3281 275.9374,273.1094 Q275.328,272.8906 274.703,272.8906 Q273.9374,272.8906 273.3046,273.2188 Q272.6718,273.5469 272.1796,274.2969 Q271.6874,275.0469 271.6874,276.0781 L271.6874,277.1719 Q271.6874,278.4063 272.578,279.2266 Q273.4686,280.0469 275.0624,280.0469 Q275.9999,280.0469 276.6561,279.7969 Q277.0468,279.6406 277.4686,279.2031 Q277.7343,278.9375 277.8827,278.8594 Q278.0311,278.7813 278.2343,278.7813 Q278.5624,278.7813 278.8202,279.0391 Q279.078,279.2969 279.078,279.6406 Q279.078,279.9844 278.7343,280.3906 Q278.2343,280.9688 277.4374,281.2969 Q276.3593,281.75 275.0624,281.75 Q273.5468,281.75 272.3436,281.125 Q271.3593,280.625 270.6718,279.5547 Q269.9843,278.4844 269.9843,277.2031 L269.9843,276.0469 Q269.9843,274.7188 270.6014,273.5703 Q271.2186,272.4219 272.3124,271.8047 Q273.4061,271.1875 274.6405,271.1875 Q275.3749,271.1875 276.0233,271.3516 Q276.6718,271.5156 277.2186,271.875 Z "/>
        <text fill="#000000" font-family="sans-serif" font-size="12" lengthAdjust="spacingAndGlyphs" textLength="37" x="288.453" y="280.9102">Router</text>
        <line style="stroke: #A80036; stroke-width: 1.5;" x1="260.453" x2="327.453" y1="292" y2="292"/>
        <line style="stroke: #A80036; stroke-width: 1.5;" x1="260.453" x2="327.453" y1="300" y2="300"/>
        <rect fill="#FEFECE" filter="url(#f1)" height="48" style="stroke: #A80036; stroke-width: 1.5;" width="78" x="1068.95" y="476"/>
        <ellipse cx="1083.95" cy="492" fill="#ADD1B2" rx="11" ry="11" style="stroke: #A80036; stroke-width: 1.0;"/>
        <path d="M1086.7156,487.875 Q1086.8719,487.6563 1087.0594,487.5469 Q1087.2469,487.4375 1087.4656,487.4375 Q1087.8406,487.4375 1088.075,487.6953 Q1088.3094,487.9531 1088.3094,488.5625 L1088.3094,490.0156 Q1088.3094,490.625 1088.075,490.8906 Q1087.8406,491.1563 1087.4656,491.1563 Q1087.1219,491.1563 1086.9188,490.9531 Q1086.7156,490.7656 1086.6063,490.25 Q1086.5594,489.8906 1086.3719,489.7031 Q1086.0438,489.3281 1085.4344,489.1094 Q1084.825,488.8906 1084.2,488.8906 Q1083.4344,488.8906 1082.8016,489.2188 Q1082.1688,489.5469 1081.6766,490.2969 Q1081.1844,491.0469 1081.1844,492.0781 L1081.1844,493.1719 Q1081.1844,494.4063 1082.075,495.2266 Q1082.9656,496.0469 1084.5594,496.0469 Q1085.4969,496.0469 1086.1531,495.7969 Q1086.5438,495.6406 1086.9656,495.2031 Q1087.2313,494.9375 1087.3797,494.8594 Q1087.5281,494.7813 1087.7313,494.7813 Q1088.0594,494.7813 1088.3172,495.0391 Q1088.575,495.2969 1088.575,495.6406 Q1088.575,495.9844 1088.2313,496.3906 Q1087.7313,496.9688 1086.9344,497.2969 Q1085.8563,497.75 1084.5594,497.75 Q1083.0438,497.75 1081.8406,497.125 Q1080.8563,496.625 1080.1688,495.5547 Q1079.4813,494.4844 1079.4813,493.2031 L1079.4813,492.0469 Q1079.4813,490.7188 1080.0984,489.5703 Q1080.7156,488.4219 1081.8094,487.8047 Q1082.9031,487.1875 1084.1375,487.1875 Q1084.8719,487.1875 1085.5203,487.3516 Q1086.1688,487.5156 1086.7156,487.875 Z "/>
        <text fill="#000000" font-family="sans-serif" font-size="12" lengthAdjust="spacingAndGlyphs" textLength="46" x="1097.95" y="496.9102">Session</text>
        <line style="stroke: #A80036; stroke-width: 1.5;" x1="1069.95" x2="1145.95" y1="508" y2="508"/>
        <line style="stroke: #A80036; stroke-width: 1.5;" x1="1069.95" x2="1145.95" y1="516" y2="516"/>
        <rect fill="#FEFECE" filter="url(#f1)" height="48" style="stroke: #A80036; stroke-width: 1.5;" width="78" x="955.953" y="476"/>
        <ellipse cx="970.953" cy="492" fill="#ADD1B2" rx="11" ry="11" style="stroke: #A80036; stroke-width: 1.0;"/>
        <path d="M973.7186,487.875 Q973.8749,487.6563 974.0624,487.5469 Q974.2499,487.4375 974.4686,487.4375 Q974.8436,487.4375 975.078,487.6953 Q975.3124,487.9531 975.3124,488.5625 L975.3124,490.0156 Q975.3124,490.625 975.078,490.8906 Q974.8436,491.1563 974.4686,491.1563 Q974.1249,491.1563 973.9218,490.9531 Q973.7186,490.7656 973.6093,490.25 Q973.5624,489.8906 973.3749,489.7031 Q973.0468,489.3281 972.4374,489.1094 Q971.828,488.8906 971.203,488.8906 Q970.4374,488.8906 969.8046,489.2188 Q969.1718,489.5469 968.6796,490.2969 Q968.1874,491.0469 968.1874,492.0781 L968.1874,493.1719 Q968.1874,494.4063 969.078,495.2266 Q969.9686,496.0469 971.5624,496.0469 Q972.4999,496.0469 973.1561,495.7969 Q973.5468,495.6406 973.9686,495.2031 Q974.2343,494.9375 974.3827,494.8594 Q974.5311,494.7813 974.7343,494.7813 Q975.0624,494.7813 975.3202,495.0391 Q975.578,495.2969 975.578,495.6406 Q975.578,495.9844 975.2343,496.3906 Q974.7343,496.9688 973.9374,497.2969 Q972.8593,497.75 971.5624,497.75 Q970.0468,497.75 968.8436,497.125 Q967.8593,496.625 967.1718,495.5547 Q966.4843,494.4844 966.4843,493.2031 L966.4843,492.0469 Q966.4843,490.7188 967.1014,489.5703 Q967.7186,488.4219 968.8124,487.8047 Q969.9061,487.1875 971.1405,487.1875 Q971.8749,487.1875 972.5233,487.3516 Q973.1718,487.5156 973.7186,487.875 Z "/>
        <text fill="#000000" font-family="sans-serif" font-size="12" lengthAdjust="spacingAndGlyphs" textLength="46" x="984.953" y="496.9102">Cookies</text>
        <line style="stroke: #A80036; stroke-width: 1.5;" x1="956.953" x2="1032.953" y1="508" y2="508"/>
        <line style="stroke: #A80036; stroke-width: 1.5;" x1="956.953" x2="1032.953" y1="516" y2="516"/>
        <rect fill="#FEFECE" filter="url(#f1)" height="48" style="stroke: #A80036; stroke-width: 1.5;" width="106" x="1512.95" y="260"/>
        <ellipse cx="1527.95" cy="276" fill="#B4A7E5" rx="11" ry="11" style="stroke: #A80036; stroke-width: 1.0;"/>
        <path d="M1528.9031,272.6406 L1528.9031,279.2969 L1530.6219,279.2969 Q1531.2313,279.2969 1531.4969,279.5313 Q1531.7625,279.7656 1531.7625,280.1563 Q1531.7625,280.5313 1531.4969,280.7656 Q1531.2313,281 1530.6219,281 L1525.4813,281 Q1524.8719,281 1524.6063,280.7656 Q1524.3406,280.5313 1524.3406,280.1406 Q1524.3406,279.7656 1524.6063,279.5313 Q1524.8719,279.2969 1525.4813,279.2969 L1527.2,279.2969 L1527.2,272.6406 L1525.4813,272.6406 Q1524.8719,272.6406 1524.6063,272.4063 Q1524.3406,272.1719 1524.3406,271.7813 Q1524.3406,271.4063 1524.6063,271.1719 Q1524.8719,270.9375 1525.4813,270.9375 L1530.6219,270.9375 Q1531.2313,270.9375 1531.4969,271.1719 Q1531.7625,271.4063 1531.7625,271.7813 Q1531.7625,272.1719 1531.4969,272.4063 Q1531.2313,272.6406 1530.6219,272.6406 L1528.9031,272.6406 Z "/>
        <text fill="#000000" font-family="sans-serif" font-size="12" font-style="italic" lengthAdjust="spacingAndGlyphs" textLength="74" x="1541.95" y="280.9102">ViewInterface</text>
        <line style="stroke: #A80036; stroke-width: 1.5;" x1="1513.95" x2="1617.95" y1="292" y2="292"/>
        <line style="stroke: #A80036; stroke-width: 1.5;" x1="1513.95" x2="1617.95" y1="300" y2="300"/>
        <rect fill="#FEFECE" filter="url(#f1)" height="48" style="stroke: #A80036; stroke-width: 1.5;" width="58" x="1536.95" y="368"/>
        <ellipse cx="1551.95" cy="384" fill="#ADD1B2" rx="11" ry="11" style="stroke: #A80036; stroke-width: 1.0;"/>
        <path d="M1554.7156,379.875 Q1554.8719,379.6563 1555.0594,379.5469 Q1555.2469,379.4375 1555.4656,379.4375 Q1555.8406,379.4375 1556.075,379.6953 Q1556.3094,379.9531 1556.3094,380.5625 L1556.3094,382.0156 Q1556.3094,382.625 1556.075,382.8906 Q1555.8406,383.1563 1555.4656,383.1563 Q1555.1219,383.1563 1554.9188,382.9531 Q1554.7156,382.7656 1554.6063,382.25 Q1554.5594,381.8906 1554.3719,381.7031 Q1554.0438,381.3281 1553.4344,381.1094 Q1552.825,380.8906 1552.2,380.8906 Q1551.4344,380.8906 1550.8016,381.2188 Q1550.1688,381.5469 1549.6766,382.2969 Q1549.1844,383.0469 1549.1844,384.0781 L1549.1844,385.1719 Q1549.1844,386.4063 1550.075,387.2266 Q1550.9656,388.0469 1552.5594,388.0469 Q1553.4969,388.0469 1554.1531,387.7969 Q1554.5438,387.6406 1554.9656,387.2031 Q1555.2313,386.9375 1555.3797,386.8594 Q1555.5281,386.7813 1555.7313,386.7813 Q1556.0594,386.7813 1556.3172,387.0391 Q1556.575,387.2969 1556.575,387.6406 Q1556.575,387.9844 1556.2313,388.3906 Q1555.7313,388.9688 1554.9344,389.2969 Q1553.8563,389.75 1552.5594,389.75 Q1551.0438,389.75 1549.8406,389.125 Q1548.8563,388.625 1548.1688,387.5547 Q1547.4813,386.4844 1547.4813,385.2031 L1547.4813,384.0469 Q1547.4813,382.7188 1548.0984,381.5703 Q1548.7156,380.4219 1549.8094,379.8047 Q1550.9031,379.1875 1552.1375,379.1875 Q1552.8719,379.1875 1553.5203,379.3516 Q1554.1688,379.5156 1554.7156,379.875 Z "/>
        <text fill="#000000" font-family="sans-serif" font-size="12" lengthAdjust="spacingAndGlyphs" textLength="26" x="1565.95" y="388.9102">View</text>
        <line style="stroke: #A80036; stroke-width: 1.5;" x1="1537.95" x2="1593.95" y1="400" y2="400"/>
        <line style="stroke: #A80036; stroke-width: 1.5;" x1="1537.95" x2="1593.95" y1="408" y2="408"/>
        <rect fill="#FEFECE" filter="url(#f1)" height="48" style="stroke: #A80036; stroke-width: 1.5;" width="162" x="559.953" y="44"/>
        <ellipse cx="574.953" cy="60" fill="#B4A7E5" rx="11" ry="11" style="stroke: #A80036; stroke-width: 1.0;"/>
        <path d="M575.9061,56.6406 L575.9061,63.2969 L577.6249,63.2969 Q578.2343,63.2969 578.4999,63.5313 Q578.7655,63.7656 578.7655,64.1563 Q578.7655,64.5313 578.4999,64.7656 Q578.2343,65 577.6249,65 L572.4843,65 Q571.8749,65 571.6093,64.7656 Q571.3436,64.5313 571.3436,64.1406 Q571.3436,63.7656 571.6093,63.5313 Q571.8749,63.2969 572.4843,63.2969 L574.203,63.2969 L574.203,56.6406 L572.4843,56.6406 Q571.8749,56.6406 571.6093,56.4063 Q571.3436,56.1719 571.3436,55.7813 Q571.3436,55.4063 571.6093,55.1719 Q571.8749,54.9375 572.4843,54.9375 L577.6249,54.9375 Q578.2343,54.9375 578.4999,55.1719 Q578.7655,55.4063 578.7655,55.7813 Q578.7655,56.1719 578.4999,56.4063 Q578.2343,56.6406 577.6249,56.6406 L575.9061,56.6406 Z "/>
        <text fill="#000000" font-family="sans-serif" font-size="12" font-style="italic" lengthAdjust="spacingAndGlyphs" textLength="130" x="588.953" y="64.9102">FrontControllerInterface</text>
        <line style="stroke: #A80036; stroke-width: 1.5;" x1="560.953" x2="720.953" y1="76" y2="76"/>
        <line style="stroke: #A80036; stroke-width: 1.5;" x1="560.953" x2="720.953" y1="84" y2="84"/>
        <rect fill="#FEFECE" filter="url(#f1)" height="48" style="stroke: #A80036; stroke-width: 1.5;" width="114" x="583.953" y="152"/>
        <ellipse cx="598.953" cy="168" fill="#ADD1B2" rx="11" ry="11" style="stroke: #A80036; stroke-width: 1.0;"/>
        <path d="M601.7186,163.875 Q601.8749,163.6563 602.0624,163.5469 Q602.2499,163.4375 602.4686,163.4375 Q602.8436,163.4375 603.078,163.6953 Q603.3124,163.9531 603.3124,164.5625 L603.3124,166.0156 Q603.3124,166.625 603.078,166.8906 Q602.8436,167.1563 602.4686,167.1563 Q602.1249,167.1563 601.9218,166.9531 Q601.7186,166.7656 601.6093,166.25 Q601.5624,165.8906 601.3749,165.7031 Q601.0468,165.3281 600.4374,165.1094 Q599.828,164.8906 599.203,164.8906 Q598.4374,164.8906 597.8046,165.2188 Q597.1718,165.5469 596.6796,166.2969 Q596.1874,167.0469 596.1874,168.0781 L596.1874,169.1719 Q596.1874,170.4063 597.078,171.2266 Q597.9686,172.0469 599.5624,172.0469 Q600.4999,172.0469 601.1561,171.7969 Q601.5468,171.6406 601.9686,171.2031 Q602.2343,170.9375 602.3827,170.8594 Q602.5311,170.7813 602.7343,170.7813 Q603.0624,170.7813 603.3202,171.0391 Q603.578,171.2969 603.578,171.6406 Q603.578,171.9844 603.2343,172.3906 Q602.7343,172.9688 601.9374,173.2969 Q600.8593,173.75 599.5624,173.75 Q598.0468,173.75 596.8436,173.125 Q595.8593,172.625 595.1718,171.5547 Q594.4843,170.4844 594.4843,169.2031 L594.4843,168.0469 Q594.4843,166.7188 595.1014,165.5703 Q595.7186,164.4219 596.8124,163.8047 Q597.9061,163.1875 599.1405,163.1875 Q599.8749,163.1875 600.5233,163.3516 Q601.1718,163.5156 601.7186,163.875 Z "/>
        <text fill="#000000" font-family="sans-serif" font-size="12" lengthAdjust="spacingAndGlyphs" textLength="82" x="612.953" y="172.9102">FrontController</text>
        <line style="stroke: #A80036; stroke-width: 1.5;" x1="584.953" x2="696.953" y1="184" y2="184"/>
        <line style="stroke: #A80036; stroke-width: 1.5;" x1="584.953" x2="696.953" y1="192" y2="192"/>
        <rect fill="#FEFECE" filter="url(#f1)" height="48" style="stroke: #A80036; stroke-width: 1.5;" width="90" x="549.953" y="368"/>
        <ellipse cx="564.953" cy="384" fill="#ADD1B2" rx="11" ry="11" style="stroke: #A80036; stroke-width: 1.0;"/>
        <path d="M567.7186,379.875 Q567.8749,379.6563 568.0624,379.5469 Q568.2499,379.4375 568.4686,379.4375 Q568.8436,379.4375 569.078,379.6953 Q569.3124,379.9531 569.3124,380.5625 L569.3124,382.0156 Q569.3124,382.625 569.078,382.8906 Q568.8436,383.1563 568.4686,383.1563 Q568.1249,383.1563 567.9218,382.9531 Q567.7186,382.7656 567.6093,382.25 Q567.5624,381.8906 567.3749,381.7031 Q567.0468,381.3281 566.4374,381.1094 Q565.828,380.8906 565.203,380.8906 Q564.4374,380.8906 563.8046,381.2188 Q563.1718,381.5469 562.6796,382.2969 Q562.1874,383.0469 562.1874,384.0781 L562.1874,385.1719 Q562.1874,386.4063 563.078,387.2266 Q563.9686,388.0469 565.5624,388.0469 Q566.4999,388.0469 567.1561,387.7969 Q567.5468,387.6406 567.9686,387.2031 Q568.2343,386.9375 568.3827,386.8594 Q568.5311,386.7813 568.7343,386.7813 Q569.0624,386.7813 569.3202,387.0391 Q569.578,387.2969 569.578,387.6406 Q569.578,387.9844 569.2343,388.3906 Q568.7343,388.9688 567.9374,389.2969 Q566.8593,389.75 565.5624,389.75 Q564.0468,389.75 562.8436,389.125 Q561.8593,388.625 561.1718,387.5547 Q560.4843,386.4844 560.4843,385.2031 L560.4843,384.0469 Q560.4843,382.7188 561.1014,381.5703 Q561.7186,380.4219 562.8124,379.8047 Q563.9061,379.1875 565.1405,379.1875 Q565.8749,379.1875 566.5233,379.3516 Q567.1718,379.5156 567.7186,379.875 Z "/>
        <text fill="#000000" font-family="sans-serif" font-size="12" lengthAdjust="spacingAndGlyphs" textLength="58" x="578.953" y="388.9102">Response</text>
        <line style="stroke: #A80036; stroke-width: 1.5;" x1="550.953" x2="638.953" y1="400" y2="400"/>
        <line style="stroke: #A80036; stroke-width: 1.5;" x1="550.953" x2="638.953" y1="408" y2="408"/>
        <rect fill="#FEFECE" filter="url(#f1)" height="48" style="stroke: #A80036; stroke-width: 1.5;" width="126" x="434.953" y="260"/>
        <ellipse cx="449.953" cy="276" fill="#B4A7E5" rx="11" ry="11" style="stroke: #A80036; stroke-width: 1.0;"/>
        <path d="M450.9061,272.6406 L450.9061,279.2969 L452.6249,279.2969 Q453.2343,279.2969 453.4999,279.5313 Q453.7655,279.7656 453.7655,280.1563 Q453.7655,280.5313 453.4999,280.7656 Q453.2343,281 452.6249,281 L447.4843,281 Q446.8749,281 446.6093,280.7656 Q446.3436,280.5313 446.3436,280.1406 Q446.3436,279.7656 446.6093,279.5313 Q446.8749,279.2969 447.4843,279.2969 L449.203,279.2969 L449.203,272.6406 L447.4843,272.6406 Q446.8749,272.6406 446.6093,272.4063 Q446.3436,272.1719 446.3436,271.7813 Q446.3436,271.4063 446.6093,271.1719 Q446.8749,270.9375 447.4843,270.9375 L452.6249,270.9375 Q453.2343,270.9375 453.4999,271.1719 Q453.7655,271.4063 453.7655,271.7813 Q453.7655,272.1719 453.4999,272.4063 Q453.2343,272.6406 452.6249,272.6406 L450.9061,272.6406 Z "/>
        <text fill="#000000" font-family="sans-serif" font-size="12" font-style="italic" lengthAdjust="spacingAndGlyphs" textLength="94" x="463.953" y="280.9102">RequestInterface</text>
        <line style="stroke: #A80036; stroke-width: 1.5;" x1="435.953" x2="559.953" y1="292" y2="292"/>
        <line style="stroke: #A80036; stroke-width: 1.5;" x1="435.953" x2="559.953" y1="300" y2="300"/>
        <rect fill="#FEFECE" filter="url(#f1)" height="48" style="stroke: #A80036; stroke-width: 1.5;" width="113" x="818.453" y="368"/>
        <ellipse cx="833.453" cy="384" fill="#ADD1B2" rx="11" ry="11" style="stroke: #A80036; stroke-width: 1.0;"/>
        <path d="M836.2186,379.875 Q836.3749,379.6563 836.5624,379.5469 Q836.7499,379.4375 836.9686,379.4375 Q837.3436,379.4375 837.578,379.6953 Q837.8124,379.9531 837.8124,380.5625 L837.8124,382.0156 Q837.8124,382.625 837.578,382.8906 Q837.3436,383.1563 836.9686,383.1563 Q836.6249,383.1563 836.4218,382.9531 Q836.2186,382.7656 836.1093,382.25 Q836.0624,381.8906 835.8749,381.7031 Q835.5468,381.3281 834.9374,381.1094 Q834.328,380.8906 833.703,380.8906 Q832.9374,380.8906 832.3046,381.2188 Q831.6718,381.5469 831.1796,382.2969 Q830.6874,383.0469 830.6874,384.0781 L830.6874,385.1719 Q830.6874,386.4063 831.578,387.2266 Q832.4686,388.0469 834.0624,388.0469 Q834.9999,388.0469 835.6561,387.7969 Q836.0468,387.6406 836.4686,387.2031 Q836.7343,386.9375 836.8827,386.8594 Q837.0311,386.7813 837.2343,386.7813 Q837.5624,386.7813 837.8202,387.0391 Q838.078,387.2969 838.078,387.6406 Q838.078,387.9844 837.7343,388.3906 Q837.2343,388.9688 836.4374,389.2969 Q835.3593,389.75 834.0624,389.75 Q832.5468,389.75 831.3436,389.125 Q830.3593,388.625 829.6718,387.5547 Q828.9843,386.4844 828.9843,385.2031 L828.9843,384.0469 Q828.9843,382.7188 829.6014,381.5703 Q830.2186,380.4219 831.3124,379.8047 Q832.4061,379.1875 833.6405,379.1875 Q834.3749,379.1875 835.0233,379.3516 Q835.6718,379.5156 836.2186,379.875 Z "/>
        <text fill="#000000" font-family="sans-serif" font-size="12" lengthAdjust="spacingAndGlyphs" textLength="81" x="847.453" y="388.9102">DataCollection</text>
        <line style="stroke: #A80036; stroke-width: 1.5;" x1="819.453" x2="930.453" y1="400" y2="400"/>
        <line style="stroke: #A80036; stroke-width: 1.5;" x1="819.453" x2="930.453" y1="408" y2="408"/>
        <rect fill="#FEFECE" filter="url(#f1)" height="48" style="stroke: #A80036; stroke-width: 1.5;" width="108" x="674.953" y="368"/>
        <ellipse cx="689.953" cy="384" fill="#B4A7E5" rx="11" ry="11" style="stroke: #A80036; stroke-width: 1.0;"/>
        <path d="M690.9061,380.6406 L690.9061,387.2969 L692.6249,387.2969 Q693.2343,387.2969 693.4999,387.5313 Q693.7655,387.7656 693.7655,388.1563 Q693.7655,388.5313 693.4999,388.7656 Q693.2343,389 692.6249,389 L687.4843,389 Q686.8749,389 686.6093,388.7656 Q686.3436,388.5313 686.3436,388.1406 Q686.3436,387.7656 686.6093,387.5313 Q686.8749,387.2969 687.4843,387.2969 L689.203,387.2969 L689.203,380.6406 L687.4843,380.6406 Q686.8749,380.6406 686.6093,380.4063 Q686.3436,380.1719 686.3436,379.7813 Q686.3436,379.4063 686.6093,379.1719 Q686.8749,378.9375 687.4843,378.9375 L692.6249,378.9375 Q693.2343,378.9375 693.4999,379.1719 Q693.7655,379.4063 693.7655,379.7813 Q693.7655,380.1719 693.4999,380.4063 Q693.2343,380.6406 692.6249,380.6406 L690.9061,380.6406 Z "/>
        <text fill="#000000" font-family="sans-serif" font-size="12" font-style="italic" lengthAdjust="spacingAndGlyphs" textLength="76" x="703.953" y="388.9102">InputInterface</text>
        <line style="stroke: #A80036; stroke-width: 1.5;" x1="675.953" x2="781.953" y1="400" y2="400"/>
        <line style="stroke: #A80036; stroke-width: 1.5;" x1="675.953" x2="781.953" y1="408" y2="408"/>
        <rect fill="#FEFECE" filter="url(#f1)" height="48" style="stroke: #A80036; stroke-width: 1.5;" width="59" x="799.453" y="476"/>
        <ellipse cx="814.453" cy="492" fill="#ADD1B2" rx="11" ry="11" style="stroke: #A80036; stroke-width: 1.0;"/>
        <path d="M817.2186,487.875 Q817.3749,487.6563 817.5624,487.5469 Q817.7499,487.4375 817.9686,487.4375 Q818.3436,487.4375 818.578,487.6953 Q818.8124,487.9531 818.8124,488.5625 L818.8124,490.0156 Q818.8124,490.625 818.578,490.8906 Q818.3436,491.1563 817.9686,491.1563 Q817.6249,491.1563 817.4218,490.9531 Q817.2186,490.7656 817.1093,490.25 Q817.0624,489.8906 816.8749,489.7031 Q816.5468,489.3281 815.9374,489.1094 Q815.328,488.8906 814.703,488.8906 Q813.9374,488.8906 813.3046,489.2188 Q812.6718,489.5469 812.1796,490.2969 Q811.6874,491.0469 811.6874,492.0781 L811.6874,493.1719 Q811.6874,494.4063 812.578,495.2266 Q813.4686,496.0469 815.0624,496.0469 Q815.9999,496.0469 816.6561,495.7969 Q817.0468,495.6406 817.4686,495.2031 Q817.7343,494.9375 817.8827,494.8594 Q818.0311,494.7813 818.2343,494.7813 Q818.5624,494.7813 818.8202,495.0391 Q819.078,495.2969 819.078,495.6406 Q819.078,495.9844 818.7343,496.3906 Q818.2343,496.9688 817.4374,497.2969 Q816.3593,497.75 815.0624,497.75 Q813.5468,497.75 812.3436,497.125 Q811.3593,496.625 810.6718,495.5547 Q809.9843,494.4844 809.9843,493.2031 L809.9843,492.0469 Q809.9843,490.7188 810.6014,489.5703 Q811.2186,488.4219 812.3124,487.8047 Q813.4061,487.1875 814.6405,487.1875 Q815.3749,487.1875 816.0233,487.3516 Q816.6718,487.5156 817.2186,487.875 Z "/>
        <text fill="#000000" font-family="sans-serif" font-size="12" lengthAdjust="spacingAndGlyphs" textLength="27" x="828.453" y="496.9102">Input</text>
        <line style="stroke: #A80036; stroke-width: 1.5;" x1="800.453" x2="857.453" y1="508" y2="508"/>
        <line style="stroke: #A80036; stroke-width: 1.5;" x1="800.453" x2="857.453" y1="516" y2="516"/>
        <rect fill="#FEFECE" filter="url(#f1)" height="48" style="stroke: #A80036; stroke-width: 1.5;" width="79" x="435.453" y="368"/>
        <ellipse cx="450.453" cy="384" fill="#ADD1B2" rx="11" ry="11" style="stroke: #A80036; stroke-width: 1.0;"/>
        <path d="M453.2186,379.875 Q453.3749,379.6563 453.5624,379.5469 Q453.7499,379.4375 453.9686,379.4375 Q454.3436,379.4375 454.578,379.6953 Q454.8124,379.9531 454.8124,380.5625 L454.8124,382.0156 Q454.8124,382.625 454.578,382.8906 Q454.3436,383.1563 453.9686,383.1563 Q453.6249,383.1563 453.4218,382.9531 Q453.2186,382.7656 453.1093,382.25 Q453.0624,381.8906 452.8749,381.7031 Q452.5468,381.3281 451.9374,381.1094 Q451.328,380.8906 450.703,380.8906 Q449.9374,380.8906 449.3046,381.2188 Q448.6718,381.5469 448.1796,382.2969 Q447.6874,383.0469 447.6874,384.0781 L447.6874,385.1719 Q447.6874,386.4063 448.578,387.2266 Q449.4686,388.0469 451.0624,388.0469 Q451.9999,388.0469 452.6561,387.7969 Q453.0468,387.6406 453.4686,387.2031 Q453.7343,386.9375 453.8827,386.8594 Q454.0311,386.7813 454.2343,386.7813 Q454.5624,386.7813 454.8202,387.0391 Q455.078,387.2969 455.078,387.6406 Q455.078,387.9844 454.7343,388.3906 Q454.2343,388.9688 453.4374,389.2969 Q452.3593,389.75 451.0624,389.75 Q449.5468,389.75 448.3436,389.125 Q447.3593,388.625 446.6718,387.5547 Q445.9843,386.4844 445.9843,385.2031 L445.9843,384.0469 Q445.9843,382.7188 446.6014,381.5703 Q447.2186,380.4219 448.3124,379.8047 Q449.4061,379.1875 450.6405,379.1875 Q451.3749,379.1875 452.0233,379.3516 Q452.6718,379.5156 453.2186,379.875 Z "/>
        <text fill="#000000" font-family="sans-serif" font-size="12" lengthAdjust="spacingAndGlyphs" textLength="47" x="464.453" y="388.9102">Request</text>
        <line style="stroke: #A80036; stroke-width: 1.5;" x1="436.453" x2="513.453" y1="400" y2="400"/>
        <line style="stroke: #A80036; stroke-width: 1.5;" x1="436.453" x2="513.453" y1="408" y2="408"/>
        <rect fill="#FEFECE" filter="url(#f1)" height="48" style="stroke: #A80036; stroke-width: 1.5;" width="105" x="587.453" y="476"/>
        <ellipse cx="602.453" cy="492" fill="#ADD1B2" rx="11" ry="11" style="stroke: #A80036; stroke-width: 1.0;"/>
        <path d="M605.2186,487.875 Q605.3749,487.6563 605.5624,487.5469 Q605.7499,487.4375 605.9686,487.4375 Q606.3436,487.4375 606.578,487.6953 Q606.8124,487.9531 606.8124,488.5625 L606.8124,490.0156 Q606.8124,490.625 606.578,490.8906 Q606.3436,491.1563 605.9686,491.1563 Q605.6249,491.1563 605.4218,490.9531 Q605.2186,490.7656 605.1093,490.25 Q605.0624,489.8906 604.8749,489.7031 Q604.5468,489.3281 603.9374,489.1094 Q603.328,488.8906 602.703,488.8906 Q601.9374,488.8906 601.3046,489.2188 Q600.6718,489.5469 600.1796,490.2969 Q599.6874,491.0469 599.6874,492.0781 L599.6874,493.1719 Q599.6874,494.4063 600.578,495.2266 Q601.4686,496.0469 603.0624,496.0469 Q603.9999,496.0469 604.6561,495.7969 Q605.0468,495.6406 605.4686,495.2031 Q605.7343,494.9375 605.8827,494.8594 Q606.0311,494.7813 606.2343,494.7813 Q606.5624,494.7813 606.8202,495.0391 Q607.078,495.2969 607.078,495.6406 Q607.078,495.9844 606.7343,496.3906 Q606.2343,496.9688 605.4374,497.2969 Q604.3593,497.75 603.0624,497.75 Q601.5468,497.75 600.3436,497.125 Q599.3593,496.625 598.6718,495.5547 Q597.9843,494.4844 597.9843,493.2031 L597.9843,492.0469 Q597.9843,490.7188 598.6014,489.5703 Q599.2186,488.4219 600.3124,487.8047 Q601.4061,487.1875 602.6405,487.1875 Q603.3749,487.1875 604.0233,487.3516 Q604.6718,487.5156 605.2186,487.875 Z "/>
        <text fill="#000000" font-family="sans-serif" font-size="12" lengthAdjust="spacingAndGlyphs" textLength="73" x="616.453" y="496.9102">RequestData</text>
        <line style="stroke: #A80036; stroke-width: 1.5;" x1="588.453" x2="691.453" y1="508" y2="508"/>
        <line style="stroke: #A80036; stroke-width: 1.5;" x1="588.453" x2="691.453" y1="516" y2="516"/>
        <rect fill="#FEFECE" filter="url(#f1)" height="48" style="stroke: #A80036; stroke-width: 1.5;" width="136" x="595.953" y="260"/>
        <ellipse cx="610.953" cy="276" fill="#B4A7E5" rx="11" ry="11" style="stroke: #A80036; stroke-width: 1.0;"/>
        <path d="M611.9061,272.6406 L611.9061,279.2969 L613.6249,279.2969 Q614.2343,279.2969 614.4999,279.5313 Q614.7655,279.7656 614.7655,280.1563 Q614.7655,280.5313 614.4999,280.7656 Q614.2343,281 613.6249,281 L608.4843,281 Q607.8749,281 607.6093,280.7656 Q607.3436,280.5313 607.3436,280.1406 Q607.3436,279.7656 607.6093,279.5313 Q607.8749,279.2969 608.4843,279.2969 L610.203,279.2969 L610.203,272.6406 L608.4843,272.6406 Q607.8749,272.6406 607.6093,272.4063 Q607.3436,272.1719 607.3436,271.7813 Q607.3436,271.4063 607.6093,271.1719 Q607.8749,270.9375 608.4843,270.9375 L613.6249,270.9375 Q614.2343,270.9375 614.4999,271.1719 Q614.7655,271.4063 614.7655,271.7813 Q614.7655,272.1719 614.4999,272.4063 Q614.2343,272.6406 613.6249,272.6406 L611.9061,272.6406 Z "/>
        <text fill="#000000" font-family="sans-serif" font-size="12" font-style="italic" lengthAdjust="spacingAndGlyphs" textLength="104" x="624.953" y="280.9102">ResponseInterface</text>
        <line style="stroke: #A80036; stroke-width: 1.5;" x1="596.953" x2="730.953" y1="292" y2="292"/>
        <line style="stroke: #A80036; stroke-width: 1.5;" x1="596.953" x2="730.953" y1="300" y2="300"/>
        <rect fill="#FEFECE" filter="url(#f1)" height="48" style="stroke: #A80036; stroke-width: 1.5;" width="100" x="52.9533" y="260"/>
        <ellipse cx="67.9533" cy="276" fill="#ADD1B2" rx="11" ry="11" style="stroke: #A80036; stroke-width: 1.0;"/>
        <path d="M70.7189,271.875 Q70.8752,271.6563 71.0627,271.5469 Q71.2502,271.4375 71.4689,271.4375 Q71.8439,271.4375 72.0783,271.6953 Q72.3127,271.9531 72.3127,272.5625 L72.3127,274.0156 Q72.3127,274.625 72.0783,274.8906 Q71.8439,275.1563 71.4689,275.1563 Q71.1252,275.1563 70.9221,274.9531 Q70.7189,274.7656 70.6096,274.25 Q70.5627,273.8906 70.3752,273.7031 Q70.0471,273.3281 69.4377,273.1094 Q68.8283,272.8906 68.2033,272.8906 Q67.4377,272.8906 66.8049,273.2188 Q66.1721,273.5469 65.6799,274.2969 Q65.1877,275.0469 65.1877,276.0781 L65.1877,277.1719 Q65.1877,278.4063 66.0783,279.2266 Q66.9689,280.0469 68.5627,280.0469 Q69.5002,280.0469 70.1564,279.7969 Q70.5471,279.6406 70.9689,279.2031 Q71.2346,278.9375 71.383,278.8594 Q71.5314,278.7813 71.7346,278.7813 Q72.0627,278.7813 72.3205,279.0391 Q72.5783,279.2969 72.5783,279.6406 Q72.5783,279.9844 72.2346,280.3906 Q71.7346,280.9688 70.9377,281.2969 Q69.8596,281.75 68.5627,281.75 Q67.0471,281.75 65.8439,281.125 Q64.8596,280.625 64.1721,279.5547 Q63.4846,278.4844 63.4846,277.2031 L63.4846,276.0469 Q63.4846,274.7188 64.1017,273.5703 Q64.7189,272.4219 65.8127,271.8047 Q66.9064,271.1875 68.1408,271.1875 Q68.8752,271.1875 69.5236,271.3516 Q70.1721,271.5156 70.7189,271.875 Z "/>
        <text fill="#000000" font-family="sans-serif" font-size="12" lengthAdjust="spacingAndGlyphs" textLength="68" x="81.9533" y="280.9102">FileManager</text>
        <line style="stroke: #A80036; stroke-width: 1.5;" x1="53.9533" x2="151.9533" y1="292" y2="292"/>
        <line style="stroke: #A80036; stroke-width: 1.5;" x1="53.9533" x2="151.9533" y1="300" y2="300"/>
        <rect fill="#FEFECE" filter="url(#f1)" height="48" style="stroke: #A80036; stroke-width: 1.5;" width="80" x="966.953" y="368"/>
        <ellipse cx="981.953" cy="384" fill="#ADD1B2" rx="11" ry="11" style="stroke: #A80036; stroke-width: 1.0;"/>
        <path d="M984.7186,379.875 Q984.8749,379.6563 985.0624,379.5469 Q985.2499,379.4375 985.4686,379.4375 Q985.8436,379.4375 986.078,379.6953 Q986.3124,379.9531 986.3124,380.5625 L986.3124,382.0156 Q986.3124,382.625 986.078,382.8906 Q985.8436,383.1563 985.4686,383.1563 Q985.1249,383.1563 984.9218,382.9531 Q984.7186,382.7656 984.6093,382.25 Q984.5624,381.8906 984.3749,381.7031 Q984.0468,381.3281 983.4374,381.1094 Q982.828,380.8906 982.203,380.8906 Q981.4374,380.8906 980.8046,381.2188 Q980.1718,381.5469 979.6796,382.2969 Q979.1874,383.0469 979.1874,384.0781 L979.1874,385.1719 Q979.1874,386.4063 980.078,387.2266 Q980.9686,388.0469 982.5624,388.0469 Q983.4999,388.0469 984.1561,387.7969 Q984.5468,387.6406 984.9686,387.2031 Q985.2343,386.9375 985.3827,386.8594 Q985.5311,386.7813 985.7343,386.7813 Q986.0624,386.7813 986.3202,387.0391 Q986.578,387.2969 986.578,387.6406 Q986.578,387.9844 986.2343,388.3906 Q985.7343,388.9688 984.9374,389.2969 Q983.8593,389.75 982.5624,389.75 Q981.0468,389.75 979.8436,389.125 Q978.8593,388.625 978.1718,387.5547 Q977.4843,386.4844 977.4843,385.2031 L977.4843,384.0469 Q977.4843,382.7188 978.1014,381.5703 Q978.7186,380.4219 979.8124,379.8047 Q980.9061,379.1875 982.1405,379.1875 Q982.8749,379.1875 983.5233,379.3516 Q984.1718,379.5156 984.7186,379.875 Z "/>
        <text fill="#000000" font-family="sans-serif" font-size="12" lengthAdjust="spacingAndGlyphs" textLength="48" x="995.953" y="388.9102">XssFilter</text>
        <line style="stroke: #A80036; stroke-width: 1.5;" x1="967.953" x2="1045.953" y1="400" y2="400"/>
        <line style="stroke: #A80036; stroke-width: 1.5;" x1="967.953" x2="1045.953" y1="408" y2="408"/>
        <rect fill="#FEFECE" filter="url(#f1)" height="48" style="stroke: #A80036; stroke-width: 1.5;" width="102" x="1253.95" y="476"/>
        <ellipse cx="1268.95" cy="492" fill="#ADD1B2" rx="11" ry="11" style="stroke: #A80036; stroke-width: 1.0;"/>
        <path d="M1271.7156,487.875 Q1271.8719,487.6563 1272.0594,487.5469 Q1272.2469,487.4375 1272.4656,487.4375 Q1272.8406,487.4375 1273.075,487.6953 Q1273.3094,487.9531 1273.3094,488.5625 L1273.3094,490.0156 Q1273.3094,490.625 1273.075,490.8906 Q1272.8406,491.1563 1272.4656,491.1563 Q1272.1219,491.1563 1271.9188,490.9531 Q1271.7156,490.7656 1271.6063,490.25 Q1271.5594,489.8906 1271.3719,489.7031 Q1271.0438,489.3281 1270.4344,489.1094 Q1269.825,488.8906 1269.2,488.8906 Q1268.4344,488.8906 1267.8016,489.2188 Q1267.1688,489.5469 1266.6766,490.2969 Q1266.1844,491.0469 1266.1844,492.0781 L1266.1844,493.1719 Q1266.1844,494.4063 1267.075,495.2266 Q1267.9656,496.0469 1269.5594,496.0469 Q1270.4969,496.0469 1271.1531,495.7969 Q1271.5438,495.6406 1271.9656,495.2031 Q1272.2313,494.9375 1272.3797,494.8594 Q1272.5281,494.7813 1272.7313,494.7813 Q1273.0594,494.7813 1273.3172,495.0391 Q1273.575,495.2969 1273.575,495.6406 Q1273.575,495.9844 1273.2313,496.3906 Q1272.7313,496.9688 1271.9344,497.2969 Q1270.8563,497.75 1269.5594,497.75 Q1268.0438,497.75 1266.8406,497.125 Q1265.8563,496.625 1265.1688,495.5547 Q1264.4813,494.4844 1264.4813,493.2031 L1264.4813,492.0469 Q1264.4813,490.7188 1265.0984,489.5703 Q1265.7156,488.4219 1266.8094,487.8047 Q1267.9031,487.1875 1269.1375,487.1875 Q1269.8719,487.1875 1270.5203,487.3516 Q1271.1688,487.5156 1271.7156,487.875 Z "/>
        <text fill="#000000" font-family="sans-serif" font-size="12" lengthAdjust="spacingAndGlyphs" textLength="70" x="1282.95" y="496.9102">Connections</text>
        <line style="stroke: #A80036; stroke-width: 1.5;" x1="1254.95" x2="1354.95" y1="508" y2="508"/>
        <line style="stroke: #A80036; stroke-width: 1.5;" x1="1254.95" x2="1354.95" y1="516" y2="516"/>
        <rect fill="#FEFECE" filter="url(#f1)" height="48" style="stroke: #A80036; stroke-width: 1.5;" width="113" x="1324.45" y="368"/>
        <ellipse cx="1339.45" cy="384" fill="#B4A7E5" rx="11" ry="11" style="stroke: #A80036; stroke-width: 1.0;"/>
        <path d="M1340.4031,380.6406 L1340.4031,387.2969 L1342.1219,387.2969 Q1342.7313,387.2969 1342.9969,387.5313 Q1343.2625,387.7656 1343.2625,388.1563 Q1343.2625,388.5313 1342.9969,388.7656 Q1342.7313,389 1342.1219,389 L1336.9813,389 Q1336.3719,389 1336.1063,388.7656 Q1335.8406,388.5313 1335.8406,388.1406 Q1335.8406,387.7656 1336.1063,387.5313 Q1336.3719,387.2969 1336.9813,387.2969 L1338.7,387.2969 L1338.7,380.6406 L1336.9813,380.6406 Q1336.3719,380.6406 1336.1063,380.4063 Q1335.8406,380.1719 1335.8406,379.7813 Q1335.8406,379.4063 1336.1063,379.1719 Q1336.3719,378.9375 1336.9813,378.9375 L1342.1219,378.9375 Q1342.7313,378.9375 1342.9969,379.1719 Q1343.2625,379.4063 1343.2625,379.7813 Q1343.2625,380.1719 1342.9969,380.4063 Q1342.7313,380.6406 1342.1219,380.6406 L1340.4031,380.6406 Z "/>
        <text fill="#000000" font-family="sans-serif" font-size="12" font-style="italic" lengthAdjust="spacingAndGlyphs" textLength="81" x="1353.45" y="388.9102">ModelInterface</text>
        <line style="stroke: #A80036; stroke-width: 1.5;" x1="1325.45" x2="1436.45" y1="400" y2="400"/>
        <line style="stroke: #A80036; stroke-width: 1.5;" x1="1325.45" x2="1436.45" y1="408" y2="408"/>
        <rect fill="#FEFECE" filter="url(#f1)" height="48" style="stroke: #A80036; stroke-width: 1.5;" width="97" x="1391.45" y="476"/>
        <ellipse cx="1406.45" cy="492" fill="#ADD1B2" rx="11" ry="11" style="stroke: #A80036; stroke-width: 1.0;"/>
        <path d="M1409.2156,487.875 Q1409.3719,487.6563 1409.5594,487.5469 Q1409.7469,487.4375 1409.9656,487.4375 Q1410.3406,487.4375 1410.575,487.6953 Q1410.8094,487.9531 1410.8094,488.5625 L1410.8094,490.0156 Q1410.8094,490.625 1410.575,490.8906 Q1410.3406,491.1563 1409.9656,491.1563 Q1409.6219,491.1563 1409.4188,490.9531 Q1409.2156,490.7656 1409.1063,490.25 Q1409.0594,489.8906 1408.8719,489.7031 Q1408.5438,489.3281 1407.9344,489.1094 Q1407.325,488.8906 1406.7,488.8906 Q1405.9344,488.8906 1405.3016,489.2188 Q1404.6688,489.5469 1404.1766,490.2969 Q1403.6844,491.0469 1403.6844,492.0781 L1403.6844,493.1719 Q1403.6844,494.4063 1404.575,495.2266 Q1405.4656,496.0469 1407.0594,496.0469 Q1407.9969,496.0469 1408.6531,495.7969 Q1409.0438,495.6406 1409.4656,495.2031 Q1409.7313,494.9375 1409.8797,494.8594 Q1410.0281,494.7813 1410.2313,494.7813 Q1410.5594,494.7813 1410.8172,495.0391 Q1411.075,495.2969 1411.075,495.6406 Q1411.075,495.9844 1410.7313,496.3906 Q1410.2313,496.9688 1409.4344,497.2969 Q1408.3563,497.75 1407.0594,497.75 Q1405.5438,497.75 1404.3406,497.125 Q1403.3563,496.625 1402.6688,495.5547 Q1401.9813,494.4844 1401.9813,493.2031 L1401.9813,492.0469 Q1401.9813,490.7188 1402.5984,489.5703 Q1403.2156,488.4219 1404.3094,487.8047 Q1405.4031,487.1875 1406.6375,487.1875 Q1407.3719,487.1875 1408.0203,487.3516 Q1408.6688,487.5156 1409.2156,487.875 Z "/>
        <text fill="#000000" font-family="sans-serif" font-size="12" lengthAdjust="spacingAndGlyphs" textLength="65" x="1420.45" y="496.9102">MySqlModel</text>
        <line style="stroke: #A80036; stroke-width: 1.5;" x1="1392.45" x2="1487.45" y1="508" y2="508"/>
        <line style="stroke: #A80036; stroke-width: 1.5;" x1="1392.45" x2="1487.45" y1="516" y2="516"/>
        <path d="M270.953,544.024 C270.953,557.579 270.953,572.038 270.953,583.678 " fill="none" style="stroke: #A80036; stroke-width: 1.0; stroke-dasharray: 7.0,7.0;"/>
        <polygon fill="none" points="263.953,544,270.953,524,277.953,544,263.953,544" style="stroke: #A80036; stroke-width: 1.0;"/>
        <path d="M270.953,652.024 C270.953,665.5792 270.953,680.0381 270.953,691.6784 " fill="none" style="stroke: #A80036; stroke-width: 1.0;"/>
        <polygon fill="none" points="263.953,652,270.953,632,277.953,652,263.953,652" style="stroke: #A80036; stroke-width: 1.0;"/>
        <path d="M340.834,608 C422.98,608 505.125,608 587.271,608 " fill="none" style="stroke: #A80036; stroke-width: 1.0;"/>
        <polygon fill="none" points="327.651,608,333.651,612,339.651,608,333.651,604,327.651,608" style="stroke: #A80036; stroke-width: 1.0;"/>
        <path d="M1221.95,112.024 C1221.95,125.579 1221.95,140.038 1221.95,151.678 " fill="none" style="stroke: #A80036; stroke-width: 1.0; stroke-dasharray: 7.0,7.0;"/>
        <polygon fill="none" points="1214.95,112,1221.95,92,1228.95,112,1214.95,112" style="stroke: #A80036; stroke-width: 1.0;"/>
        <path d="M1165.77,180.919 C1076.01,187.113 894.725,199.347 740.953,208 C713.243,209.559 261.101,211.909 241.953,232 C206.856,268.826 235.6,333.357 255.302,367.797 " fill="none" style="stroke: #A80036; stroke-width: 1.0;"/>
        <polygon fill="#A80036" points="1178.85,180.014,1172.5875,176.4389,1166.8788,180.8447,1173.1413,184.4198,1178.85,180.014" style="stroke: #A80036; stroke-width: 1.0;"/>
        <path d="M1232.07,213.178 C1238.33,241.718 1243.39,282.21 1232.95,316 C1212.91,380.883 1161.09,443.287 1130.83,475.788 " fill="none" style="stroke: #A80036; stroke-width: 1.0;"/>
        <polygon fill="#A80036" points="1228.96,200.209,1226.4692,206.9763,1231.758,211.8782,1234.2487,205.111,1228.96,200.209" style="stroke: #A80036; stroke-width: 1.0;"/>
        <path d="M1206.13,211.935 C1199.03,227.611 1190.85,245.682 1184.51,259.678 " fill="none" style="stroke: #A80036; stroke-width: 1.0;"/>
        <polygon fill="#A80036" points="1211.54,200,1205.4211,203.8157,1206.5899,210.9314,1212.7087,207.1158,1211.54,200" style="stroke: #A80036; stroke-width: 1.0;"/>
        <path d="M1277.98,194.263 C1342.89,214.266 1449.08,246.986 1512.77,266.611 " fill="none" style="stroke: #A80036; stroke-width: 1.0;"/>
        <polygon fill="#A80036" points="1265.17,190.318,1269.7258,195.9077,1276.6378,193.8522,1272.0819,188.2625,1265.17,190.318" style="stroke: #A80036; stroke-width: 1.0;"/>
        <path d="M640.953,112.024 C640.953,125.579 640.953,140.038 640.953,151.678 " fill="none" style="stroke: #A80036; stroke-width: 1.0; stroke-dasharray: 7.0,7.0;"/>
        <polygon fill="none" points="633.953,112,640.953,92,647.953,112,633.953,112" style="stroke: #A80036; stroke-width: 1.0;"/>
        <path d="M711.077,181.541 C774.761,187.513 870.32,201.156 947.953,232 C965.245,238.87 982.741,249.859 996.769,259.881 " fill="none" style="stroke: #A80036; stroke-width: 1.0;"/>
        <polygon fill="none" points="697.989,180.38,703.6116,184.8951,709.942,181.4416,704.3193,176.9265,697.989,180.38" style="stroke: #A80036; stroke-width: 1.0;"/>
        <path d="M710.046,198.158 C725.449,206.233 739.884,217.204 748.953,232 C768.463,263.83 771.778,286.457 748.953,316 C723.118,349.44 694.595,320.796 656.953,340 C642.8,347.221 628.957,358.124 617.955,367.998 " fill="none" style="stroke: #A80036; stroke-width: 1.0;"/>
        <polygon fill="none" points="698.152,192.532,701.8655,198.7134,708.9997,197.6631,705.2862,191.4817,698.152,192.532" style="stroke: #A80036; stroke-width: 1.0;"/>
        <path d="M570.488,178.082 C416.953,181.171 63.0363,192.54 26.9533,232 C-55.573,322.249 128.673,429.706 221.562,475.96 " fill="none" style="stroke: #A80036; stroke-width: 1.0;"/>
        <polygon fill="#A80036" points="583.828,177.825,577.7518,173.9418,571.8302,178.0571,577.9065,181.9403,583.828,177.825" style="stroke: #A80036; stroke-width: 1.0;"/>
        <path d="M599.394,207.806 C577.064,224.358 549.979,244.435 529.415,259.678 " fill="none" style="stroke: #A80036; stroke-width: 1.0;"/>
        <polygon fill="#A80036" points="609.924,200,602.7219,200.3598,600.284,207.1463,607.4861,206.7865,609.924,200" style="stroke: #A80036; stroke-width: 1.0;"/>
        <path d="M570.62,177.447 C481.197,179.858 323.037,190.344 194.953,232 C174.808,238.552 154.029,249.638 137.328,259.803 " fill="none" style="stroke: #A80036; stroke-width: 1.0;"/>
        <polygon fill="#A80036" points="583.835,177.136,577.7426,173.2782,571.8383,177.4182,577.9307,181.276,583.835,177.136" style="stroke: #A80036; stroke-width: 1.0;"/>
        <path d="M711.384,180.271 C824.819,186.358 1042.4,201.657 1112.95,232 C1127.79,238.381 1141.81,249.582 1152.65,259.865 " fill="none" style="stroke: #A80036; stroke-width: 1.0;"/>
        <polygon fill="#A80036" points="698.083,179.573,703.8651,183.882,710.0665,180.202,704.2844,175.893,698.083,179.573" style="stroke: #A80036; stroke-width: 1.0;"/>
        <path d="M764.569,430.753 C778.712,445.744 794.532,462.514 806.952,475.678 " fill="none" style="stroke: #A80036; stroke-width: 1.0; stroke-dasharray: 7.0,7.0;"/>
        <polygon fill="none" points="759.284,435.352,750.652,416,769.468,425.745,759.284,435.352" style="stroke: #A80036; stroke-width: 1.0;"/>
        <path d="M950.722,426.486 C920.205,444.659 883.715,466.389 858.687,481.293 " fill="none" style="stroke: #A80036; stroke-width: 1.0;"/>
        <polygon fill="none" points="947.564,420.219,968.33,416,954.728,432.248,947.564,420.219" style="stroke: #A80036; stroke-width: 1.0;"/>
        <path d="M488.618,328.024 C485.677,341.579 482.539,356.038 480.014,367.678 " fill="none" style="stroke: #A80036; stroke-width: 1.0; stroke-dasharray: 7.0,7.0;"/>
        <polygon fill="none" points="481.881,326.061,492.963,308,495.562,329.03,481.881,326.061" style="stroke: #A80036; stroke-width: 1.0;"/>
        <path d="M637.828,325.134 C628.477,339.499 618.253,355.207 610.134,367.678 " fill="none" style="stroke: #A80036; stroke-width: 1.0; stroke-dasharray: 7.0,7.0;"/>
        <polygon fill="none" points="632.204,320.943,648.981,308,643.937,328.581,632.204,320.943" style="stroke: #A80036; stroke-width: 1.0;"/>
        <path d="M805.102,392 C797.779,392 790.456,392 783.133,392 " fill="none" style="stroke: #A80036; stroke-width: 1.0;"/>
        <polygon fill="#A80036" points="818.283,392,812.283,388,806.283,392,812.283,396,818.283,392" style="stroke: #A80036; stroke-width: 1.0;"/>
        <text fill="#000000" font-family="sans-serif" font-size="13" lengthAdjust="spacingAndGlyphs" textLength="7" x="803.5737" y="388.4926">3</text>
        <path d="M936.956,420.86 C939.979,421.97 942.989,423.024 945.953,424 C991.421,438.976 1008.43,426.009 1050.95,448 C1064.4,454.954 1077.17,465.828 1087.21,475.752 " fill="none" style="stroke: #A80036; stroke-width: 1.0;"/>
        <polygon fill="#A80036" points="924.535,416.042,928.6823,421.9412,935.7228,420.3818,931.5755,414.4826,924.535,416.042" style="stroke: #A80036; stroke-width: 1.0;"/>
        <path d="M918.788,424.004 C928.655,431.531 938.884,439.786 947.953,448 C957.413,456.568 967.097,466.784 975.198,475.815 " fill="none" style="stroke: #A80036; stroke-width: 1.0;"/>
        <polygon fill="#A80036" points="908.296,416.158,910.7062,422.9544,917.9067,423.3436,915.4966,416.5472,908.296,416.158" style="stroke: #A80036; stroke-width: 1.0;"/>
        <path d="M436.454,313.592 C399.86,330.605 354.031,351.911 319.723,367.862 " fill="none" style="stroke: #A80036; stroke-width: 1.0;"/>
        <polygon fill="#A80036" points="448.481,308,441.3539,306.9027,437.5998,313.0595,444.7269,314.1568,448.481,308" style="stroke: #A80036; stroke-width: 1.0;"/>
        <path d="M502.816,358.429 C515.508,345.96 531.672,333.511 549.453,328 C598.91,312.672 732.996,312.672 782.453,328 C807.635,335.804 831.981,353.175 849.37,367.853 " fill="none" style="stroke: #A80036; stroke-width: 1.0;"/>
        <polygon fill="#A80036" points="493.817,367.852,500.8536,366.275,502.1042,359.1732,495.0677,360.7502,493.817,367.852" style="stroke: #A80036; stroke-width: 1.0;"/>
        <path d="M421.969,392 C390.917,392 359.864,392 328.811,392 " fill="none" style="stroke: #A80036; stroke-width: 1.0;"/>
        <polygon fill="#A80036" points="435.278,392,429.278,388,423.278,392,429.278,396,435.278,392" style="stroke: #A80036; stroke-width: 1.0;"/>
        <path d="M423.325,419.826 C389.987,437.149 347.063,459.453 315.274,475.97 " fill="none" style="stroke: #A80036; stroke-width: 1.0;"/>
        <polygon fill="#A80036" points="435.136,413.69,427.9675,412.9072,424.4878,419.2231,431.6563,420.006,435.136,413.69" style="stroke: #A80036; stroke-width: 1.0;"/>
        <path d="M521.895,423.157 C547.953,439.897 579.863,460.397 603.936,475.862 " fill="none" style="stroke: #A80036; stroke-width: 1.0;"/>
        <polygon fill="#A80036" points="510.756,416,513.6417,422.6085,520.8518,422.4866,517.9661,415.878,510.756,416" style="stroke: #A80036; stroke-width: 1.0;"/>
        <path d="M488.473,428.342 C503.142,461.35 529.959,508.893 569.953,532 C630.357,566.898 817.754,531.192 882.953,556 C899.075,562.134 914.57,573.449 926.59,583.866 " fill="none" style="stroke: #A80036; stroke-width: 1.0;"/>
        <polygon fill="none" points="483.271,416.057,481.9268,423.1417,487.9496,427.1074,489.2938,420.0226,483.271,416.057" style="stroke: #A80036; stroke-width: 1.0;"/>
        <path d="M574.29,500 C492.517,500 410.743,500 328.97,500 " fill="none" style="stroke: #A80036; stroke-width: 1.0;"/>
        <polygon fill="#A80036" points="587.414,500,581.414,496,575.414,500,581.414,504,587.414,500" style="stroke: #A80036; stroke-width: 1.0;"/>
        <path d="M1403.56,433.613 C1411.48,447.848 1420.11,463.345 1426.97,475.678 " fill="none" style="stroke: #A80036; stroke-width: 1.0; stroke-dasharray: 7.0,7.0;"/>
        <polygon fill="none" points="1397.37,436.88,1393.76,416,1409.6,430.071,1397.37,436.88" style="stroke: #A80036; stroke-width: 1.0;"/>
        <path d="M1356.57,427.007 C1345.18,442.894 1331.91,461.405 1321.67,475.678 " fill="none" style="stroke: #A80036; stroke-width: 1.0;"/>
        <polygon fill="none" points="1364.46,416,1357.7137,418.547,1357.4701,425.754,1364.2164,423.207,1364.46,416" style="stroke: #A80036; stroke-width: 1.0;"/>
        <path d="M1288.8,535.935 C1281.56,551.611 1273.2,569.682 1266.73,583.678 " fill="none" style="stroke: #A80036; stroke-width: 1.0;"/>
        <polygon fill="none" points="1294.32,524,1288.1713,527.7674,1289.284,534.8922,1295.4327,531.1247,1294.32,524" style="stroke: #A80036; stroke-width: 1.0;"/>
        <path d="M1388.39,530.707 C1359.19,547.529 1323.2,568.258 1296.12,583.862 " fill="none" style="stroke: #A80036; stroke-width: 1.0;"/>
        <polygon fill="none" points="1400.03,524,1392.8344,523.5274,1389.6306,529.9877,1396.8262,530.4603,1400.03,524" style="stroke: #A80036; stroke-width: 1.0;"/>
        <path d="M288.746,308 C286.091,319.726 282.774,334.374 279.67,348.086 " fill="none" style="stroke: #A80036; stroke-width: 1.0; stroke-dasharray: 7.0,7.0;"/>
        <polygon fill="none" points="286.477,349.718,275.234,367.678,272.823,346.626,286.477,349.718" style="stroke: #A80036; stroke-width: 1.0;"/>
        <path d="M270.296,429.338 C270.441,444.681 270.605,462.098 270.733,475.678 " fill="none" style="stroke: #A80036; stroke-width: 1.0;"/>
        <polygon fill="#A80036" points="270.17,416,266.2269,422.0375,270.2834,427.9995,274.2265,421.9619,270.17,416" style="stroke: #A80036; stroke-width: 1.0;"/>
        <path d="M330.356,362.617 C361.293,349.175 400.031,334.759 436.453,328 C480.807,319.769 596.364,314.646 639.453,328 C664.085,335.634 687.627,353.014 704.379,367.739 " fill="none" style="stroke: #A80036; stroke-width: 1.0;"/>
        <polygon fill="#A80036" points="318.472,367.898,325.5793,369.1171,329.4382,363.0254,322.3309,361.8063,318.472,367.898" style="stroke: #A80036; stroke-width: 1.0;"/>
        <path d="M328.888,317.812 C335.1,324.739 341.12,332.297 345.953,340 C394.474,417.332 345.877,477.28 418.953,532 C473.729,573.017 661.119,534.108 725.953,556 C744.204,562.163 762.415,573.48 776.745,583.89 " fill="none" style="stroke: #A80036; stroke-width: 1.0;"/>
        <polygon fill="none" points="319.765,308.169,320.9825,315.2766,328.0116,316.8864,326.7941,309.7788,319.765,308.169" style="stroke: #A80036; stroke-width: 1.0;"/>
        <path d="M1002.083,436.024 C1000.548,449.579 998.911,464.038 997.593,475.678 " fill="none" style="stroke: #A80036; stroke-width: 1.0;"/>
        <polygon fill="none" points="995.144,435.086,1004.349,416,1009.06,436.661,995.144,435.086" style="stroke: #A80036; stroke-width: 1.0;"/>
        <path d="M1042.93,430.753 C1057.21,445.744 1073.19,462.514 1085.73,475.678 " fill="none" style="stroke: #A80036; stroke-width: 1.0;"/>
        <polygon fill="none" points="1037.6,435.309,1028.87,416,1047.73,425.651,1037.6,435.309" style="stroke: #A80036; stroke-width: 1.0;"/>
        <path d="M1026.66,533.626 C1042.38,549.812 1061.02,568.989 1075.29,583.678 " fill="none" style="stroke: #A80036; stroke-width: 1.0;"/>
        <polygon fill="none" points="1017.3,524,1018.6108,531.091,1025.6605,532.6083,1024.3497,525.5173,1017.3,524" style="stroke: #A80036; stroke-width: 1.0;"/>
        <path d="M1104.53,537.338 C1103.08,552.681 1101.43,570.098 1100.15,583.678 " fill="none" style="stroke: #A80036; stroke-width: 1.0;"/>
        <polygon fill="none" points="1105.78,524,1101.2346,529.5981,1104.6539,535.947,1109.1993,530.3489,1105.78,524" style="stroke: #A80036; stroke-width: 1.0;"/>
        <path d="M1565.95,328.024 C1565.95,341.579 1565.95,356.038 1565.95,367.678 " fill="none" style="stroke: #A80036; stroke-width: 1.0; stroke-dasharray: 7.0,7.0;"/>
        <polygon fill="none" points="1558.95,328,1565.95,308,1572.95,328,1558.95,328" style="stroke: #A80036; stroke-width: 1.0;"/>
        <path d="M697.643,632 C730.091,647.02 772.892,666.8321 808.54,683.3329 " fill="none" style="stroke: #A80036; stroke-width: 1.0;"/>
        <polygon fill="none" points="811.756,677.1079,826.966,691.8617,805.875,689.8128,811.756,677.1079" style="stroke: #A80036; stroke-width: 1.0;"/>
        <path d="M1196.72,626.837 C1190.72,628.6 1184.72,630.346 1178.95,632 C1101.23,654.284 1011.92,678.6828 950.691,695.2217 " fill="none" style="stroke: #A80036; stroke-width: 1.0;"/>
        <polygon fill="none" points="952.195,702.0661,931.062,700.5148,948.55,688.5489,952.195,702.0661" style="stroke: #A80036; stroke-width: 1.0;"/>
        <path d="M820.576,632 C829.103,644.554 839.905,660.456 849.766,674.9741 " fill="none" style="stroke: #A80036; stroke-width: 1.0;"/>
        <polygon fill="none" points="855.665,671.2009,861.112,691.6784,844.084,679.0673,855.665,671.2009" style="stroke: #A80036; stroke-width: 1.0;"/>
        <path d="M1050,632 C1018.83,646.951 977.759,666.6496 943.452,683.1045 " fill="none" style="stroke: #A80036; stroke-width: 1.0;"/>
        <polygon fill="none" points="946.255,689.5239,925.195,691.8617,940.2,676.9008,946.255,689.5239" style="stroke: #A80036; stroke-width: 1.0;"/>
        <path d="M934.113,632 C925.468,644.554 914.517,660.456 904.518,674.9741 " fill="none" style="stroke: #A80036; stroke-width: 1.0;"/>
        <polygon fill="none" points="910.123,679.177,893.014,691.6784,898.593,671.2363,910.123,679.177" style="stroke: #A80036; stroke-width: 1.0;"/>
        <path d="M809.712,706.3671 C728.437,694.392 598.924,669.8429 569.953,632 C520.501,567.403 560.892,462.544 582.948,416.24 " fill="none" style="stroke: #A80036; stroke-width: 1.0;"/>
        <polygon fill="#A80036" points="822.811,708.2502,817.4413,703.4371,810.9331,706.5425,816.3028,711.3556,822.811,708.2502" style="stroke: #A80036; stroke-width: 1.0;"/>
    </g>
</svg>
