<?xml version="1.0" encoding="UTF-8"?><svg xmlns="http://www.w3.org/2000/svg" xmlns:xlink="http://www.w3.org/1999/xlink" height="1187pt" style="width:1287px;height:1187px;" version="1.1" viewBox="0 0 1287 1187" width="1287pt">
    <defs>
        <filter height="300%" id="f1" width="300%" x="-1" y="-1">
            <feGaussianBlur result="blurOut" stdDeviation="2.0"/>
            <feColorMatrix in="blurOut" result="blurOut2" type="matrix" values="0 0 0 0 0 0 0 0 0 0 0 0 0 0 0 0 0 0 .4 0"/>
            <feOffset dx="4.0" dy="4.0" in="blurOut2" result="blurOut3"/>
            <feBlend in="SourceGraphic" in2="blurOut3" mode="normal"/>
        </filter>
    </defs>
    <g>
        <polygon fill="#FFFFFF" filter="url(#f1)" points="854,232,874,232,881,255.6094,1131,255.6094,1131,316,854,316,854,232" style="stroke: #000000; stroke-width: 2.0;"/>
        <line style="stroke: #000000; stroke-width: 2.0;" x1="854" x2="881" y1="255.6094" y2="255.6094"/>
        <text fill="#000000" font-family="sans-serif" font-size="14" font-weight="bold" lengthAdjust="spacingAndGlyphs" textLength="14" x="857" y="249.5332">DI</text>
        <polygon fill="#FFFFFF" filter="url(#f1)" points="193,772,303,772,310,795.6094,325,795.6094,325,1072,193,1072,193,772" style="stroke: #000000; stroke-width: 2.0;"/>
        <line style="stroke: #000000; stroke-width: 2.0;" x1="193" x2="310" y1="795.6094" y2="795.6094"/>
        <text fill="#000000" font-family="sans-serif" font-size="14" font-weight="bold" lengthAdjust="spacingAndGlyphs" textLength="104" x="196" y="789.5332">Jepi.Fw.Config</text>
        <polygon fill="#FFFFFF" filter="url(#f1)" points="354,988,496,988,503,1011.6094,1098,1011.6094,1098,1180,354,1180,354,988" style="stroke: #000000; stroke-width: 2.0;"/>
        <line style="stroke: #000000; stroke-width: 2.0;" x1="354" x2="503" y1="1011.6094" y2="1011.6094"/>
        <text fill="#000000" font-family="sans-serif" font-size="14" font-weight="bold" lengthAdjust="spacingAndGlyphs" textLength="136" x="357" y="1005.5332">Jepi.Fw.Exceptions</text>
        <polygon fill="#FFFFFF" filter="url(#f1)" points="685,232,820,232,827,255.6094,835,255.6094,835,424,685,424,685,232" style="stroke: #000000; stroke-width: 2.0;"/>
        <line style="stroke: #000000; stroke-width: 2.0;" x1="685" x2="827" y1="255.6094" y2="255.6094"/>
        <text fill="#000000" font-family="sans-serif" font-size="14" font-weight="bold" lengthAdjust="spacingAndGlyphs" textLength="129" x="688" y="249.5332">Jepi.Fw.Controller</text>
        <polygon fill="#FFFFFF" filter="url(#f1)" points="174,340,286,340,293,363.6094,308,363.6094,308,532,174,532,174,340" style="stroke: #000000; stroke-width: 2.0;"/>
        <line style="stroke: #000000; stroke-width: 2.0;" x1="174" x2="293" y1="363.6094" y2="363.6094"/>
        <text fill="#000000" font-family="sans-serif" font-size="14" font-weight="bold" lengthAdjust="spacingAndGlyphs" textLength="106" x="177" y="357.5332">Jepi.Fw.Router</text>
        <polygon fill="#FFFFFF" filter="url(#f1)" points="642,880,761,880,768,903.6094,849,903.6094,849,964,642,964,642,880" style="stroke: #000000; stroke-width: 2.0;"/>
        <line style="stroke: #000000; stroke-width: 2.0;" x1="642" x2="768" y1="903.6094" y2="903.6094"/>
        <text fill="#000000" font-family="sans-serif" font-size="14" font-weight="bold" lengthAdjust="spacingAndGlyphs" textLength="113" x="645" y="897.5332">Jepi.Fw.Storage</text>
        <polygon fill="#FFFFFF" filter="url(#f1)" points="899,448,996,448,1003,471.6094,1021,471.6094,1021,640,899,640,899,448" style="stroke: #000000; stroke-width: 2.0;"/>
        <line style="stroke: #000000; stroke-width: 2.0;" x1="899" x2="1003" y1="471.6094" y2="471.6094"/>
        <text fill="#000000" font-family="sans-serif" font-size="14" font-weight="bold" lengthAdjust="spacingAndGlyphs" textLength="91" x="902" y="465.5332">Jepi.Fw.View</text>
        <polygon fill="#FFFFFF" filter="url(#f1)" points="1029,556,1137,556,1144,579.6094,1280,579.6094,1280,748,1029,748,1029,556" style="stroke: #000000; stroke-width: 2.0;"/>
        <line style="stroke: #000000; stroke-width: 2.0;" x1="1029" x2="1144" y1="579.6094" y2="579.6094"/>
        <text fill="#000000" font-family="sans-serif" font-size="14" font-weight="bold" lengthAdjust="spacingAndGlyphs" textLength="102" x="1032" y="573.5332">Jepi.Fw.Model</text>
        <polygon fill="#FFFFFF" filter="url(#f1)" points="389,16,562,16,569,39.6094,572,39.6094,572,208,389,208,389,16" style="stroke: #000000; stroke-width: 2.0;"/>
        <line style="stroke: #000000; stroke-width: 2.0;" x1="389" x2="569" y1="39.6094" y2="39.6094"/>
        <text fill="#000000" font-family="sans-serif" font-size="14" font-weight="bold" lengthAdjust="spacingAndGlyphs" textLength="167" x="392" y="33.5332">Jepi.Fw.FrontController</text>
        <polygon fill="#FFFFFF" filter="url(#f1)" points="316,448,395,448,402,471.6094,828,471.6094,828,748,316,748,316,448" style="stroke: #000000; stroke-width: 2.0;"/>
        <line style="stroke: #000000; stroke-width: 2.0;" x1="316" x2="402" y1="471.6094" y2="471.6094"/>
        <text fill="#000000" font-family="sans-serif" font-size="14" font-weight="bold" lengthAdjust="spacingAndGlyphs" textLength="73" x="319" y="465.5332">Jepi.Fw.IO</text>
        <polygon fill="#FFFFFF" filter="url(#f1)" points="219,232,345,232,352,255.6094,355,255.6094,355,316,219,316,219,232" style="stroke: #000000; stroke-width: 2.0;"/>
        <line style="stroke: #000000; stroke-width: 2.0;" x1="219" x2="352" y1="255.6094" y2="255.6094"/>
        <text fill="#000000" font-family="sans-serif" font-size="14" font-weight="bold" lengthAdjust="spacingAndGlyphs" textLength="120" x="222" y="249.5332">Jepi.Fw.Libraries</text>
        <polygon fill="#FFFFFF" filter="url(#f1)" points="564,772,685,772,692,795.6094,695,795.6094,695,856,564,856,564,772" style="stroke: #000000; stroke-width: 2.0;"/>
        <line style="stroke: #000000; stroke-width: 2.0;" x1="564" x2="692" y1="795.6094" y2="795.6094"/>
        <text fill="#000000" font-family="sans-serif" font-size="14" font-weight="bold" lengthAdjust="spacingAndGlyphs" textLength="115" x="567" y="789.5332">Jepi.Fw.Security</text>
        <rect fill="#FEFECE" filter="url(#f1)" height="48" style="stroke: #A80036; stroke-width: 1.5;" width="86" x="862" y="260"/>
        <ellipse cx="877" cy="276" fill="#ADD1B2" rx="11" ry="11" style="stroke: #A80036; stroke-width: 1.0;"/>
        <path d="M879.7656,271.875 Q879.9219,271.6563 880.1094,271.5469 Q880.2969,271.4375 880.5156,271.4375 Q880.8906,271.4375 881.125,271.6953 Q881.3594,271.9531 881.3594,272.5625 L881.3594,274.0156 Q881.3594,274.625 881.125,274.8906 Q880.8906,275.1563 880.5156,275.1563 Q880.1719,275.1563 879.9688,274.9531 Q879.7656,274.7656 879.6563,274.25 Q879.6094,273.8906 879.4219,273.7031 Q879.0938,273.3281 878.4844,273.1094 Q877.875,272.8906 877.25,272.8906 Q876.4844,272.8906 875.8516,273.2188 Q875.2188,273.5469 874.7266,274.2969 Q874.2344,275.0469 874.2344,276.0781 L874.2344,277.1719 Q874.2344,278.4063 875.125,279.2266 Q876.0156,280.0469 877.6094,280.0469 Q878.5469,280.0469 879.2031,279.7969 Q879.5938,279.6406 880.0156,279.2031 Q880.2813,278.9375 880.4297,278.8594 Q880.5781,278.7813 880.7813,278.7813 Q881.1094,278.7813 881.3672,279.0391 Q881.625,279.2969 881.625,279.6406 Q881.625,279.9844 881.2813,280.3906 Q880.7813,280.9688 879.9844,281.2969 Q878.9063,281.75 877.6094,281.75 Q876.0938,281.75 874.8906,281.125 Q873.9063,280.625 873.2188,279.5547 Q872.5313,278.4844 872.5313,277.2031 L872.5313,276.0469 Q872.5313,274.7188 873.1484,273.5703 Q873.7656,272.4219 874.8594,271.8047 Q875.9531,271.1875 877.1875,271.1875 Q877.9219,271.1875 878.5703,271.3516 Q879.2188,271.5156 879.7656,271.875 Z "/>
        <text fill="#000000" font-family="sans-serif" font-size="12" lengthAdjust="spacingAndGlyphs" textLength="54" x="891" y="280.9102">Container</text>
        <line style="stroke: #A80036; stroke-width: 1.5;" x1="863" x2="947" y1="292" y2="292"/>
        <line style="stroke: #A80036; stroke-width: 1.5;" x1="863" x2="947" y1="300" y2="300"/>
        <rect fill="#FEFECE" filter="url(#f1)" height="48" style="stroke: #A80036; stroke-width: 1.5;" width="139" x="983.5" y="260"/>
        <ellipse cx="998.5" cy="276" fill="#ADD1B2" rx="11" ry="11" style="stroke: #A80036; stroke-width: 1.0;"/>
        <path d="M1001.2656,271.875 Q1001.4219,271.6563 1001.6094,271.5469 Q1001.7969,271.4375 1002.0156,271.4375 Q1002.3906,271.4375 1002.625,271.6953 Q1002.8594,271.9531 1002.8594,272.5625 L1002.8594,274.0156 Q1002.8594,274.625 1002.625,274.8906 Q1002.3906,275.1563 1002.0156,275.1563 Q1001.6719,275.1563 1001.4688,274.9531 Q1001.2656,274.7656 1001.1563,274.25 Q1001.1094,273.8906 1000.9219,273.7031 Q1000.5938,273.3281 999.9844,273.1094 Q999.375,272.8906 998.75,272.8906 Q997.9844,272.8906 997.3516,273.2188 Q996.7188,273.5469 996.2266,274.2969 Q995.7344,275.0469 995.7344,276.0781 L995.7344,277.1719 Q995.7344,278.4063 996.625,279.2266 Q997.5156,280.0469 999.1094,280.0469 Q1000.0469,280.0469 1000.7031,279.7969 Q1001.0938,279.6406 1001.5156,279.2031 Q1001.7813,278.9375 1001.9297,278.8594 Q1002.0781,278.7813 1002.2813,278.7813 Q1002.6094,278.7813 1002.8672,279.0391 Q1003.125,279.2969 1003.125,279.6406 Q1003.125,279.9844 1002.7813,280.3906 Q1002.2813,280.9688 1001.4844,281.2969 Q1000.4063,281.75 999.1094,281.75 Q997.5938,281.75 996.3906,281.125 Q995.4063,280.625 994.7188,279.5547 Q994.0313,278.4844 994.0313,277.2031 L994.0313,276.0469 Q994.0313,274.7188 994.6484,273.5703 Q995.2656,272.4219 996.3594,271.8047 Q997.4531,271.1875 998.6875,271.1875 Q999.4219,271.1875 1000.0703,271.3516 Q1000.7188,271.5156 1001.2656,271.875 Z "/>
        <text fill="#000000" font-family="sans-serif" font-size="12" lengthAdjust="spacingAndGlyphs" textLength="107" x="1012.5" y="280.9102">NotFoundException</text>
        <line style="stroke: #A80036; stroke-width: 1.5;" x1="984.5" x2="1121.5" y1="292" y2="292"/>
        <line style="stroke: #A80036; stroke-width: 1.5;" x1="984.5" x2="1121.5" y1="300" y2="300"/>
        <rect fill="#FEFECE" filter="url(#f1)" height="48" style="stroke: #A80036; stroke-width: 1.5;" width="116" x="201" y="800"/>
        <ellipse cx="216" cy="816" fill="#B4A7E5" rx="11" ry="11" style="stroke: #A80036; stroke-width: 1.0;"/>
        <path d="M216.9531,812.6406 L216.9531,819.2969 L218.6719,819.2969 Q219.2813,819.2969 219.5469,819.5313 Q219.8125,819.7656 219.8125,820.1563 Q219.8125,820.5313 219.5469,820.7656 Q219.2813,821 218.6719,821 L213.5313,821 Q212.9219,821 212.6563,820.7656 Q212.3906,820.5313 212.3906,820.1406 Q212.3906,819.7656 212.6563,819.5313 Q212.9219,819.2969 213.5313,819.2969 L215.25,819.2969 L215.25,812.6406 L213.5313,812.6406 Q212.9219,812.6406 212.6563,812.4063 Q212.3906,812.1719 212.3906,811.7813 Q212.3906,811.4063 212.6563,811.1719 Q212.9219,810.9375 213.5313,810.9375 L218.6719,810.9375 Q219.2813,810.9375 219.5469,811.1719 Q219.8125,811.4063 219.8125,811.7813 Q219.8125,812.1719 219.5469,812.4063 Q219.2813,812.6406 218.6719,812.6406 L216.9531,812.6406 Z "/>
        <text fill="#000000" font-family="sans-serif" font-size="12" font-style="italic" lengthAdjust="spacingAndGlyphs" textLength="84" x="230" y="820.9102">ConfigInterface</text>
        <line style="stroke: #A80036; stroke-width: 1.5;" x1="202" x2="316" y1="832" y2="832"/>
        <line style="stroke: #A80036; stroke-width: 1.5;" x1="202" x2="316" y1="840" y2="840"/>
        <rect fill="#FEFECE" filter="url(#f1)" height="48" style="stroke: #A80036; stroke-width: 1.5;" width="113" x="202.5" y="908"/>
        <ellipse cx="217.5" cy="924" fill="#A9DCDF" rx="11" ry="11" style="stroke: #A80036; stroke-width: 1.0;"/>
        <path d="M219.6875,925.7656 L215.5469,925.7656 L215.125,926.7969 L215.5469,926.7969 Q216.1563,926.7969 216.4219,927.0313 Q216.6875,927.2656 216.6875,927.6563 Q216.6875,928.0313 216.4219,928.2656 Q216.1563,928.5 215.5469,928.5 L213.25,928.5 Q212.6406,928.5 212.3828,928.2656 Q212.125,928.0313 212.125,927.6406 Q212.125,927.2656 212.3984,927.0234 Q212.6719,926.7813 213.2969,926.7969 L215.9688,920.1406 L214.8594,920.1406 Q214.25,920.1406 213.9844,919.9063 Q213.7188,919.6719 213.7188,919.2813 Q213.7188,918.9063 213.9844,918.6719 Q214.25,918.4375 214.8594,918.4375 L218.5313,918.4375 L221.9219,926.7969 Q222.5156,926.7969 222.7031,926.9375 Q223.0938,927.2031 223.0938,927.6563 Q223.0938,928.0313 222.8359,928.2656 Q222.5781,928.5 221.9688,928.5 L219.6719,928.5 Q219.0625,928.5 218.7969,928.2656 Q218.5313,928.0313 218.5313,927.6406 Q218.5313,927.2656 218.7969,927.0313 Q219.0625,926.7969 219.6719,926.7969 L220.0938,926.7969 L219.6875,925.7656 Z M218.9688,924.0625 L217.6094,920.6875 L216.2344,924.0625 L218.9688,924.0625 Z "/>
        <text fill="#000000" font-family="sans-serif" font-size="12" font-style="italic" lengthAdjust="spacingAndGlyphs" textLength="81" x="231.5" y="928.9102">ConfigAbstract</text>
        <line style="stroke: #A80036; stroke-width: 1.5;" x1="203.5" x2="314.5" y1="940" y2="940"/>
        <line style="stroke: #A80036; stroke-width: 1.5;" x1="203.5" x2="314.5" y1="948" y2="948"/>
        <rect fill="#FEFECE" filter="url(#f1)" height="48" style="stroke: #A80036; stroke-width: 1.5;" width="68" x="225" y="1016"/>
        <ellipse cx="240" cy="1032" fill="#ADD1B2" rx="11" ry="11" style="stroke: #A80036; stroke-width: 1.0;"/>
        <path d="M242.7656,1027.875 Q242.9219,1027.6563 243.1094,1027.5469 Q243.2969,1027.4375 243.5156,1027.4375 Q243.8906,1027.4375 244.125,1027.6953 Q244.3594,1027.9531 244.3594,1028.5625 L244.3594,1030.0156 Q244.3594,1030.625 244.125,1030.8906 Q243.8906,1031.1563 243.5156,1031.1563 Q243.1719,1031.1563 242.9688,1030.9531 Q242.7656,1030.7656 242.6563,1030.25 Q242.6094,1029.8906 242.4219,1029.7031 Q242.0938,1029.3281 241.4844,1029.1094 Q240.875,1028.8906 240.25,1028.8906 Q239.4844,1028.8906 238.8516,1029.2188 Q238.2188,1029.5469 237.7266,1030.2969 Q237.2344,1031.0469 237.2344,1032.0781 L237.2344,1033.1719 Q237.2344,1034.4063 238.125,1035.2266 Q239.0156,1036.0469 240.6094,1036.0469 Q241.5469,1036.0469 242.2031,1035.7969 Q242.5938,1035.6406 243.0156,1035.2031 Q243.2813,1034.9375 243.4297,1034.8594 Q243.5781,1034.7813 243.7813,1034.7813 Q244.1094,1034.7813 244.3672,1035.0391 Q244.625,1035.2969 244.625,1035.6406 Q244.625,1035.9844 244.2813,1036.3906 Q243.7813,1036.9688 242.9844,1037.2969 Q241.9063,1037.75 240.6094,1037.75 Q239.0938,1037.75 237.8906,1037.125 Q236.9063,1036.625 236.2188,1035.5547 Q235.5313,1034.4844 235.5313,1033.2031 L235.5313,1032.0469 Q235.5313,1030.7188 236.1484,1029.5703 Q236.7656,1028.4219 237.8594,1027.8047 Q238.9531,1027.1875 240.1875,1027.1875 Q240.9219,1027.1875 241.5703,1027.3516 Q242.2188,1027.5156 242.7656,1027.875 Z "/>
        <text fill="#000000" font-family="sans-serif" font-size="12" lengthAdjust="spacingAndGlyphs" textLength="36" x="254" y="1036.9102">Config</text>
        <line style="stroke: #A80036; stroke-width: 1.5;" x1="226" x2="292" y1="1048" y2="1048"/>
        <line style="stroke: #A80036; stroke-width: 1.5;" x1="226" x2="292" y1="1056" y2="1056"/>
        <rect fill="#FEFECE" filter="url(#f1)" height="48" style="stroke: #A80036; stroke-width: 1.5;" width="121" x="362.5" y="1016"/>
        <ellipse cx="377.5" cy="1032" fill="#ADD1B2" rx="11" ry="11" style="stroke: #A80036; stroke-width: 1.0;"/>
        <path d="M380.2656,1027.875 Q380.4219,1027.6563 380.6094,1027.5469 Q380.7969,1027.4375 381.0156,1027.4375 Q381.3906,1027.4375 381.625,1027.6953 Q381.8594,1027.9531 381.8594,1028.5625 L381.8594,1030.0156 Q381.8594,1030.625 381.625,1030.8906 Q381.3906,1031.1563 381.0156,1031.1563 Q380.6719,1031.1563 380.4688,1030.9531 Q380.2656,1030.7656 380.1563,1030.25 Q380.1094,1029.8906 379.9219,1029.7031 Q379.5938,1029.3281 378.9844,1029.1094 Q378.375,1028.8906 377.75,1028.8906 Q376.9844,1028.8906 376.3516,1029.2188 Q375.7188,1029.5469 375.2266,1030.2969 Q374.7344,1031.0469 374.7344,1032.0781 L374.7344,1033.1719 Q374.7344,1034.4063 375.625,1035.2266 Q376.5156,1036.0469 378.1094,1036.0469 Q379.0469,1036.0469 379.7031,1035.7969 Q380.0938,1035.6406 380.5156,1035.2031 Q380.7813,1034.9375 380.9297,1034.8594 Q381.0781,1034.7813 381.2813,1034.7813 Q381.6094,1034.7813 381.8672,1035.0391 Q382.125,1035.2969 382.125,1035.6406 Q382.125,1035.9844 381.7813,1036.3906 Q381.2813,1036.9688 380.4844,1037.2969 Q379.4063,1037.75 378.1094,1037.75 Q376.5938,1037.75 375.3906,1037.125 Q374.4063,1036.625 373.7188,1035.5547 Q373.0313,1034.4844 373.0313,1033.2031 L373.0313,1032.0469 Q373.0313,1030.7188 373.6484,1029.5703 Q374.2656,1028.4219 375.3594,1027.8047 Q376.4531,1027.1875 377.6875,1027.1875 Q378.4219,1027.1875 379.0703,1027.3516 Q379.7188,1027.5156 380.2656,1027.875 Z "/>
        <text fill="#000000" font-family="sans-serif" font-size="12" lengthAdjust="spacingAndGlyphs" textLength="89" x="391.5" y="1036.9102">ConfigException</text>
        <line style="stroke: #A80036; stroke-width: 1.5;" x1="363.5" x2="482.5" y1="1048" y2="1048"/>
        <line style="stroke: #A80036; stroke-width: 1.5;" x1="363.5" x2="482.5" y1="1056" y2="1056"/>
        <rect fill="#FEFECE" filter="url(#f1)" height="48" style="stroke: #A80036; stroke-width: 1.5;" width="97" x="839.5" y="1016"/>
        <ellipse cx="854.5" cy="1032" fill="#ADD1B2" rx="11" ry="11" style="stroke: #A80036; stroke-width: 1.0;"/>
        <path d="M857.2656,1027.875 Q857.4219,1027.6563 857.6094,1027.5469 Q857.7969,1027.4375 858.0156,1027.4375 Q858.3906,1027.4375 858.625,1027.6953 Q858.8594,1027.9531 858.8594,1028.5625 L858.8594,1030.0156 Q858.8594,1030.625 858.625,1030.8906 Q858.3906,1031.1563 858.0156,1031.1563 Q857.6719,1031.1563 857.4688,1030.9531 Q857.2656,1030.7656 857.1563,1030.25 Q857.1094,1029.8906 856.9219,1029.7031 Q856.5938,1029.3281 855.9844,1029.1094 Q855.375,1028.8906 854.75,1028.8906 Q853.9844,1028.8906 853.3516,1029.2188 Q852.7188,1029.5469 852.2266,1030.2969 Q851.7344,1031.0469 851.7344,1032.0781 L851.7344,1033.1719 Q851.7344,1034.4063 852.625,1035.2266 Q853.5156,1036.0469 855.1094,1036.0469 Q856.0469,1036.0469 856.7031,1035.7969 Q857.0938,1035.6406 857.5156,1035.2031 Q857.7813,1034.9375 857.9297,1034.8594 Q858.0781,1034.7813 858.2813,1034.7813 Q858.6094,1034.7813 858.8672,1035.0391 Q859.125,1035.2969 859.125,1035.6406 Q859.125,1035.9844 858.7813,1036.3906 Q858.2813,1036.9688 857.4844,1037.2969 Q856.4063,1037.75 855.1094,1037.75 Q853.5938,1037.75 852.3906,1037.125 Q851.4063,1036.625 850.7188,1035.5547 Q850.0313,1034.4844 850.0313,1033.2031 L850.0313,1032.0469 Q850.0313,1030.7188 850.6484,1029.5703 Q851.2656,1028.4219 852.3594,1027.8047 Q853.4531,1027.1875 854.6875,1027.1875 Q855.4219,1027.1875 856.0703,1027.3516 Q856.7188,1027.5156 857.2656,1027.875 Z "/>
        <text fill="#000000" font-family="sans-serif" font-size="12" lengthAdjust="spacingAndGlyphs" textLength="65" x="868.5" y="1036.9102">IOException</text>
        <line style="stroke: #A80036; stroke-width: 1.5;" x1="840.5" x2="935.5" y1="1048" y2="1048"/>
        <line style="stroke: #A80036; stroke-width: 1.5;" x1="840.5" x2="935.5" y1="1056" y2="1056"/>
        <rect fill="#FEFECE" filter="url(#f1)" height="48" style="stroke: #A80036; stroke-width: 1.5;" width="118" x="972" y="1016"/>
        <ellipse cx="987" cy="1032" fill="#ADD1B2" rx="11" ry="11" style="stroke: #A80036; stroke-width: 1.0;"/>
        <path d="M989.7656,1027.875 Q989.9219,1027.6563 990.1094,1027.5469 Q990.2969,1027.4375 990.5156,1027.4375 Q990.8906,1027.4375 991.125,1027.6953 Q991.3594,1027.9531 991.3594,1028.5625 L991.3594,1030.0156 Q991.3594,1030.625 991.125,1030.8906 Q990.8906,1031.1563 990.5156,1031.1563 Q990.1719,1031.1563 989.9688,1030.9531 Q989.7656,1030.7656 989.6563,1030.25 Q989.6094,1029.8906 989.4219,1029.7031 Q989.0938,1029.3281 988.4844,1029.1094 Q987.875,1028.8906 987.25,1028.8906 Q986.4844,1028.8906 985.8516,1029.2188 Q985.2188,1029.5469 984.7266,1030.2969 Q984.2344,1031.0469 984.2344,1032.0781 L984.2344,1033.1719 Q984.2344,1034.4063 985.125,1035.2266 Q986.0156,1036.0469 987.6094,1036.0469 Q988.5469,1036.0469 989.2031,1035.7969 Q989.5938,1035.6406 990.0156,1035.2031 Q990.2813,1034.9375 990.4297,1034.8594 Q990.5781,1034.7813 990.7813,1034.7813 Q991.1094,1034.7813 991.3672,1035.0391 Q991.625,1035.2969 991.625,1035.6406 Q991.625,1035.9844 991.2813,1036.3906 Q990.7813,1036.9688 989.9844,1037.2969 Q988.9063,1037.75 987.6094,1037.75 Q986.0938,1037.75 984.8906,1037.125 Q983.9063,1036.625 983.2188,1035.5547 Q982.5313,1034.4844 982.5313,1033.2031 L982.5313,1032.0469 Q982.5313,1030.7188 983.1484,1029.5703 Q983.7656,1028.4219 984.8594,1027.8047 Q985.9531,1027.1875 987.1875,1027.1875 Q987.9219,1027.1875 988.5703,1027.3516 Q989.2188,1027.5156 989.7656,1027.875 Z "/>
        <text fill="#000000" font-family="sans-serif" font-size="12" lengthAdjust="spacingAndGlyphs" textLength="86" x="1001" y="1036.9102">ModelException</text>
        <line style="stroke: #A80036; stroke-width: 1.5;" x1="973" x2="1089" y1="1048" y2="1048"/>
        <line style="stroke: #A80036; stroke-width: 1.5;" x1="973" x2="1089" y1="1056" y2="1056"/>
        <rect fill="#FEFECE" filter="url(#f1)" height="48" style="stroke: #A80036; stroke-width: 1.5;" width="122" x="519" y="1016"/>
        <ellipse cx="534" cy="1032" fill="#ADD1B2" rx="11" ry="11" style="stroke: #A80036; stroke-width: 1.0;"/>
        <path d="M536.7656,1027.875 Q536.9219,1027.6563 537.1094,1027.5469 Q537.2969,1027.4375 537.5156,1027.4375 Q537.8906,1027.4375 538.125,1027.6953 Q538.3594,1027.9531 538.3594,1028.5625 L538.3594,1030.0156 Q538.3594,1030.625 538.125,1030.8906 Q537.8906,1031.1563 537.5156,1031.1563 Q537.1719,1031.1563 536.9688,1030.9531 Q536.7656,1030.7656 536.6563,1030.25 Q536.6094,1029.8906 536.4219,1029.7031 Q536.0938,1029.3281 535.4844,1029.1094 Q534.875,1028.8906 534.25,1028.8906 Q533.4844,1028.8906 532.8516,1029.2188 Q532.2188,1029.5469 531.7266,1030.2969 Q531.2344,1031.0469 531.2344,1032.0781 L531.2344,1033.1719 Q531.2344,1034.4063 532.125,1035.2266 Q533.0156,1036.0469 534.6094,1036.0469 Q535.5469,1036.0469 536.2031,1035.7969 Q536.5938,1035.6406 537.0156,1035.2031 Q537.2813,1034.9375 537.4297,1034.8594 Q537.5781,1034.7813 537.7813,1034.7813 Q538.1094,1034.7813 538.3672,1035.0391 Q538.625,1035.2969 538.625,1035.6406 Q538.625,1035.9844 538.2813,1036.3906 Q537.7813,1036.9688 536.9844,1037.2969 Q535.9063,1037.75 534.6094,1037.75 Q533.0938,1037.75 531.8906,1037.125 Q530.9063,1036.625 530.2188,1035.5547 Q529.5313,1034.4844 529.5313,1033.2031 L529.5313,1032.0469 Q529.5313,1030.7188 530.1484,1029.5703 Q530.7656,1028.4219 531.8594,1027.8047 Q532.9531,1027.1875 534.1875,1027.1875 Q534.9219,1027.1875 535.5703,1027.3516 Q536.2188,1027.5156 536.7656,1027.875 Z "/>
        <text fill="#000000" font-family="sans-serif" font-size="12" lengthAdjust="spacingAndGlyphs" textLength="90" x="548" y="1036.9102">RouterException</text>
        <line style="stroke: #A80036; stroke-width: 1.5;" x1="520" x2="640" y1="1048" y2="1048"/>
        <line style="stroke: #A80036; stroke-width: 1.5;" x1="520" x2="640" y1="1056" y2="1056"/>
        <rect fill="#FEFECE" filter="url(#f1)" height="48" style="stroke: #A80036; stroke-width: 1.5;" width="128" x="676" y="1016"/>
        <ellipse cx="691" cy="1032" fill="#ADD1B2" rx="11" ry="11" style="stroke: #A80036; stroke-width: 1.0;"/>
        <path d="M693.7656,1027.875 Q693.9219,1027.6563 694.1094,1027.5469 Q694.2969,1027.4375 694.5156,1027.4375 Q694.8906,1027.4375 695.125,1027.6953 Q695.3594,1027.9531 695.3594,1028.5625 L695.3594,1030.0156 Q695.3594,1030.625 695.125,1030.8906 Q694.8906,1031.1563 694.5156,1031.1563 Q694.1719,1031.1563 693.9688,1030.9531 Q693.7656,1030.7656 693.6563,1030.25 Q693.6094,1029.8906 693.4219,1029.7031 Q693.0938,1029.3281 692.4844,1029.1094 Q691.875,1028.8906 691.25,1028.8906 Q690.4844,1028.8906 689.8516,1029.2188 Q689.2188,1029.5469 688.7266,1030.2969 Q688.2344,1031.0469 688.2344,1032.0781 L688.2344,1033.1719 Q688.2344,1034.4063 689.125,1035.2266 Q690.0156,1036.0469 691.6094,1036.0469 Q692.5469,1036.0469 693.2031,1035.7969 Q693.5938,1035.6406 694.0156,1035.2031 Q694.2813,1034.9375 694.4297,1034.8594 Q694.5781,1034.7813 694.7813,1034.7813 Q695.1094,1034.7813 695.3672,1035.0391 Q695.625,1035.2969 695.625,1035.6406 Q695.625,1035.9844 695.2813,1036.3906 Q694.7813,1036.9688 693.9844,1037.2969 Q692.9063,1037.75 691.6094,1037.75 Q690.0938,1037.75 688.8906,1037.125 Q687.9063,1036.625 687.2188,1035.5547 Q686.5313,1034.4844 686.5313,1033.2031 L686.5313,1032.0469 Q686.5313,1030.7188 687.1484,1029.5703 Q687.7656,1028.4219 688.8594,1027.8047 Q689.9531,1027.1875 691.1875,1027.1875 Q691.9219,1027.1875 692.5703,1027.3516 Q693.2188,1027.5156 693.7656,1027.875 Z "/>
        <text fill="#000000" font-family="sans-serif" font-size="12" lengthAdjust="spacingAndGlyphs" textLength="96" x="705" y="1036.9102">StorageException</text>
        <line style="stroke: #A80036; stroke-width: 1.5;" x1="677" x2="803" y1="1048" y2="1048"/>
        <line style="stroke: #A80036; stroke-width: 1.5;" x1="677" x2="803" y1="1056" y2="1056"/>
        <rect fill="#FEFECE" filter="url(#f1)" height="48" style="stroke: #A80036; stroke-width: 1.5;" width="108" x="606" y="1124"/>
        <ellipse cx="621" cy="1140" fill="#ADD1B2" rx="11" ry="11" style="stroke: #A80036; stroke-width: 1.0;"/>
        <path d="M623.7656,1135.875 Q623.9219,1135.6563 624.1094,1135.5469 Q624.2969,1135.4375 624.5156,1135.4375 Q624.8906,1135.4375 625.125,1135.6953 Q625.3594,1135.9531 625.3594,1136.5625 L625.3594,1138.0156 Q625.3594,1138.625 625.125,1138.8906 Q624.8906,1139.1563 624.5156,1139.1563 Q624.1719,1139.1563 623.9688,1138.9531 Q623.7656,1138.7656 623.6563,1138.25 Q623.6094,1137.8906 623.4219,1137.7031 Q623.0938,1137.3281 622.4844,1137.1094 Q621.875,1136.8906 621.25,1136.8906 Q620.4844,1136.8906 619.8516,1137.2188 Q619.2188,1137.5469 618.7266,1138.2969 Q618.2344,1139.0469 618.2344,1140.0781 L618.2344,1141.1719 Q618.2344,1142.4063 619.125,1143.2266 Q620.0156,1144.0469 621.6094,1144.0469 Q622.5469,1144.0469 623.2031,1143.7969 Q623.5938,1143.6406 624.0156,1143.2031 Q624.2813,1142.9375 624.4297,1142.8594 Q624.5781,1142.7813 624.7813,1142.7813 Q625.1094,1142.7813 625.3672,1143.0391 Q625.625,1143.2969 625.625,1143.6406 Q625.625,1143.9844 625.2813,1144.3906 Q624.7813,1144.9688 623.9844,1145.2969 Q622.9063,1145.75 621.6094,1145.75 Q620.0938,1145.75 618.8906,1145.125 Q617.9063,1144.625 617.2188,1143.5547 Q616.5313,1142.4844 616.5313,1141.2031 L616.5313,1140.0469 Q616.5313,1138.7188 617.1484,1137.5703 Q617.7656,1136.4219 618.8594,1135.8047 Q619.9531,1135.1875 621.1875,1135.1875 Q621.9219,1135.1875 622.5703,1135.3516 Q623.2188,1135.5156 623.7656,1135.875 Z "/>
        <text fill="#000000" font-family="sans-serif" font-size="12" lengthAdjust="spacingAndGlyphs" textLength="76" x="635" y="1144.9102">JepiException</text>
        <line style="stroke: #A80036; stroke-width: 1.5;" x1="607" x2="713" y1="1156" y2="1156"/>
        <line style="stroke: #A80036; stroke-width: 1.5;" x1="607" x2="713" y1="1164" y2="1164"/>
        <rect fill="#FEFECE" filter="url(#f1)" height="48" style="stroke: #A80036; stroke-width: 1.5;" width="134" x="693" y="260"/>
        <ellipse cx="708" cy="276" fill="#B4A7E5" rx="11" ry="11" style="stroke: #A80036; stroke-width: 1.0;"/>
        <path d="M708.9531,272.6406 L708.9531,279.2969 L710.6719,279.2969 Q711.2813,279.2969 711.5469,279.5313 Q711.8125,279.7656 711.8125,280.1563 Q711.8125,280.5313 711.5469,280.7656 Q711.2813,281 710.6719,281 L705.5313,281 Q704.9219,281 704.6563,280.7656 Q704.3906,280.5313 704.3906,280.1406 Q704.3906,279.7656 704.6563,279.5313 Q704.9219,279.2969 705.5313,279.2969 L707.25,279.2969 L707.25,272.6406 L705.5313,272.6406 Q704.9219,272.6406 704.6563,272.4063 Q704.3906,272.1719 704.3906,271.7813 Q704.3906,271.4063 704.6563,271.1719 Q704.9219,270.9375 705.5313,270.9375 L710.6719,270.9375 Q711.2813,270.9375 711.5469,271.1719 Q711.8125,271.4063 711.8125,271.7813 Q711.8125,272.1719 711.5469,272.4063 Q711.2813,272.6406 710.6719,272.6406 L708.9531,272.6406 Z "/>
        <text fill="#000000" font-family="sans-serif" font-size="12" font-style="italic" lengthAdjust="spacingAndGlyphs" textLength="102" x="722" y="280.9102">ControllerInterface</text>
        <line style="stroke: #A80036; stroke-width: 1.5;" x1="694" x2="826" y1="292" y2="292"/>
        <line style="stroke: #A80036; stroke-width: 1.5;" x1="694" x2="826" y1="300" y2="300"/>
        <rect fill="#FEFECE" filter="url(#f1)" height="48" style="stroke: #A80036; stroke-width: 1.5;" width="86" x="741" y="368"/>
        <ellipse cx="756" cy="384" fill="#ADD1B2" rx="11" ry="11" style="stroke: #A80036; stroke-width: 1.0;"/>
        <path d="M758.7656,379.875 Q758.9219,379.6563 759.1094,379.5469 Q759.2969,379.4375 759.5156,379.4375 Q759.8906,379.4375 760.125,379.6953 Q760.3594,379.9531 760.3594,380.5625 L760.3594,382.0156 Q760.3594,382.625 760.125,382.8906 Q759.8906,383.1563 759.5156,383.1563 Q759.1719,383.1563 758.9688,382.9531 Q758.7656,382.7656 758.6563,382.25 Q758.6094,381.8906 758.4219,381.7031 Q758.0938,381.3281 757.4844,381.1094 Q756.875,380.8906 756.25,380.8906 Q755.4844,380.8906 754.8516,381.2188 Q754.2188,381.5469 753.7266,382.2969 Q753.2344,383.0469 753.2344,384.0781 L753.2344,385.1719 Q753.2344,386.4063 754.125,387.2266 Q755.0156,388.0469 756.6094,388.0469 Q757.5469,388.0469 758.2031,387.7969 Q758.5938,387.6406 759.0156,387.2031 Q759.2813,386.9375 759.4297,386.8594 Q759.5781,386.7813 759.7813,386.7813 Q760.1094,386.7813 760.3672,387.0391 Q760.625,387.2969 760.625,387.6406 Q760.625,387.9844 760.2813,388.3906 Q759.7813,388.9688 758.9844,389.2969 Q757.9063,389.75 756.6094,389.75 Q755.0938,389.75 753.8906,389.125 Q752.9063,388.625 752.2188,387.5547 Q751.5313,386.4844 751.5313,385.2031 L751.5313,384.0469 Q751.5313,382.7188 752.1484,381.5703 Q752.7656,380.4219 753.8594,379.8047 Q754.9531,379.1875 756.1875,379.1875 Q756.9219,379.1875 757.5703,379.3516 Q758.2188,379.5156 758.7656,379.875 Z "/>
        <text fill="#000000" font-family="sans-serif" font-size="12" lengthAdjust="spacingAndGlyphs" textLength="54" x="770" y="388.9102">Controller</text>
        <line style="stroke: #A80036; stroke-width: 1.5;" x1="742" x2="826" y1="400" y2="400"/>
        <line style="stroke: #A80036; stroke-width: 1.5;" x1="742" x2="826" y1="408" y2="408"/>
        <rect fill="#FEFECE" filter="url(#f1)" height="48" style="stroke: #A80036; stroke-width: 1.5;" width="117" x="182.5" y="476"/>
        <ellipse cx="197.5" cy="492" fill="#B4A7E5" rx="11" ry="11" style="stroke: #A80036; stroke-width: 1.0;"/>
        <path d="M198.4531,488.6406 L198.4531,495.2969 L200.1719,495.2969 Q200.7813,495.2969 201.0469,495.5313 Q201.3125,495.7656 201.3125,496.1563 Q201.3125,496.5313 201.0469,496.7656 Q200.7813,497 200.1719,497 L195.0313,497 Q194.4219,497 194.1563,496.7656 Q193.8906,496.5313 193.8906,496.1406 Q193.8906,495.7656 194.1563,495.5313 Q194.4219,495.2969 195.0313,495.2969 L196.75,495.2969 L196.75,488.6406 L195.0313,488.6406 Q194.4219,488.6406 194.1563,488.4063 Q193.8906,488.1719 193.8906,487.7813 Q193.8906,487.4063 194.1563,487.1719 Q194.4219,486.9375 195.0313,486.9375 L200.1719,486.9375 Q200.7813,486.9375 201.0469,487.1719 Q201.3125,487.4063 201.3125,487.7813 Q201.3125,488.1719 201.0469,488.4063 Q200.7813,488.6406 200.1719,488.6406 L198.4531,488.6406 Z "/>
        <text fill="#000000" font-family="sans-serif" font-size="12" font-style="italic" lengthAdjust="spacingAndGlyphs" textLength="85" x="211.5" y="496.9102">RouterInterface</text>
        <line style="stroke: #A80036; stroke-width: 1.5;" x1="183.5" x2="298.5" y1="508" y2="508"/>
        <line style="stroke: #A80036; stroke-width: 1.5;" x1="183.5" x2="298.5" y1="516" y2="516"/>
        <rect fill="#FEFECE" filter="url(#f1)" height="48" style="stroke: #A80036; stroke-width: 1.5;" width="69" x="194.5" y="368"/>
        <ellipse cx="209.5" cy="384" fill="#ADD1B2" rx="11" ry="11" style="stroke: #A80036; stroke-width: 1.0;"/>
        <path d="M212.2656,379.875 Q212.4219,379.6563 212.6094,379.5469 Q212.7969,379.4375 213.0156,379.4375 Q213.3906,379.4375 213.625,379.6953 Q213.8594,379.9531 213.8594,380.5625 L213.8594,382.0156 Q213.8594,382.625 213.625,382.8906 Q213.3906,383.1563 213.0156,383.1563 Q212.6719,383.1563 212.4688,382.9531 Q212.2656,382.7656 212.1563,382.25 Q212.1094,381.8906 211.9219,381.7031 Q211.5938,381.3281 210.9844,381.1094 Q210.375,380.8906 209.75,380.8906 Q208.9844,380.8906 208.3516,381.2188 Q207.7188,381.5469 207.2266,382.2969 Q206.7344,383.0469 206.7344,384.0781 L206.7344,385.1719 Q206.7344,386.4063 207.625,387.2266 Q208.5156,388.0469 210.1094,388.0469 Q211.0469,388.0469 211.7031,387.7969 Q212.0938,387.6406 212.5156,387.2031 Q212.7813,386.9375 212.9297,386.8594 Q213.0781,386.7813 213.2813,386.7813 Q213.6094,386.7813 213.8672,387.0391 Q214.125,387.2969 214.125,387.6406 Q214.125,387.9844 213.7813,388.3906 Q213.2813,388.9688 212.4844,389.2969 Q211.4063,389.75 210.1094,389.75 Q208.5938,389.75 207.3906,389.125 Q206.4063,388.625 205.7188,387.5547 Q205.0313,386.4844 205.0313,385.2031 L205.0313,384.0469 Q205.0313,382.7188 205.6484,381.5703 Q206.2656,380.4219 207.3594,379.8047 Q208.4531,379.1875 209.6875,379.1875 Q210.4219,379.1875 211.0703,379.3516 Q211.7188,379.5156 212.2656,379.875 Z "/>
        <text fill="#000000" font-family="sans-serif" font-size="12" lengthAdjust="spacingAndGlyphs" textLength="37" x="223.5" y="388.9102">Router</text>
        <line style="stroke: #A80036; stroke-width: 1.5;" x1="195.5" x2="262.5" y1="400" y2="400"/>
        <line style="stroke: #A80036; stroke-width: 1.5;" x1="195.5" x2="262.5" y1="408" y2="408"/>
        <rect fill="#FEFECE" filter="url(#f1)" height="48" style="stroke: #A80036; stroke-width: 1.5;" width="78" x="763" y="908"/>
        <ellipse cx="778" cy="924" fill="#ADD1B2" rx="11" ry="11" style="stroke: #A80036; stroke-width: 1.0;"/>
        <path d="M780.7656,919.875 Q780.9219,919.6563 781.1094,919.5469 Q781.2969,919.4375 781.5156,919.4375 Q781.8906,919.4375 782.125,919.6953 Q782.3594,919.9531 782.3594,920.5625 L782.3594,922.0156 Q782.3594,922.625 782.125,922.8906 Q781.8906,923.1563 781.5156,923.1563 Q781.1719,923.1563 780.9688,922.9531 Q780.7656,922.7656 780.6563,922.25 Q780.6094,921.8906 780.4219,921.7031 Q780.0938,921.3281 779.4844,921.1094 Q778.875,920.8906 778.25,920.8906 Q777.4844,920.8906 776.8516,921.2188 Q776.2188,921.5469 775.7266,922.2969 Q775.2344,923.0469 775.2344,924.0781 L775.2344,925.1719 Q775.2344,926.4063 776.125,927.2266 Q777.0156,928.0469 778.6094,928.0469 Q779.5469,928.0469 780.2031,927.7969 Q780.5938,927.6406 781.0156,927.2031 Q781.2813,926.9375 781.4297,926.8594 Q781.5781,926.7813 781.7813,926.7813 Q782.1094,926.7813 782.3672,927.0391 Q782.625,927.2969 782.625,927.6406 Q782.625,927.9844 782.2813,928.3906 Q781.7813,928.9688 780.9844,929.2969 Q779.9063,929.75 778.6094,929.75 Q777.0938,929.75 775.8906,929.125 Q774.9063,928.625 774.2188,927.5547 Q773.5313,926.4844 773.5313,925.2031 L773.5313,924.0469 Q773.5313,922.7188 774.1484,921.5703 Q774.7656,920.4219 775.8594,919.8047 Q776.9531,919.1875 778.1875,919.1875 Q778.9219,919.1875 779.5703,919.3516 Q780.2188,919.5156 780.7656,919.875 Z "/>
        <text fill="#000000" font-family="sans-serif" font-size="12" lengthAdjust="spacingAndGlyphs" textLength="46" x="792" y="928.9102">Session</text>
        <line style="stroke: #A80036; stroke-width: 1.5;" x1="764" x2="840" y1="940" y2="940"/>
        <line style="stroke: #A80036; stroke-width: 1.5;" x1="764" x2="840" y1="948" y2="948"/>
        <rect fill="#FEFECE" filter="url(#f1)" height="48" style="stroke: #A80036; stroke-width: 1.5;" width="78" x="650" y="908"/>
        <ellipse cx="665" cy="924" fill="#ADD1B2" rx="11" ry="11" style="stroke: #A80036; stroke-width: 1.0;"/>
        <path d="M667.7656,919.875 Q667.9219,919.6563 668.1094,919.5469 Q668.2969,919.4375 668.5156,919.4375 Q668.8906,919.4375 669.125,919.6953 Q669.3594,919.9531 669.3594,920.5625 L669.3594,922.0156 Q669.3594,922.625 669.125,922.8906 Q668.8906,923.1563 668.5156,923.1563 Q668.1719,923.1563 667.9688,922.9531 Q667.7656,922.7656 667.6563,922.25 Q667.6094,921.8906 667.4219,921.7031 Q667.0938,921.3281 666.4844,921.1094 Q665.875,920.8906 665.25,920.8906 Q664.4844,920.8906 663.8516,921.2188 Q663.2188,921.5469 662.7266,922.2969 Q662.2344,923.0469 662.2344,924.0781 L662.2344,925.1719 Q662.2344,926.4063 663.125,927.2266 Q664.0156,928.0469 665.6094,928.0469 Q666.5469,928.0469 667.2031,927.7969 Q667.5938,927.6406 668.0156,927.2031 Q668.2813,926.9375 668.4297,926.8594 Q668.5781,926.7813 668.7813,926.7813 Q669.1094,926.7813 669.3672,927.0391 Q669.625,927.2969 669.625,927.6406 Q669.625,927.9844 669.2813,928.3906 Q668.7813,928.9688 667.9844,929.2969 Q666.9063,929.75 665.6094,929.75 Q664.0938,929.75 662.8906,929.125 Q661.9063,928.625 661.2188,927.5547 Q660.5313,926.4844 660.5313,925.2031 L660.5313,924.0469 Q660.5313,922.7188 661.1484,921.5703 Q661.7656,920.4219 662.8594,919.8047 Q663.9531,919.1875 665.1875,919.1875 Q665.9219,919.1875 666.5703,919.3516 Q667.2188,919.5156 667.7656,919.875 Z "/>
        <text fill="#000000" font-family="sans-serif" font-size="12" lengthAdjust="spacingAndGlyphs" textLength="46" x="679" y="928.9102">Cookies</text>
        <line style="stroke: #A80036; stroke-width: 1.5;" x1="651" x2="727" y1="940" y2="940"/>
        <line style="stroke: #A80036; stroke-width: 1.5;" x1="651" x2="727" y1="948" y2="948"/>
        <rect fill="#FEFECE" filter="url(#f1)" height="48" style="stroke: #A80036; stroke-width: 1.5;" width="106" x="907" y="476"/>
        <ellipse cx="922" cy="492" fill="#B4A7E5" rx="11" ry="11" style="stroke: #A80036; stroke-width: 1.0;"/>
        <path d="M922.9531,488.6406 L922.9531,495.2969 L924.6719,495.2969 Q925.2813,495.2969 925.5469,495.5313 Q925.8125,495.7656 925.8125,496.1563 Q925.8125,496.5313 925.5469,496.7656 Q925.2813,497 924.6719,497 L919.5313,497 Q918.9219,497 918.6563,496.7656 Q918.3906,496.5313 918.3906,496.1406 Q918.3906,495.7656 918.6563,495.5313 Q918.9219,495.2969 919.5313,495.2969 L921.25,495.2969 L921.25,488.6406 L919.5313,488.6406 Q918.9219,488.6406 918.6563,488.4063 Q918.3906,488.1719 918.3906,487.7813 Q918.3906,487.4063 918.6563,487.1719 Q918.9219,486.9375 919.5313,486.9375 L924.6719,486.9375 Q925.2813,486.9375 925.5469,487.1719 Q925.8125,487.4063 925.8125,487.7813 Q925.8125,488.1719 925.5469,488.4063 Q925.2813,488.6406 924.6719,488.6406 L922.9531,488.6406 Z "/>
        <text fill="#000000" font-family="sans-serif" font-size="12" font-style="italic" lengthAdjust="spacingAndGlyphs" textLength="74" x="936" y="496.9102">ViewInterface</text>
        <line style="stroke: #A80036; stroke-width: 1.5;" x1="908" x2="1012" y1="508" y2="508"/>
        <line style="stroke: #A80036; stroke-width: 1.5;" x1="908" x2="1012" y1="516" y2="516"/>
        <rect fill="#FEFECE" filter="url(#f1)" height="48" style="stroke: #A80036; stroke-width: 1.5;" width="58" x="931" y="584"/>
        <ellipse cx="946" cy="600" fill="#ADD1B2" rx="11" ry="11" style="stroke: #A80036; stroke-width: 1.0;"/>
        <path d="M948.7656,595.875 Q948.9219,595.6563 949.1094,595.5469 Q949.2969,595.4375 949.5156,595.4375 Q949.8906,595.4375 950.125,595.6953 Q950.3594,595.9531 950.3594,596.5625 L950.3594,598.0156 Q950.3594,598.625 950.125,598.8906 Q949.8906,599.1563 949.5156,599.1563 Q949.1719,599.1563 948.9688,598.9531 Q948.7656,598.7656 948.6563,598.25 Q948.6094,597.8906 948.4219,597.7031 Q948.0938,597.3281 947.4844,597.1094 Q946.875,596.8906 946.25,596.8906 Q945.4844,596.8906 944.8516,597.2188 Q944.2188,597.5469 943.7266,598.2969 Q943.2344,599.0469 943.2344,600.0781 L943.2344,601.1719 Q943.2344,602.4063 944.125,603.2266 Q945.0156,604.0469 946.6094,604.0469 Q947.5469,604.0469 948.2031,603.7969 Q948.5938,603.6406 949.0156,603.2031 Q949.2813,602.9375 949.4297,602.8594 Q949.5781,602.7813 949.7813,602.7813 Q950.1094,602.7813 950.3672,603.0391 Q950.625,603.2969 950.625,603.6406 Q950.625,603.9844 950.2813,604.3906 Q949.7813,604.9688 948.9844,605.2969 Q947.9063,605.75 946.6094,605.75 Q945.0938,605.75 943.8906,605.125 Q942.9063,604.625 942.2188,603.5547 Q941.5313,602.4844 941.5313,601.2031 L941.5313,600.0469 Q941.5313,598.7188 942.1484,597.5703 Q942.7656,596.4219 943.8594,595.8047 Q944.9531,595.1875 946.1875,595.1875 Q946.9219,595.1875 947.5703,595.3516 Q948.2188,595.5156 948.7656,595.875 Z "/>
        <text fill="#000000" font-family="sans-serif" font-size="12" lengthAdjust="spacingAndGlyphs" textLength="26" x="960" y="604.9102">View</text>
        <line style="stroke: #A80036; stroke-width: 1.5;" x1="932" x2="988" y1="616" y2="616"/>
        <line style="stroke: #A80036; stroke-width: 1.5;" x1="932" x2="988" y1="624" y2="624"/>
        <rect fill="#FEFECE" filter="url(#f1)" height="48" style="stroke: #A80036; stroke-width: 1.5;" width="113" x="1037.5" y="584"/>
        <ellipse cx="1052.5" cy="600" fill="#B4A7E5" rx="11" ry="11" style="stroke: #A80036; stroke-width: 1.0;"/>
        <path d="M1053.4531,596.6406 L1053.4531,603.2969 L1055.1719,603.2969 Q1055.7813,603.2969 1056.0469,603.5313 Q1056.3125,603.7656 1056.3125,604.1563 Q1056.3125,604.5313 1056.0469,604.7656 Q1055.7813,605 1055.1719,605 L1050.0313,605 Q1049.4219,605 1049.1563,604.7656 Q1048.8906,604.5313 1048.8906,604.1406 Q1048.8906,603.7656 1049.1563,603.5313 Q1049.4219,603.2969 1050.0313,603.2969 L1051.75,603.2969 L1051.75,596.6406 L1050.0313,596.6406 Q1049.4219,596.6406 1049.1563,596.4063 Q1048.8906,596.1719 1048.8906,595.7813 Q1048.8906,595.4063 1049.1563,595.1719 Q1049.4219,594.9375 1050.0313,594.9375 L1055.1719,594.9375 Q1055.7813,594.9375 1056.0469,595.1719 Q1056.3125,595.4063 1056.3125,595.7813 Q1056.3125,596.1719 1056.0469,596.4063 Q1055.7813,596.6406 1055.1719,596.6406 L1053.4531,596.6406 Z "/>
        <text fill="#000000" font-family="sans-serif" font-size="12" font-style="italic" lengthAdjust="spacingAndGlyphs" textLength="81" x="1066.5" y="604.9102">ModelInterface</text>
        <line style="stroke: #A80036; stroke-width: 1.5;" x1="1038.5" x2="1149.5" y1="616" y2="616"/>
        <line style="stroke: #A80036; stroke-width: 1.5;" x1="1038.5" x2="1149.5" y1="624" y2="624"/>
        <rect fill="#FEFECE" filter="url(#f1)" height="48" style="stroke: #A80036; stroke-width: 1.5;" width="102" x="1037" y="692"/>
        <ellipse cx="1052" cy="708" fill="#ADD1B2" rx="11" ry="11" style="stroke: #A80036; stroke-width: 1.0;"/>
        <path d="M1054.7656,703.875 Q1054.9219,703.6563 1055.1094,703.5469 Q1055.2969,703.4375 1055.5156,703.4375 Q1055.8906,703.4375 1056.125,703.6953 Q1056.3594,703.9531 1056.3594,704.5625 L1056.3594,706.0156 Q1056.3594,706.625 1056.125,706.8906 Q1055.8906,707.1563 1055.5156,707.1563 Q1055.1719,707.1563 1054.9688,706.9531 Q1054.7656,706.7656 1054.6563,706.25 Q1054.6094,705.8906 1054.4219,705.7031 Q1054.0938,705.3281 1053.4844,705.1094 Q1052.875,704.8906 1052.25,704.8906 Q1051.4844,704.8906 1050.8516,705.2188 Q1050.2188,705.5469 1049.7266,706.2969 Q1049.2344,707.0469 1049.2344,708.0781 L1049.2344,709.1719 Q1049.2344,710.4063 1050.125,711.2266 Q1051.0156,712.0469 1052.6094,712.0469 Q1053.5469,712.0469 1054.2031,711.7969 Q1054.5938,711.6406 1055.0156,711.2031 Q1055.2813,710.9375 1055.4297,710.8594 Q1055.5781,710.7813 1055.7813,710.7813 Q1056.1094,710.7813 1056.3672,711.0391 Q1056.625,711.2969 1056.625,711.6406 Q1056.625,711.9844 1056.2813,712.3906 Q1055.7813,712.9688 1054.9844,713.2969 Q1053.9063,713.75 1052.6094,713.75 Q1051.0938,713.75 1049.8906,713.125 Q1048.9063,712.625 1048.2188,711.5547 Q1047.5313,710.4844 1047.5313,709.2031 L1047.5313,708.0469 Q1047.5313,706.7188 1048.1484,705.5703 Q1048.7656,704.4219 1049.8594,703.8047 Q1050.9531,703.1875 1052.1875,703.1875 Q1052.9219,703.1875 1053.5703,703.3516 Q1054.2188,703.5156 1054.7656,703.875 Z "/>
        <text fill="#000000" font-family="sans-serif" font-size="12" lengthAdjust="spacingAndGlyphs" textLength="70" x="1066" y="712.9102">Connections</text>
        <line style="stroke: #A80036; stroke-width: 1.5;" x1="1038" x2="1138" y1="724" y2="724"/>
        <line style="stroke: #A80036; stroke-width: 1.5;" x1="1038" x2="1138" y1="732" y2="732"/>
        <rect fill="#FEFECE" filter="url(#f1)" height="48" style="stroke: #A80036; stroke-width: 1.5;" width="97" x="1174.5" y="692"/>
        <ellipse cx="1189.5" cy="708" fill="#ADD1B2" rx="11" ry="11" style="stroke: #A80036; stroke-width: 1.0;"/>
        <path d="M1192.2656,703.875 Q1192.4219,703.6563 1192.6094,703.5469 Q1192.7969,703.4375 1193.0156,703.4375 Q1193.3906,703.4375 1193.625,703.6953 Q1193.8594,703.9531 1193.8594,704.5625 L1193.8594,706.0156 Q1193.8594,706.625 1193.625,706.8906 Q1193.3906,707.1563 1193.0156,707.1563 Q1192.6719,707.1563 1192.4688,706.9531 Q1192.2656,706.7656 1192.1563,706.25 Q1192.1094,705.8906 1191.9219,705.7031 Q1191.5938,705.3281 1190.9844,705.1094 Q1190.375,704.8906 1189.75,704.8906 Q1188.9844,704.8906 1188.3516,705.2188 Q1187.7188,705.5469 1187.2266,706.2969 Q1186.7344,707.0469 1186.7344,708.0781 L1186.7344,709.1719 Q1186.7344,710.4063 1187.625,711.2266 Q1188.5156,712.0469 1190.1094,712.0469 Q1191.0469,712.0469 1191.7031,711.7969 Q1192.0938,711.6406 1192.5156,711.2031 Q1192.7813,710.9375 1192.9297,710.8594 Q1193.0781,710.7813 1193.2813,710.7813 Q1193.6094,710.7813 1193.8672,711.0391 Q1194.125,711.2969 1194.125,711.6406 Q1194.125,711.9844 1193.7813,712.3906 Q1193.2813,712.9688 1192.4844,713.2969 Q1191.4063,713.75 1190.1094,713.75 Q1188.5938,713.75 1187.3906,713.125 Q1186.4063,712.625 1185.7188,711.5547 Q1185.0313,710.4844 1185.0313,709.2031 L1185.0313,708.0469 Q1185.0313,706.7188 1185.6484,705.5703 Q1186.2656,704.4219 1187.3594,703.8047 Q1188.4531,703.1875 1189.6875,703.1875 Q1190.4219,703.1875 1191.0703,703.3516 Q1191.7188,703.5156 1192.2656,703.875 Z "/>
        <text fill="#000000" font-family="sans-serif" font-size="12" lengthAdjust="spacingAndGlyphs" textLength="65" x="1203.5" y="712.9102">MySqlModel</text>
        <line style="stroke: #A80036; stroke-width: 1.5;" x1="1175.5" x2="1270.5" y1="724" y2="724"/>
        <line style="stroke: #A80036; stroke-width: 1.5;" x1="1175.5" x2="1270.5" y1="732" y2="732"/>
        <rect fill="#FEFECE" filter="url(#f1)" height="48" style="stroke: #A80036; stroke-width: 1.5;" width="162" x="399" y="44"/>
        <ellipse cx="414" cy="60" fill="#B4A7E5" rx="11" ry="11" style="stroke: #A80036; stroke-width: 1.0;"/>
        <path d="M414.9531,56.6406 L414.9531,63.2969 L416.6719,63.2969 Q417.2813,63.2969 417.5469,63.5313 Q417.8125,63.7656 417.8125,64.1563 Q417.8125,64.5313 417.5469,64.7656 Q417.2813,65 416.6719,65 L411.5313,65 Q410.9219,65 410.6563,64.7656 Q410.3906,64.5313 410.3906,64.1406 Q410.3906,63.7656 410.6563,63.5313 Q410.9219,63.2969 411.5313,63.2969 L413.25,63.2969 L413.25,56.6406 L411.5313,56.6406 Q410.9219,56.6406 410.6563,56.4063 Q410.3906,56.1719 410.3906,55.7813 Q410.3906,55.4063 410.6563,55.1719 Q410.9219,54.9375 411.5313,54.9375 L416.6719,54.9375 Q417.2813,54.9375 417.5469,55.1719 Q417.8125,55.4063 417.8125,55.7813 Q417.8125,56.1719 417.5469,56.4063 Q417.2813,56.6406 416.6719,56.6406 L414.9531,56.6406 Z "/>
        <text fill="#000000" font-family="sans-serif" font-size="12" font-style="italic" lengthAdjust="spacingAndGlyphs" textLength="130" x="428" y="64.9102">FrontControllerInterface</text>
        <line style="stroke: #A80036; stroke-width: 1.5;" x1="400" x2="560" y1="76" y2="76"/>
        <line style="stroke: #A80036; stroke-width: 1.5;" x1="400" x2="560" y1="84" y2="84"/>
        <rect fill="#FEFECE" filter="url(#f1)" height="48" style="stroke: #A80036; stroke-width: 1.5;" width="114" x="423" y="152"/>
        <ellipse cx="438" cy="168" fill="#ADD1B2" rx="11" ry="11" style="stroke: #A80036; stroke-width: 1.0;"/>
        <path d="M440.7656,163.875 Q440.9219,163.6563 441.1094,163.5469 Q441.2969,163.4375 441.5156,163.4375 Q441.8906,163.4375 442.125,163.6953 Q442.3594,163.9531 442.3594,164.5625 L442.3594,166.0156 Q442.3594,166.625 442.125,166.8906 Q441.8906,167.1563 441.5156,167.1563 Q441.1719,167.1563 440.9688,166.9531 Q440.7656,166.7656 440.6563,166.25 Q440.6094,165.8906 440.4219,165.7031 Q440.0938,165.3281 439.4844,165.1094 Q438.875,164.8906 438.25,164.8906 Q437.4844,164.8906 436.8516,165.2188 Q436.2188,165.5469 435.7266,166.2969 Q435.2344,167.0469 435.2344,168.0781 L435.2344,169.1719 Q435.2344,170.4063 436.125,171.2266 Q437.0156,172.0469 438.6094,172.0469 Q439.5469,172.0469 440.2031,171.7969 Q440.5938,171.6406 441.0156,171.2031 Q441.2813,170.9375 441.4297,170.8594 Q441.5781,170.7813 441.7813,170.7813 Q442.1094,170.7813 442.3672,171.0391 Q442.625,171.2969 442.625,171.6406 Q442.625,171.9844 442.2813,172.3906 Q441.7813,172.9688 440.9844,173.2969 Q439.9063,173.75 438.6094,173.75 Q437.0938,173.75 435.8906,173.125 Q434.9063,172.625 434.2188,171.5547 Q433.5313,170.4844 433.5313,169.2031 L433.5313,168.0469 Q433.5313,166.7188 434.1484,165.5703 Q434.7656,164.4219 435.8594,163.8047 Q436.9531,163.1875 438.1875,163.1875 Q438.9219,163.1875 439.5703,163.3516 Q440.2188,163.5156 440.7656,163.875 Z "/>
        <text fill="#000000" font-family="sans-serif" font-size="12" lengthAdjust="spacingAndGlyphs" textLength="82" x="452" y="172.9102">FrontController</text>
        <line style="stroke: #A80036; stroke-width: 1.5;" x1="424" x2="536" y1="184" y2="184"/>
        <line style="stroke: #A80036; stroke-width: 1.5;" x1="424" x2="536" y1="192" y2="192"/>
        <rect fill="#FEFECE" filter="url(#f1)" height="48" style="stroke: #A80036; stroke-width: 1.5;" width="90" x="467" y="584"/>
        <ellipse cx="482" cy="600" fill="#ADD1B2" rx="11" ry="11" style="stroke: #A80036; stroke-width: 1.0;"/>
        <path d="M484.7656,595.875 Q484.9219,595.6563 485.1094,595.5469 Q485.2969,595.4375 485.5156,595.4375 Q485.8906,595.4375 486.125,595.6953 Q486.3594,595.9531 486.3594,596.5625 L486.3594,598.0156 Q486.3594,598.625 486.125,598.8906 Q485.8906,599.1563 485.5156,599.1563 Q485.1719,599.1563 484.9688,598.9531 Q484.7656,598.7656 484.6563,598.25 Q484.6094,597.8906 484.4219,597.7031 Q484.0938,597.3281 483.4844,597.1094 Q482.875,596.8906 482.25,596.8906 Q481.4844,596.8906 480.8516,597.2188 Q480.2188,597.5469 479.7266,598.2969 Q479.2344,599.0469 479.2344,600.0781 L479.2344,601.1719 Q479.2344,602.4063 480.125,603.2266 Q481.0156,604.0469 482.6094,604.0469 Q483.5469,604.0469 484.2031,603.7969 Q484.5938,603.6406 485.0156,603.2031 Q485.2813,602.9375 485.4297,602.8594 Q485.5781,602.7813 485.7813,602.7813 Q486.1094,602.7813 486.3672,603.0391 Q486.625,603.2969 486.625,603.6406 Q486.625,603.9844 486.2813,604.3906 Q485.7813,604.9688 484.9844,605.2969 Q483.9063,605.75 482.6094,605.75 Q481.0938,605.75 479.8906,605.125 Q478.9063,604.625 478.2188,603.5547 Q477.5313,602.4844 477.5313,601.2031 L477.5313,600.0469 Q477.5313,598.7188 478.1484,597.5703 Q478.7656,596.4219 479.8594,595.8047 Q480.9531,595.1875 482.1875,595.1875 Q482.9219,595.1875 483.5703,595.3516 Q484.2188,595.5156 484.7656,595.875 Z "/>
        <text fill="#000000" font-family="sans-serif" font-size="12" lengthAdjust="spacingAndGlyphs" textLength="58" x="496" y="604.9102">Response</text>
        <line style="stroke: #A80036; stroke-width: 1.5;" x1="468" x2="556" y1="616" y2="616"/>
        <line style="stroke: #A80036; stroke-width: 1.5;" x1="468" x2="556" y1="624" y2="624"/>
        <rect fill="#FEFECE" filter="url(#f1)" height="48" style="stroke: #A80036; stroke-width: 1.5;" width="126" x="615" y="476"/>
        <ellipse cx="630" cy="492" fill="#B4A7E5" rx="11" ry="11" style="stroke: #A80036; stroke-width: 1.0;"/>
        <path d="M630.9531,488.6406 L630.9531,495.2969 L632.6719,495.2969 Q633.2813,495.2969 633.5469,495.5313 Q633.8125,495.7656 633.8125,496.1563 Q633.8125,496.5313 633.5469,496.7656 Q633.2813,497 632.6719,497 L627.5313,497 Q626.9219,497 626.6563,496.7656 Q626.3906,496.5313 626.3906,496.1406 Q626.3906,495.7656 626.6563,495.5313 Q626.9219,495.2969 627.5313,495.2969 L629.25,495.2969 L629.25,488.6406 L627.5313,488.6406 Q626.9219,488.6406 626.6563,488.4063 Q626.3906,488.1719 626.3906,487.7813 Q626.3906,487.4063 626.6563,487.1719 Q626.9219,486.9375 627.5313,486.9375 L632.6719,486.9375 Q633.2813,486.9375 633.5469,487.1719 Q633.8125,487.4063 633.8125,487.7813 Q633.8125,488.1719 633.5469,488.4063 Q633.2813,488.6406 632.6719,488.6406 L630.9531,488.6406 Z "/>
        <text fill="#000000" font-family="sans-serif" font-size="12" font-style="italic" lengthAdjust="spacingAndGlyphs" textLength="94" x="644" y="496.9102">RequestInterface</text>
        <line style="stroke: #A80036; stroke-width: 1.5;" x1="616" x2="740" y1="508" y2="508"/>
        <line style="stroke: #A80036; stroke-width: 1.5;" x1="616" x2="740" y1="516" y2="516"/>
        <rect fill="#FEFECE" filter="url(#f1)" height="48" style="stroke: #A80036; stroke-width: 1.5;" width="113" x="706.5" y="584"/>
        <ellipse cx="721.5" cy="600" fill="#ADD1B2" rx="11" ry="11" style="stroke: #A80036; stroke-width: 1.0;"/>
        <path d="M724.2656,595.875 Q724.4219,595.6563 724.6094,595.5469 Q724.7969,595.4375 725.0156,595.4375 Q725.3906,595.4375 725.625,595.6953 Q725.8594,595.9531 725.8594,596.5625 L725.8594,598.0156 Q725.8594,598.625 725.625,598.8906 Q725.3906,599.1563 725.0156,599.1563 Q724.6719,599.1563 724.4688,598.9531 Q724.2656,598.7656 724.1563,598.25 Q724.1094,597.8906 723.9219,597.7031 Q723.5938,597.3281 722.9844,597.1094 Q722.375,596.8906 721.75,596.8906 Q720.9844,596.8906 720.3516,597.2188 Q719.7188,597.5469 719.2266,598.2969 Q718.7344,599.0469 718.7344,600.0781 L718.7344,601.1719 Q718.7344,602.4063 719.625,603.2266 Q720.5156,604.0469 722.1094,604.0469 Q723.0469,604.0469 723.7031,603.7969 Q724.0938,603.6406 724.5156,603.2031 Q724.7813,602.9375 724.9297,602.8594 Q725.0781,602.7813 725.2813,602.7813 Q725.6094,602.7813 725.8672,603.0391 Q726.125,603.2969 726.125,603.6406 Q726.125,603.9844 725.7813,604.3906 Q725.2813,604.9688 724.4844,605.2969 Q723.4063,605.75 722.1094,605.75 Q720.5938,605.75 719.3906,605.125 Q718.4063,604.625 717.7188,603.5547 Q717.0313,602.4844 717.0313,601.2031 L717.0313,600.0469 Q717.0313,598.7188 717.6484,597.5703 Q718.2656,596.4219 719.3594,595.8047 Q720.4531,595.1875 721.6875,595.1875 Q722.4219,595.1875 723.0703,595.3516 Q723.7188,595.5156 724.2656,595.875 Z "/>
        <text fill="#000000" font-family="sans-serif" font-size="12" lengthAdjust="spacingAndGlyphs" textLength="81" x="735.5" y="604.9102">DataCollection</text>
        <line style="stroke: #A80036; stroke-width: 1.5;" x1="707.5" x2="818.5" y1="616" y2="616"/>
        <line style="stroke: #A80036; stroke-width: 1.5;" x1="707.5" x2="818.5" y1="624" y2="624"/>
        <rect fill="#FEFECE" filter="url(#f1)" height="48" style="stroke: #A80036; stroke-width: 1.5;" width="108" x="324" y="584"/>
        <ellipse cx="339" cy="600" fill="#B4A7E5" rx="11" ry="11" style="stroke: #A80036; stroke-width: 1.0;"/>
        <path d="M339.9531,596.6406 L339.9531,603.2969 L341.6719,603.2969 Q342.2813,603.2969 342.5469,603.5313 Q342.8125,603.7656 342.8125,604.1563 Q342.8125,604.5313 342.5469,604.7656 Q342.2813,605 341.6719,605 L336.5313,605 Q335.9219,605 335.6563,604.7656 Q335.3906,604.5313 335.3906,604.1406 Q335.3906,603.7656 335.6563,603.5313 Q335.9219,603.2969 336.5313,603.2969 L338.25,603.2969 L338.25,596.6406 L336.5313,596.6406 Q335.9219,596.6406 335.6563,596.4063 Q335.3906,596.1719 335.3906,595.7813 Q335.3906,595.4063 335.6563,595.1719 Q335.9219,594.9375 336.5313,594.9375 L341.6719,594.9375 Q342.2813,594.9375 342.5469,595.1719 Q342.8125,595.4063 342.8125,595.7813 Q342.8125,596.1719 342.5469,596.4063 Q342.2813,596.6406 341.6719,596.6406 L339.9531,596.6406 Z "/>
        <text fill="#000000" font-family="sans-serif" font-size="12" font-style="italic" lengthAdjust="spacingAndGlyphs" textLength="76" x="353" y="604.9102">InputInterface</text>
        <line style="stroke: #A80036; stroke-width: 1.5;" x1="325" x2="431" y1="616" y2="616"/>
        <line style="stroke: #A80036; stroke-width: 1.5;" x1="325" x2="431" y1="624" y2="624"/>
        <rect fill="#FEFECE" filter="url(#f1)" height="48" style="stroke: #A80036; stroke-width: 1.5;" width="59" x="531.5" y="692"/>
        <ellipse cx="546.5" cy="708" fill="#ADD1B2" rx="11" ry="11" style="stroke: #A80036; stroke-width: 1.0;"/>
        <path d="M549.2656,703.875 Q549.4219,703.6563 549.6094,703.5469 Q549.7969,703.4375 550.0156,703.4375 Q550.3906,703.4375 550.625,703.6953 Q550.8594,703.9531 550.8594,704.5625 L550.8594,706.0156 Q550.8594,706.625 550.625,706.8906 Q550.3906,707.1563 550.0156,707.1563 Q549.6719,707.1563 549.4688,706.9531 Q549.2656,706.7656 549.1563,706.25 Q549.1094,705.8906 548.9219,705.7031 Q548.5938,705.3281 547.9844,705.1094 Q547.375,704.8906 546.75,704.8906 Q545.9844,704.8906 545.3516,705.2188 Q544.7188,705.5469 544.2266,706.2969 Q543.7344,707.0469 543.7344,708.0781 L543.7344,709.1719 Q543.7344,710.4063 544.625,711.2266 Q545.5156,712.0469 547.1094,712.0469 Q548.0469,712.0469 548.7031,711.7969 Q549.0938,711.6406 549.5156,711.2031 Q549.7813,710.9375 549.9297,710.8594 Q550.0781,710.7813 550.2813,710.7813 Q550.6094,710.7813 550.8672,711.0391 Q551.125,711.2969 551.125,711.6406 Q551.125,711.9844 550.7813,712.3906 Q550.2813,712.9688 549.4844,713.2969 Q548.4063,713.75 547.1094,713.75 Q545.5938,713.75 544.3906,713.125 Q543.4063,712.625 542.7188,711.5547 Q542.0313,710.4844 542.0313,709.2031 L542.0313,708.0469 Q542.0313,706.7188 542.6484,705.5703 Q543.2656,704.4219 544.3594,703.8047 Q545.4531,703.1875 546.6875,703.1875 Q547.4219,703.1875 548.0703,703.3516 Q548.7188,703.5156 549.2656,703.875 Z "/>
        <text fill="#000000" font-family="sans-serif" font-size="12" lengthAdjust="spacingAndGlyphs" textLength="27" x="560.5" y="712.9102">Input</text>
        <line style="stroke: #A80036; stroke-width: 1.5;" x1="532.5" x2="589.5" y1="724" y2="724"/>
        <line style="stroke: #A80036; stroke-width: 1.5;" x1="532.5" x2="589.5" y1="732" y2="732"/>
        <rect fill="#FEFECE" filter="url(#f1)" height="48" style="stroke: #A80036; stroke-width: 1.5;" width="79" x="592.5" y="584"/>
        <ellipse cx="607.5" cy="600" fill="#ADD1B2" rx="11" ry="11" style="stroke: #A80036; stroke-width: 1.0;"/>
        <path d="M610.2656,595.875 Q610.4219,595.6563 610.6094,595.5469 Q610.7969,595.4375 611.0156,595.4375 Q611.3906,595.4375 611.625,595.6953 Q611.8594,595.9531 611.8594,596.5625 L611.8594,598.0156 Q611.8594,598.625 611.625,598.8906 Q611.3906,599.1563 611.0156,599.1563 Q610.6719,599.1563 610.4688,598.9531 Q610.2656,598.7656 610.1563,598.25 Q610.1094,597.8906 609.9219,597.7031 Q609.5938,597.3281 608.9844,597.1094 Q608.375,596.8906 607.75,596.8906 Q606.9844,596.8906 606.3516,597.2188 Q605.7188,597.5469 605.2266,598.2969 Q604.7344,599.0469 604.7344,600.0781 L604.7344,601.1719 Q604.7344,602.4063 605.625,603.2266 Q606.5156,604.0469 608.1094,604.0469 Q609.0469,604.0469 609.7031,603.7969 Q610.0938,603.6406 610.5156,603.2031 Q610.7813,602.9375 610.9297,602.8594 Q611.0781,602.7813 611.2813,602.7813 Q611.6094,602.7813 611.8672,603.0391 Q612.125,603.2969 612.125,603.6406 Q612.125,603.9844 611.7813,604.3906 Q611.2813,604.9688 610.4844,605.2969 Q609.4063,605.75 608.1094,605.75 Q606.5938,605.75 605.3906,605.125 Q604.4063,604.625 603.7188,603.5547 Q603.0313,602.4844 603.0313,601.2031 L603.0313,600.0469 Q603.0313,598.7188 603.6484,597.5703 Q604.2656,596.4219 605.3594,595.8047 Q606.4531,595.1875 607.6875,595.1875 Q608.4219,595.1875 609.0703,595.3516 Q609.7188,595.5156 610.2656,595.875 Z "/>
        <text fill="#000000" font-family="sans-serif" font-size="12" lengthAdjust="spacingAndGlyphs" textLength="47" x="621.5" y="604.9102">Request</text>
        <line style="stroke: #A80036; stroke-width: 1.5;" x1="593.5" x2="670.5" y1="616" y2="616"/>
        <line style="stroke: #A80036; stroke-width: 1.5;" x1="593.5" x2="670.5" y1="624" y2="624"/>
        <rect fill="#FEFECE" filter="url(#f1)" height="48" style="stroke: #A80036; stroke-width: 1.5;" width="105" x="359.5" y="692"/>
        <ellipse cx="374.5" cy="708" fill="#ADD1B2" rx="11" ry="11" style="stroke: #A80036; stroke-width: 1.0;"/>
        <path d="M377.2656,703.875 Q377.4219,703.6563 377.6094,703.5469 Q377.7969,703.4375 378.0156,703.4375 Q378.3906,703.4375 378.625,703.6953 Q378.8594,703.9531 378.8594,704.5625 L378.8594,706.0156 Q378.8594,706.625 378.625,706.8906 Q378.3906,707.1563 378.0156,707.1563 Q377.6719,707.1563 377.4688,706.9531 Q377.2656,706.7656 377.1563,706.25 Q377.1094,705.8906 376.9219,705.7031 Q376.5938,705.3281 375.9844,705.1094 Q375.375,704.8906 374.75,704.8906 Q373.9844,704.8906 373.3516,705.2188 Q372.7188,705.5469 372.2266,706.2969 Q371.7344,707.0469 371.7344,708.0781 L371.7344,709.1719 Q371.7344,710.4063 372.625,711.2266 Q373.5156,712.0469 375.1094,712.0469 Q376.0469,712.0469 376.7031,711.7969 Q377.0938,711.6406 377.5156,711.2031 Q377.7813,710.9375 377.9297,710.8594 Q378.0781,710.7813 378.2813,710.7813 Q378.6094,710.7813 378.8672,711.0391 Q379.125,711.2969 379.125,711.6406 Q379.125,711.9844 378.7813,712.3906 Q378.2813,712.9688 377.4844,713.2969 Q376.4063,713.75 375.1094,713.75 Q373.5938,713.75 372.3906,713.125 Q371.4063,712.625 370.7188,711.5547 Q370.0313,710.4844 370.0313,709.2031 L370.0313,708.0469 Q370.0313,706.7188 370.6484,705.5703 Q371.2656,704.4219 372.3594,703.8047 Q373.4531,703.1875 374.6875,703.1875 Q375.4219,703.1875 376.0703,703.3516 Q376.7188,703.5156 377.2656,703.875 Z "/>
        <text fill="#000000" font-family="sans-serif" font-size="12" lengthAdjust="spacingAndGlyphs" textLength="73" x="388.5" y="712.9102">RequestData</text>
        <line style="stroke: #A80036; stroke-width: 1.5;" x1="360.5" x2="463.5" y1="724" y2="724"/>
        <line style="stroke: #A80036; stroke-width: 1.5;" x1="360.5" x2="463.5" y1="732" y2="732"/>
        <rect fill="#FEFECE" filter="url(#f1)" height="48" style="stroke: #A80036; stroke-width: 1.5;" width="136" x="444" y="476"/>
        <ellipse cx="459" cy="492" fill="#B4A7E5" rx="11" ry="11" style="stroke: #A80036; stroke-width: 1.0;"/>
        <path d="M459.9531,488.6406 L459.9531,495.2969 L461.6719,495.2969 Q462.2813,495.2969 462.5469,495.5313 Q462.8125,495.7656 462.8125,496.1563 Q462.8125,496.5313 462.5469,496.7656 Q462.2813,497 461.6719,497 L456.5313,497 Q455.9219,497 455.6563,496.7656 Q455.3906,496.5313 455.3906,496.1406 Q455.3906,495.7656 455.6563,495.5313 Q455.9219,495.2969 456.5313,495.2969 L458.25,495.2969 L458.25,488.6406 L456.5313,488.6406 Q455.9219,488.6406 455.6563,488.4063 Q455.3906,488.1719 455.3906,487.7813 Q455.3906,487.4063 455.6563,487.1719 Q455.9219,486.9375 456.5313,486.9375 L461.6719,486.9375 Q462.2813,486.9375 462.5469,487.1719 Q462.8125,487.4063 462.8125,487.7813 Q462.8125,488.1719 462.5469,488.4063 Q462.2813,488.6406 461.6719,488.6406 L459.9531,488.6406 Z "/>
        <text fill="#000000" font-family="sans-serif" font-size="12" font-style="italic" lengthAdjust="spacingAndGlyphs" textLength="104" x="473" y="496.9102">ResponseInterface</text>
        <line style="stroke: #A80036; stroke-width: 1.5;" x1="445" x2="579" y1="508" y2="508"/>
        <line style="stroke: #A80036; stroke-width: 1.5;" x1="445" x2="579" y1="516" y2="516"/>
        <rect fill="#FEFECE" filter="url(#f1)" height="48" style="stroke: #A80036; stroke-width: 1.5;" width="100" x="238" y="260"/>
        <ellipse cx="253" cy="276" fill="#ADD1B2" rx="11" ry="11" style="stroke: #A80036; stroke-width: 1.0;"/>
        <path d="M255.7656,271.875 Q255.9219,271.6563 256.1094,271.5469 Q256.2969,271.4375 256.5156,271.4375 Q256.8906,271.4375 257.125,271.6953 Q257.3594,271.9531 257.3594,272.5625 L257.3594,274.0156 Q257.3594,274.625 257.125,274.8906 Q256.8906,275.1563 256.5156,275.1563 Q256.1719,275.1563 255.9688,274.9531 Q255.7656,274.7656 255.6563,274.25 Q255.6094,273.8906 255.4219,273.7031 Q255.0938,273.3281 254.4844,273.1094 Q253.875,272.8906 253.25,272.8906 Q252.4844,272.8906 251.8516,273.2188 Q251.2188,273.5469 250.7266,274.2969 Q250.2344,275.0469 250.2344,276.0781 L250.2344,277.1719 Q250.2344,278.4063 251.125,279.2266 Q252.0156,280.0469 253.6094,280.0469 Q254.5469,280.0469 255.2031,279.7969 Q255.5938,279.6406 256.0156,279.2031 Q256.2813,278.9375 256.4297,278.8594 Q256.5781,278.7813 256.7813,278.7813 Q257.1094,278.7813 257.3672,279.0391 Q257.625,279.2969 257.625,279.6406 Q257.625,279.9844 257.2813,280.3906 Q256.7813,280.9688 255.9844,281.2969 Q254.9063,281.75 253.6094,281.75 Q252.0938,281.75 250.8906,281.125 Q249.9063,280.625 249.2188,279.5547 Q248.5313,278.4844 248.5313,277.2031 L248.5313,276.0469 Q248.5313,274.7188 249.1484,273.5703 Q249.7656,272.4219 250.8594,271.8047 Q251.9531,271.1875 253.1875,271.1875 Q253.9219,271.1875 254.5703,271.3516 Q255.2188,271.5156 255.7656,271.875 Z "/>
        <text fill="#000000" font-family="sans-serif" font-size="12" lengthAdjust="spacingAndGlyphs" textLength="68" x="267" y="280.9102">FileManager</text>
        <line style="stroke: #A80036; stroke-width: 1.5;" x1="239" x2="337" y1="292" y2="292"/>
        <line style="stroke: #A80036; stroke-width: 1.5;" x1="239" x2="337" y1="300" y2="300"/>
        <rect fill="#FEFECE" filter="url(#f1)" height="48" style="stroke: #A80036; stroke-width: 1.5;" width="80" x="598" y="800"/>
        <ellipse cx="613" cy="816" fill="#ADD1B2" rx="11" ry="11" style="stroke: #A80036; stroke-width: 1.0;"/>
        <path d="M615.7656,811.875 Q615.9219,811.6563 616.1094,811.5469 Q616.2969,811.4375 616.5156,811.4375 Q616.8906,811.4375 617.125,811.6953 Q617.3594,811.9531 617.3594,812.5625 L617.3594,814.0156 Q617.3594,814.625 617.125,814.8906 Q616.8906,815.1563 616.5156,815.1563 Q616.1719,815.1563 615.9688,814.9531 Q615.7656,814.7656 615.6563,814.25 Q615.6094,813.8906 615.4219,813.7031 Q615.0938,813.3281 614.4844,813.1094 Q613.875,812.8906 613.25,812.8906 Q612.4844,812.8906 611.8516,813.2188 Q611.2188,813.5469 610.7266,814.2969 Q610.2344,815.0469 610.2344,816.0781 L610.2344,817.1719 Q610.2344,818.4063 611.125,819.2266 Q612.0156,820.0469 613.6094,820.0469 Q614.5469,820.0469 615.2031,819.7969 Q615.5938,819.6406 616.0156,819.2031 Q616.2813,818.9375 616.4297,818.8594 Q616.5781,818.7813 616.7813,818.7813 Q617.1094,818.7813 617.3672,819.0391 Q617.625,819.2969 617.625,819.6406 Q617.625,819.9844 617.2813,820.3906 Q616.7813,820.9688 615.9844,821.2969 Q614.9063,821.75 613.6094,821.75 Q612.0938,821.75 610.8906,821.125 Q609.9063,820.625 609.2188,819.5547 Q608.5313,818.4844 608.5313,817.2031 L608.5313,816.0469 Q608.5313,814.7188 609.1484,813.5703 Q609.7656,812.4219 610.8594,811.8047 Q611.9531,811.1875 613.1875,811.1875 Q613.9219,811.1875 614.5703,811.3516 Q615.2188,811.5156 615.7656,811.875 Z "/>
        <text fill="#000000" font-family="sans-serif" font-size="12" lengthAdjust="spacingAndGlyphs" textLength="48" x="627" y="820.9102">XssFilter</text>
        <line style="stroke: #A80036; stroke-width: 1.5;" x1="599" x2="677" y1="832" y2="832"/>
        <line style="stroke: #A80036; stroke-width: 1.5;" x1="599" x2="677" y1="840" y2="840"/>
        <path d="M259,868.024 C259,881.579 259,896.038 259,907.678 " fill="none" style="stroke: #A80036; stroke-width: 1.0; stroke-dasharray: 7.0,7.0;"/>
        <polygon fill="none" points="252,868,259,848,266,868,252,868" style="stroke: #A80036; stroke-width: 1.0;"/>
        <path d="M259,976.024 C259,989.579 259,1004.038 259,1015.678 " fill="none" style="stroke: #A80036; stroke-width: 1.0;"/>
        <polygon fill="none" points="252,976,259,956,266,976,252,976" style="stroke: #A80036; stroke-width: 1.0;"/>
        <path d="M305.657,963.157 C331.557,979.897 363.274,1000.397 387.201,1015.862 " fill="none" style="stroke: #A80036; stroke-width: 1.0;"/>
        <polygon fill="none" points="294.586,956,297.4544,962.6161,304.6647,962.513,301.7964,955.8969,294.586,956" style="stroke: #A80036; stroke-width: 1.0;"/>
        <path d="M769.632,327.54 C772.732,341.235 776.053,355.9 778.72,367.678 " fill="none" style="stroke: #A80036; stroke-width: 1.0; stroke-dasharray: 7.0,7.0;"/>
        <polygon fill="none" points="762.797,329.052,765.208,308,776.451,325.961,762.797,329.052" style="stroke: #A80036; stroke-width: 1.0;"/>
        <path d="M727.668,395.771 C618.665,401.742 383.019,417.79 308,448 C292.135,454.389 276.776,465.591 264.776,475.872 " fill="none" style="stroke: #A80036; stroke-width: 1.0;"/>
        <polygon fill="#A80036" points="740.936,395.06,734.7301,391.3875,728.9533,395.7035,735.1591,399.376,740.936,395.06" style="stroke: #A80036; stroke-width: 1.0;"/>
        <path d="M819.071,426.182 C824.289,432.886 828.936,440.268 832,448 C843.235,476.353 840.874,695.083 836,748 C830.65,806.082 815.942,873.235 807.732,907.793 " fill="none" style="stroke: #A80036; stroke-width: 1.0;"/>
        <polygon fill="#A80036" points="810.548,416.254,811.4219,423.412,818.3653,425.3584,817.4914,418.2004,810.548,416.254" style="stroke: #A80036; stroke-width: 1.0;"/>
        <path d="M878.745,308 C861.738,322.899 839.347,342.514 820.603,358.935 " fill="none" style="stroke: #A80036; stroke-width: 1.0;"/>
        <polygon fill="#A80036" points="810.622,367.678,817.7709,366.7328,819.6479,359.7703,812.4991,360.7155,810.622,367.678" style="stroke: #A80036; stroke-width: 1.0;"/>
        <path d="M836.89,422.706 C850.977,430.78 866.132,439.613 880,448 C894.658,456.864 910.61,466.943 924.384,475.787 " fill="none" style="stroke: #A80036; stroke-width: 1.0;"/>
        <polygon fill="#A80036" points="825.36,416.129,828.5899,422.5763,835.7835,422.0746,832.5536,415.6273,825.36,416.129" style="stroke: #A80036; stroke-width: 1.0;"/>
        <path d="M839.93,399.502 C903.129,407.871 1000.871,424.222 1029,448 C1070.56,483.135 1085.9,548.981 1091.28,583.895 " fill="none" style="stroke: #A80036; stroke-width: 1.0;"/>
        <polygon fill="none" points="827.006,397.838,832.4456,402.572,838.9076,399.3717,833.468,394.6376,827.006,397.838" style="stroke: #A80036; stroke-width: 1.0;"/>
        <path d="M480,112.02 C480,125.58 480,140.04 480,151.68 " fill="none" style="stroke: #A80036; stroke-width: 1.0; stroke-dasharray: 7.0,7.0;"/>
        <polygon fill="none" points="473,112,480,92,487,112,473,112" style="stroke: #A80036; stroke-width: 1.0;"/>
        <path d="M550.586,181.43 C666.011,189.283 889.826,207.165 965,232 C984.617,238.481 1004.684,249.691 1020.69,259.953 " fill="none" style="stroke: #A80036; stroke-width: 1.0;"/>
        <polygon fill="none" points="537.402,180.55,543.1209,184.9426,549.3751,181.353,543.6562,176.9605,537.402,180.55" style="stroke: #A80036; stroke-width: 1.0;"/>
        <path d="M462.137,212.329 C431.439,278.259 376.523,423.203 426,532 C429.137,538.898 459.243,564.34 482.961,583.696 " fill="none" style="stroke: #A80036; stroke-width: 1.0;"/>
        <polygon fill="none" points="467.916,200.231,461.7206,203.9211,462.7439,211.0592,468.9393,207.3691,467.916,200.231" style="stroke: #A80036; stroke-width: 1.0;"/>
        <path d="M409.739,177.77 C277.768,183.31 6,215.98 6,391 C6,391 6,391 6,609 C6,710.539 126.262,773.789 200.957,803.281 " fill="none" style="stroke: #A80036; stroke-width: 1.0;"/>
        <polygon fill="#A80036" points="422.825,177.29,416.6822,173.513,410.8331,177.7306,416.9759,181.5076,422.825,177.29" style="stroke: #A80036; stroke-width: 1.0;"/>
        <path d="M501.239,211.54 C541.769,277.453 629.174,419.596 663.623,475.62 " fill="none" style="stroke: #A80036; stroke-width: 1.0;"/>
        <polygon fill="#A80036" points="494.24,200.157,493.9756,207.3633,500.5259,210.3789,500.7902,203.1727,494.24,200.157" style="stroke: #A80036; stroke-width: 1.0;"/>
        <path d="M415.977,205.683 C399.154,213.743 381.191,222.825 365,232 C350.073,240.459 334.173,250.756 320.72,259.877 " fill="none" style="stroke: #A80036; stroke-width: 1.0;"/>
        <polygon fill="#A80036" points="427.984,200.008,420.8502,198.9552,417.1346,205.1353,424.2684,206.1882,427.984,200.008" style="stroke: #A80036; stroke-width: 1.0;"/>
        <path d="M550.083,176.72 C625.537,178.85 747.577,189.46 843,232 C857.767,238.583 871.881,249.672 882.902,259.831 " fill="none" style="stroke: #A80036; stroke-width: 1.0;"/>
        <polygon fill="#A80036" points="537.011,176.42,542.9184,180.5556,549.0079,176.6932,543.1005,172.5576,537.011,176.42" style="stroke: #A80036; stroke-width: 1.0;"/>
        <path d="M435.097,642.073 C466.964,660.531 505.348,682.764 531.291,697.792 " fill="none" style="stroke: #A80036; stroke-width: 1.0; stroke-dasharray: 7.0,7.0;"/>
        <polygon fill="none" points="431.506,648.082,417.708,632,438.523,635.968,431.506,648.082" style="stroke: #A80036; stroke-width: 1.0;"/>
        <path d="M577.708,740 C586.927,752.692 598.633,768.806 609.272,783.452 " fill="none" style="stroke: #A80036; stroke-width: 1.0;"/>
        <polygon fill="none" points="614.968,779.383,621.059,799.678,603.641,787.611,614.968,779.383" style="stroke: #A80036; stroke-width: 1.0;"/>
        <path d="M659.958,542.575 C653.897,556.543 647.353,571.622 642.121,583.678 " fill="none" style="stroke: #A80036; stroke-width: 1.0; stroke-dasharray: 7.0,7.0;"/>
        <polygon fill="none" points="653.635,539.561,668.019,524,666.478,545.134,653.635,539.561" style="stroke: #A80036; stroke-width: 1.0;"/>
        <path d="M512,544.024 C512,557.579 512,572.038 512,583.678 " fill="none" style="stroke: #A80036; stroke-width: 1.0; stroke-dasharray: 7.0,7.0;"/>
        <polygon fill="none" points="505,544,512,524,519,544,505,544" style="stroke: #A80036; stroke-width: 1.0;"/>
        <path d="M727.402,575.348 C711.514,562.945 691.811,550.295 671.5,544 C627.986,530.514 510.014,530.514 466.5,544 C442.05,551.578 418.776,568.961 402.237,583.701 " fill="none" style="stroke: #A80036; stroke-width: 1.0;"/>
        <polygon fill="#A80036" points="737.753,583.815,735.6409,576.9202,728.464,576.2179,730.5762,583.1128,737.753,583.815" style="stroke: #A80036; stroke-width: 1.0;"/>
        <text fill="#000000" font-family="sans-serif" font-size="13" lengthAdjust="spacingAndGlyphs" textLength="7" x="723.3866" y="573.1078">3</text>
        <path d="M767.384,645.196 C775.452,711.806 792.439,852.061 799.168,907.62 " fill="none" style="stroke: #A80036; stroke-width: 1.0;"/>
        <polygon fill="#A80036" points="765.805,632.157,762.5553,638.5944,767.2476,644.07,770.4973,637.6326,765.805,632.157" style="stroke: #A80036; stroke-width: 1.0;"/>
        <path d="M754.682,645.196 C739.374,711.806 707.141,852.061 694.373,907.62 " fill="none" style="stroke: #A80036; stroke-width: 1.0;"/>
        <polygon fill="#A80036" points="757.678,632.157,752.4359,637.1088,754.9906,643.8522,760.2327,638.9004,757.678,632.157" style="stroke: #A80036; stroke-width: 1.0;"/>
        <path d="M639.764,467.765 C622.505,455.258 601.153,442.417 579.5,436 C552.441,427.981 352.457,427.645 325.5,436 C301.594,443.409 279.24,461.009 263.536,475.88 " fill="none" style="stroke: #A80036; stroke-width: 1.0;"/>
        <polygon fill="#A80036" points="650.477,475.865,648.1038,469.0556,640.9054,468.6273,643.2786,475.4367,650.477,475.865" style="stroke: #A80036; stroke-width: 1.0;"/>
        <path d="M684.907,608 C692.028,608 699.148,608 706.268,608 " fill="none" style="stroke: #A80036; stroke-width: 1.0;"/>
        <polygon fill="#A80036" points="671.658,608,677.658,612,683.658,608,677.658,604,671.658,608" style="stroke: #A80036; stroke-width: 1.0;"/>
        <path d="M285.255,524.038 C292.691,527.159 300.448,529.977 308,532 C422.662,562.707 464.929,509.161 574,556 C584.336,560.439 594.126,567.445 602.618,574.859 " fill="none" style="stroke: #A80036; stroke-width: 1.0;"/>
        <polygon fill="#A80036" points="612.282,583.96,610.6563,576.9345,603.546,575.733,605.1717,582.7585,612.282,583.96" style="stroke: #A80036; stroke-width: 1.0;"/>
        <path d="M580.332,637.49 C578.213,638.38 576.097,639.221 574,640 C474.944,676.796 428.413,631.183 342,692 C303.58,719.04 278.972,770.084 267.199,799.844 " fill="none" style="stroke: #A80036; stroke-width: 1.0;"/>
        <polygon fill="#A80036" points="592.405,631.966,585.2847,630.8252,581.4931,636.959,588.6134,638.0998,592.405,631.966" style="stroke: #A80036; stroke-width: 1.0;"/>
        <path d="M580.483,636.731 C578.298,637.845 576.13,638.939 574,640 C537.521,658.174 495.773,677.467 463.795,691.933 " fill="none" style="stroke: #A80036; stroke-width: 1.0;"/>
        <polygon fill="#A80036" points="592.22,630.648,585.0524,629.8574,581.5658,636.1696,588.7334,636.9602,592.22,630.648" style="stroke: #A80036; stroke-width: 1.0;"/>
        <path d="M668.358,641.204 C719.103,688.331 810.187,781.265 857,880 C878.326,924.98 884.982,983.77 887.058,1015.771 " fill="none" style="stroke: #A80036; stroke-width: 1.0;"/>
        <polygon fill="none" points="658.473,632.129,660.1881,639.1332,667.3132,640.2439,665.598,633.2397,658.473,632.129" style="stroke: #A80036; stroke-width: 1.0;"/>
        <path d="M367.821,747.608 C343.779,764.264 314.519,784.536 292.398,799.862 " fill="none" style="stroke: #A80036; stroke-width: 1.0;"/>
        <polygon fill="#A80036" points="378.801,740,371.591,740.1288,368.9369,746.8337,376.1468,746.7049,378.801,740" style="stroke: #A80036; stroke-width: 1.0;"/>
        <path d="M1137.65,644.869 C1156.46,660.325 1177.92,677.959 1194.62,691.678 " fill="none" style="stroke: #A80036; stroke-width: 1.0; stroke-dasharray: 7.0,7.0;"/>
        <polygon fill="none" points="1133,650.106,1121.99,632,1141.89,639.289,1133,650.106" style="stroke: #A80036; stroke-width: 1.0;"/>
        <path d="M1091.94,645.338 C1091.07,660.681 1090.09,678.098 1089.32,691.678 " fill="none" style="stroke: #A80036; stroke-width: 1.0;"/>
        <polygon fill="none" points="1092.7,632,1088.367,637.7641,1092.0212,643.9808,1096.3542,638.2167,1092.7,632" style="stroke: #A80036; stroke-width: 1.0;"/>
        <path d="M1023.81,725.559 C972.929,732.184 899.99,741.324 836,748 C711.773,760.96 679.882,756.083 556,772 C472.586,782.717 376.822,800.084 317.108,811.524 " fill="none" style="stroke: #A80036; stroke-width: 1.0;"/>
        <polygon fill="#A80036" points="1036.9,723.847,1030.432,720.6588,1025.0013,725.4031,1031.4693,728.5913,1036.9,723.847" style="stroke: #A80036; stroke-width: 1.0;"/>
        <path d="M1081.59,753.196 C1069.8,819.806 1044.97,960.061 1035.14,1015.62 " fill="none" style="stroke: #A80036; stroke-width: 1.0;"/>
        <polygon fill="none" points="1083.9,740.157,1078.9149,745.3674,1081.8071,751.9731,1086.7923,746.7627,1083.9,740.157" style="stroke: #A80036; stroke-width: 1.0;"/>
        <path d="M1202.96,751.856 C1175.27,799.86 1123.55,888.911 1078,964 C1067.4,981.473 1055.13,1001.034 1045.78,1015.797 " fill="none" style="stroke: #A80036; stroke-width: 1.0;"/>
        <polygon fill="none" points="1209.63,740.289,1203.1676,743.4885,1203.6355,750.6845,1210.0979,747.4849,1209.63,740.289" style="stroke: #A80036; stroke-width: 1.0;"/>
        <path d="M231.604,416 C232.916,427.588 234.55,442.029 236.087,455.601 " fill="none" style="stroke: #A80036; stroke-width: 1.0; stroke-dasharray: 7.0,7.0;"/>
        <polygon fill="none" points="243.066,455.018,238.36,475.678,229.154,456.593,243.066,455.018" style="stroke: #A80036; stroke-width: 1.0;"/>
        <path d="M243.023,537.196 C246.747,603.806 254.587,744.061 257.693,799.62 " fill="none" style="stroke: #A80036; stroke-width: 1.0;"/>
        <polygon fill="#A80036" points="242.295,524.157,238.6362,530.3709,242.9649,536.1383,246.6237,529.9244,242.295,524.157" style="stroke: #A80036; stroke-width: 1.0;"/>
        <path d="M281.108,532.032 C302.444,548.541 328.246,568.504 347.858,583.678 " fill="none" style="stroke: #A80036; stroke-width: 1.0;"/>
        <polygon fill="#A80036" points="270.727,524,273.0244,530.8354,280.2175,531.3437,277.9202,524.5083,270.727,524" style="stroke: #A80036; stroke-width: 1.0;"/>
        <path d="M184.559,422.165 C176.629,429.579 169.476,438.251 165,448 C149.422,481.928 154.011,496.321 165,532 C199.181,642.978 239.806,657.047 312,748 C323.209,762.121 496.369,948.892 558.236,1015.557 " fill="none" style="stroke: #A80036; stroke-width: 1.0;"/>
        <polygon fill="none" points="194.492,413.759,187.328,414.5816,185.3319,421.5109,192.4959,420.6883,194.492,413.759" style="stroke: #A80036; stroke-width: 1.0;"/>
        <path d="M657.771,866.094 C664.556,880.196 671.912,895.484 677.779,907.678 " fill="none" style="stroke: #A80036; stroke-width: 1.0;"/>
        <polygon fill="none" points="651.43,869.058,649.066,848,664.045,862.988,651.43,869.058" style="stroke: #A80036; stroke-width: 1.0;"/>
        <path d="M696.103,851.47 C712.413,859.796 729.826,869.567 745,880 C756.926,888.201 769.03,898.664 778.998,907.976 " fill="none" style="stroke: #A80036; stroke-width: 1.0;"/>
        <polygon fill="none" points="692.857,857.674,678,842.565,699.036,845.112,692.857,857.674" style="stroke: #A80036; stroke-width: 1.0;"/>
        <path d="M705.808,967.935 C713.351,983.611 722.045,1001.682 728.779,1015.678 " fill="none" style="stroke: #A80036; stroke-width: 1.0;"/>
        <polygon fill="none" points="700.066,956,699.063,963.141,705.269,966.8134,706.2719,959.6724,700.066,956" style="stroke: #A80036; stroke-width: 1.0;"/>
        <path d="M781.838,967.47 C772.607,983.253 761.908,1001.544 753.641,1015.678 " fill="none" style="stroke: #A80036; stroke-width: 1.0;"/>
        <polygon fill="none" points="788.547,956,782.0651,959.1599,782.4888,966.3585,788.9707,963.1986,788.547,956" style="stroke: #A80036; stroke-width: 1.0;"/>
        <path d="M960,544.024 C960,557.579 960,572.038 960,583.678 " fill="none" style="stroke: #A80036; stroke-width: 1.0; stroke-dasharray: 7.0,7.0;"/>
        <polygon fill="none" points="953,544,960,524,967,544,953,544" style="stroke: #A80036; stroke-width: 1.0;"/>
        <path d="M474.425,1064 C508.239,1079.124 552.917,1099.1062 589.961,1115.6746 " fill="none" style="stroke: #A80036; stroke-width: 1.0;"/>
        <polygon fill="none" points="592.867,1109.306,608.266,1123.8617,587.151,1122.086,592.867,1109.306" style="stroke: #A80036; stroke-width: 1.0;"/>
        <path d="M976.228,1064.083 C968.813,1066.904 961.259,1069.625 954,1072 C880.17,1096.1603 793.838,1117.3735 733.909,1131.0175 " fill="none" style="stroke: #A80036; stroke-width: 1.0;"/>
        <polygon fill="none" points="735.313,1137.8764,714.265,1135.4339,732.242,1124.2173,735.313,1137.8764" style="stroke: #A80036; stroke-width: 1.0;"/>
        <path d="M597.359,1064 C606.937,1076.692 619.099,1092.8059 630.153,1107.4522 " fill="none" style="stroke: #A80036; stroke-width: 1.0;"/>
        <polygon fill="none" points="635.938,1103.4978,642.399,1123.6784,624.763,1111.9315,635.938,1103.4978" style="stroke: #A80036; stroke-width: 1.0;"/>
        <path d="M722.641,1064 C713.063,1076.692 700.901,1092.8059 689.847,1107.4522 " fill="none" style="stroke: #A80036; stroke-width: 1.0;"/>
        <polygon fill="none" points="695.237,1111.9315,677.601,1123.6784,684.062,1103.4978,695.237,1111.9315" style="stroke: #A80036; stroke-width: 1.0;"/>
        <path d="M839.368,1063.61 C806.997,1078.659 764.005,1098.6467 728.227,1115.2806 " fill="none" style="stroke: #A80036; stroke-width: 1.0;"/>
        <polygon fill="none" points="730.825,1121.7919,709.738,1123.876,724.923,1109.0968,730.825,1121.7919" style="stroke: #A80036; stroke-width: 1.0;"/>
        <path d="M592.384,1145.1684 C475.793,1140.6126 243.754,1124.9643 185,1072 C137.516,1029.195 148,996.929 148,933 C148,823 148,823 148,823 C148,666.438 303.836,698.644 449,640 C454.877,637.626 460.966,634.937 466.938,632.159 " fill="none" style="stroke: #A80036; stroke-width: 1.0;"/>
        <polygon fill="#A80036" points="605.672,1145.6591,599.8238,1141.4403,593.6802,1145.216,599.5284,1149.4348,605.672,1145.6591" style="stroke: #A80036; stroke-width: 1.0;"/>
    </g>
</svg>
